<?xml version="1.0" standalone="no"?>
<!DOCTYPE svg PUBLIC "-//W3C//DTD SVG 1.1//EN" "http://www.w3.org/Graphics/SVG/1.1/DTD/svg11.dtd" >
<svg xmlns="http://www.w3.org/2000/svg" xmlns:xlink="http://www.w3.org/1999/xlink" version="1.1">
<metadata>
Created by FontForge 20161116 at Wed Jan 14 08:07:57 2015
 By Jimmy Wärting
\(c\) 2014 Apple Inc. All rights reserved.
</metadata>
<defs>
<font id="SanFranciscoDisplay-Light" horiz-adv-x="0" >
  <font-face 
    font-family="San Francisco Display"
    font-weight="300"
    font-stretch="normal"
    units-per-em="2048"
    panose-1="0 0 0 0 0 0 0 0 0 0"
    ascent="1638"
    descent="-410"
    x-height="1043"
    cap-height="1363"
    bbox="-596 -486 2048 1989"
    underline-thickness="50"
    underline-position="-75"
    stemh="132"
    stemv="154"
    unicode-range="U+000D-FB02"
  />
<missing-glyph horiz-adv-x="1293" 
d="M120 0v1365h1053v-1365h-1053zM501 313c0 -63 49 -107 120 -107c74 0 122 43 122 107c0 65 -48 108 -122 108c-72 0 -120 -44 -120 -108zM339 888h169c1 79 49 130 125 130c72 0 120 -43 120 -110c0 -51 -20 -78 -103 -138c-92 -65 -125 -129 -118 -221l1 -18h166v15
c0 64 15 87 107 153c97 70 133 130 133 218c0 151 -117 250 -296 250c-190 0 -310 -109 -304 -279z" />
    <glyph glyph-name=".notdef" horiz-adv-x="1293" 
d="M120 0v1365h1053v-1365h-1053zM501 313c0 -63 49 -107 120 -107c74 0 122 43 122 107c0 65 -48 108 -122 108c-72 0 -120 -44 -120 -108zM339 888h169c1 79 49 130 125 130c72 0 120 -43 120 -110c0 -51 -20 -78 -103 -138c-92 -65 -125 -129 -118 -221l1 -18h166v15
c0 64 15 87 107 153c97 70 133 130 133 218c0 151 -117 250 -296 250c-190 0 -310 -109 -304 -279z" />
    <glyph glyph-name=".null" 
 />
    <glyph glyph-name="CR" unicode="&#xd;" 
 />
    <glyph glyph-name="space" unicode=" " horiz-adv-x="415" 
 />
    <glyph glyph-name="exclam" unicode="!" horiz-adv-x="500" 
d="M154 79c0 56 43 97 95 97c56 0 97 -41 97 -97c0 -53 -41 -95 -97 -95c-52 0 -95 42 -95 95zM181 1363h141l-15 -971h-111z" />
    <glyph glyph-name="quotedbl" unicode="&#x22;" horiz-adv-x="704" 
d="M119 1363h144l-22 -465h-100zM442 1363h143l-22 -465h-100z" />
    <glyph glyph-name="numbersign" unicode="#" horiz-adv-x="1188" 
d="M1139 866h-231l-73 -358h218l-21 -104h-219l-82 -404h-105l82 404h-320l-83 -404h-104l81 404h-217l22 104h218l73 358h-207l21 103h208l80 396h105l-81 -396h321l81 396h104l-81 -396h231zM483 866l-73 -358h320l73 358h-320z" />
    <glyph glyph-name="dollar" unicode="$" horiz-adv-x="1063" 
d="M217 1029c0 -109 69 -184 206 -230c13 -5 45 -15 61 -19v486c-158 -14 -267 -98 -267 -237zM877 362c0 129 -68 204 -261 260c-8 2 -19 5 -27 7v-524c172 14 288 106 288 257zM589 -135h-105v130c-289 16 -424 189 -426 366h126c6 -129 107 -238 300 -254v548l-81 22
c-167 44 -309 140 -309 342c0 217 163 341 390 359v132h105v-132c223 -17 385 -149 390 -348h-123c-3 116 -95 220 -267 236v-515l67 -17c224 -59 345 -159 345 -363c0 -233 -176 -358 -412 -375v-131z" />
    <glyph glyph-name="percent" unicode="%" horiz-adv-x="1413" 
d="M144 1049v-17c0 -146 63 -244 162 -244c97 0 162 96 162 242v17c0 144 -62 242 -161 242c-103 0 -163 -102 -163 -240zM45 1025v30c0 186 104 325 261 325c156 0 261 -138 261 -327v-30c0 -187 -104 -327 -262 -327s-260 139 -260 329zM945 344v-17
c0 -146 63 -244 162 -244c97 0 162 96 162 242v17c0 144 -62 242 -161 242c-103 0 -163 -102 -163 -240zM846 320v30c0 185 104 325 261 325c156 0 262 -138 262 -327v-30c0 -188 -105 -327 -263 -327s-260 139 -260 329zM246 0h-118l517 682l517 681h118l-516 -681z" />
    <glyph glyph-name="ampersand" unicode="&#x26;" horiz-adv-x="1282" 
d="M1114 0l-141 152c-135 -131 -307 -178 -445 -178c-241 0 -445 138 -445 379c0 157 91 277 273 373c11 6 48 25 60 31c-104 107 -181 201 -181 325c0 169 143 293 332 293c194 0 330 -129 330 -298c0 -158 -120 -255 -301 -348l369 -400c49 86 77 226 80 391v50h121
c0 -9 -1 -43 -1 -51c-2 -195 -40 -363 -115 -475l229 -244h-165zM428 646c-132 -71 -217 -156 -217 -287c0 -176 151 -275 325 -275c119 0 266 46 360 150l-407 444c-11 -6 -51 -26 -61 -32zM523 804c163 81 250 154 250 270c0 115 -84 196 -205 196s-208 -81 -208 -195
c0 -85 48 -154 163 -271z" />
    <glyph glyph-name="quotesingle" unicode="'" horiz-adv-x="382" 
d="M119 1363h144l-22 -465h-100z" />
    <glyph glyph-name="parenleft" unicode="(" horiz-adv-x="591" 
d="M403 1363h102c-78 -93 -238 -360 -238 -796c0 -434 153 -690 236 -829h-108c-99 123 -252 390 -252 828c0 439 149 654 260 797z" />
    <glyph glyph-name="parenright" unicode=")" horiz-adv-x="591" 
d="M86 1363h100c112 -143 262 -358 262 -797c0 -438 -156 -705 -254 -828h-106c82 139 234 395 234 829c0 436 -159 703 -236 796z" />
    <glyph glyph-name="asterisk" unicode="*" horiz-adv-x="775" 
d="M431 739h-86l8 260l-224 -137l-43 76l233 121l-233 126l43 77l224 -144l-8 267h86l-9 -267l224 144l43 -76l-233 -127l233 -121l-43 -76l-224 137z" />
    <glyph glyph-name="plus" unicode="+" horiz-adv-x="1063" 
d="M584 492v-463h-105v463h-421v106h421v442h105v-442h422v-106h-422z" />
    <glyph glyph-name="comma" unicode="," horiz-adv-x="395" 
d="M136 -250h-93l105 394h140z" />
    <glyph glyph-name="hyphen" unicode="-" horiz-adv-x="776" 
d="M703 504h-630v113h630v-113z" />
    <glyph glyph-name="period" unicode="." horiz-adv-x="456" 
d="M135 76c0 53 42 93 92 93c54 0 95 -40 95 -93s-41 -93 -95 -93c-50 0 -92 40 -92 93z" />
    <glyph glyph-name="slash" unicode="/" horiz-adv-x="666" 
d="M138 -311h-110l502 1747h110z" />
    <glyph glyph-name="zero" unicode="0" horiz-adv-x="1128" 
d="M232 735v-108c0 -348 126 -544 329 -544s329 196 329 544v108c0 348 -126 544 -329 544s-329 -196 -329 -544zM104 626v108c0 410 166 659 458 659c290 0 455 -248 455 -659v-108c0 -410 -165 -656 -456 -656s-457 246 -457 656z" />
    <glyph glyph-name="one" unicode="1" horiz-adv-x="783" 
d="M566 0h-126v1218h-2c-50 -27 -264 -161 -329 -207v139c71 51 266 174 340 212h117v-1362z" />
    <glyph glyph-name="two" unicode="2" horiz-adv-x="1094" 
d="M252 1004h-126v5c0 195 143 384 416 384c255 0 409 -162 409 -367c0 -167 -105 -285 -220 -421l-419 -489v-2h667v-114h-846v86l523 606c78 91 164 192 164 330c0 148 -109 258 -281 258c-184 0 -287 -130 -287 -271v-5z" />
    <glyph glyph-name="three" unicode="3" horiz-adv-x="1112" 
d="M397 646v114h126c182 0 298 116 297 267c-1 146 -107 253 -284 253c-198 0 -274 -142 -280 -249h-124c2 160 125 362 404 362c252 0 410 -152 415 -347c4 -198 -147 -320 -263 -336v-2c134 -11 316 -117 319 -337c4 -232 -198 -402 -471 -402c-289 0 -431 178 -437 376
h123c13 -137 112 -263 318 -263c208 0 339 122 337 287c-1 168 -137 277 -343 277h-137z" />
    <glyph glyph-name="four" unicode="4" horiz-adv-x="1136" 
d="M689 1363h187v-943h187v-114h-187v-306h-122v306h-663v111c119 214 461 731 598 946zM224 420h530v828h-3c-113 -168 -425 -649 -527 -825v-3z" />
    <glyph glyph-name="five" unicode="5" horiz-adv-x="1155" 
d="M134 335h126c16 -138 127 -252 321 -252c167 0 334 134 334 349c0 207 -144 347 -332 347c-176 0 -279 -103 -319 -187h-110l82 772h709v-114h-601l-58 -493h2c32 48 149 133 310 133c250 0 447 -187 447 -455c0 -269 -203 -465 -473 -465c-287 0 -427 188 -438 365z" />
    <glyph glyph-name="six" unicode="6" horiz-adv-x="1107" 
d="M995 1047h-129c-9 96 -97 224 -273 224c-198 0 -366 -181 -375 -623h2c40 117 176 231 367 231c216 0 443 -162 443 -450c0 -284 -202 -458 -458 -458c-278 0 -477 195 -477 636c0 538 217 777 504 777c237 0 379 -175 396 -337zM242 431c0 -220 152 -348 333 -348
c175 0 328 119 328 337c0 227 -166 345 -329 345c-174 0 -332 -129 -332 -334z" />
    <glyph glyph-name="seven" unicode="7" horiz-adv-x="1063" 
d="M103 1363h839v-120l-571 -1243h-135l583 1246v3h-716v114z" />
    <glyph glyph-name="eight" unicode="8" horiz-adv-x="1147" 
d="M574 81c196 0 342 119 342 292c0 168 -143 288 -342 288c-198 0 -342 -120 -342 -288c0 -173 146 -292 342 -292zM574 769c167 0 290 105 290 256c0 153 -122 255 -290 255c-167 0 -290 -102 -290 -255c0 -151 124 -256 290 -256zM571 -30c-270 0 -465 162 -465 397
c0 220 171 327 285 352v3c-94 27 -232 125 -232 311c0 209 175 359 415 359c241 0 415 -150 415 -359c0 -189 -143 -286 -233 -311v-3c115 -25 285 -134 285 -350c0 -236 -200 -399 -470 -399z" />
    <glyph glyph-name="nine" unicode="9" horiz-adv-x="1107" 
d="M105 329h129c12 -106 102 -241 295 -241c231 0 361 207 362 623h-4c-42 -116 -163 -228 -368 -228c-219 0 -429 157 -429 453c0 279 209 455 446 455c286 0 479 -182 479 -673c0 -493 -182 -742 -493 -742c-270 0 -404 190 -417 353zM870 922c0 226 -138 357 -326 357
c-173 0 -327 -124 -327 -342c0 -225 151 -342 326 -342c174 0 327 138 327 327z" />
    <glyph glyph-name="colon" unicode=":" horiz-adv-x="479" 
d="M144 813c0 53 41 93 91 93c54 0 95 -40 95 -93s-41 -93 -95 -93c-50 0 -91 40 -91 93zM144 83c0 53 41 93 91 93c54 0 95 -40 95 -93s-41 -93 -95 -93c-50 0 -91 40 -91 93z" />
    <glyph glyph-name="semicolon" unicode=";" horiz-adv-x="484" 
d="M138 813c0 53 42 93 92 93c53 0 95 -40 95 -93s-42 -93 -95 -93c-50 0 -92 40 -92 93zM157 -237h-93l102 381h140z" />
    <glyph glyph-name="less" unicode="&#x3c;" horiz-adv-x="1063" 
d="M119 451v113l818 524v-136l-691 -435v-9l691 -407v-136z" />
    <glyph glyph-name="equal" unicode="=" horiz-adv-x="1063" 
d="M941 314h-820v104h820v-104zM941 671h-820v106h820v-106z" />
    <glyph glyph-name="greater" unicode="&#x3e;" horiz-adv-x="1063" 
d="M948 564v-113l-819 -486v136l693 407v9l-693 435v136z" />
    <glyph glyph-name="question" unicode="?" horiz-adv-x="916" 
d="M340 79c0 56 43 97 95 97c56 0 98 -41 98 -97c0 -53 -42 -95 -98 -95c-52 0 -95 42 -95 95zM67 1030c3 253 190 366 398 366c201 0 384 -111 384 -330c0 -159 -93 -245 -197 -328c-124 -97 -157 -144 -157 -251v-73h-126v94c0 132 77 212 191 302c102 81 159 138 159 249
c0 157 -123 226 -260 226c-191 0 -268 -129 -271 -255h-121z" />
    <glyph glyph-name="at" unicode="@" horiz-adv-x="1652" 
d="M1241 149c-137 0 -212 71 -223 145h-8c-14 -51 -86 -145 -220 -145c-157 0 -257 120 -257 320v91c0 185 92 315 264 315c128 0 187 -85 201 -134h7v119h107v-480c0 -100 70 -138 142 -138c107 0 207 103 207 353v37c0 303 -218 575 -608 575h-8
c-364 0 -636 -255 -636 -674v-43c0 -431 286 -649 634 -649h8c147 0 243 19 318 49v-100c-58 -25 -161 -46 -318 -46h-8c-415 0 -744 251 -744 740v55c0 469 316 765 746 765h8c461 0 713 -324 713 -668v-52c0 -276 -145 -435 -325 -435zM645 482c0 -166 78 -234 178 -234
c96 0 180 61 180 220v96c0 129 -71 219 -181 219c-102 0 -177 -78 -177 -228v-73z" />
    <glyph glyph-name="A" unicode="A" horiz-adv-x="1172" 
d="M165 0h-132l490 1363h126l489 -1363h-137l-149 436h-537zM585 1206h-4l-230 -665h464z" />
    <glyph glyph-name="B" unicode="B" horiz-adv-x="1213" 
d="M177 0v1363h477c232 0 383 -124 383 -335c0 -179 -109 -274 -223 -307v-6c181 -23 301 -144 301 -339c0 -239 -181 -376 -465 -376h-473zM304 1247v-488h265c208 0 338 72 338 249c0 163 -112 239 -272 239h-331zM304 643v-527h291c230 0 389 61 389 257
c0 185 -137 270 -320 270h-360z" />
    <glyph glyph-name="C" unicode="C" horiz-adv-x="1244" 
d="M249 782v-208c0 -311 143 -487 400 -487c230 0 359 142 359 307h126v-1c0 -195 -158 -423 -490 -423c-336 0 -522 229 -522 606v205c0 377 191 612 522 612c325 0 486 -235 486 -440v-1h-126c0 151 -125 325 -360 325c-249 0 -395 -185 -395 -495z" />
    <glyph glyph-name="D" unicode="D" horiz-adv-x="1289" 
d="M177 1363h402c437 0 602 -280 602 -682c0 -395 -157 -681 -602 -681h-402v1363zM304 1247v-1131h271c333 0 475 211 475 565c0 347 -138 566 -475 566h-271z" />
    <glyph glyph-name="E" unicode="E" horiz-adv-x="1085" 
d="M972 116v-116h-795v1363h795v-117h-668v-491h633v-115h-633v-524h668z" />
    <glyph glyph-name="F" unicode="F" horiz-adv-x="1015" 
d="M304 0h-127v1363h783v-117h-656v-513h602v-116h-602v-617z" />
    <glyph glyph-name="G" unicode="G" horiz-adv-x="1266" 
d="M1140 975h-126c-18 182 -159 302 -363 302c-228 0 -402 -159 -402 -488v-205c0 -302 135 -497 398 -497c219 0 373 127 373 326v158h-382v117h506v-275c0 -205 -145 -443 -495 -443c-353 0 -527 246 -527 614v205c0 378 209 604 532 604c311 0 474 -202 486 -418z" />
    <glyph glyph-name="H" unicode="H" horiz-adv-x="1348" 
d="M1171 0h-127v652h-740v-652h-127v1363h127v-595h740v595h127v-1363z" />
    <glyph glyph-name="I" unicode="I" horiz-adv-x="493" 
d="M310 0h-127v1363h127v-1363z" />
    <glyph glyph-name="J" unicode="J" horiz-adv-x="932" 
d="M29 299h126c3 -112 89 -207 232 -207c144 0 251 80 251 273v998h127v-985c0 -275 -156 -403 -378 -403c-232 0 -358 150 -358 324z" />
    <glyph glyph-name="K" unicode="K" horiz-adv-x="1147" 
d="M1101 1363l-531 -590l561 -773h-164l-492 685l-171 -184v-501h-127v1363h127v-693h5l637 693h155z" />
    <glyph glyph-name="L" unicode="L" horiz-adv-x="996" 
d="M960 116v-116h-783v1363h127v-1247h656z" />
    <glyph glyph-name="M" unicode="M" horiz-adv-x="1576" 
d="M297 0h-117v1363h124l482 -1115h4l483 1115h123v-1363h-116v1077h-4l-430 -972h-116l-429 972h-4v-1077z" />
    <glyph glyph-name="N" unicode="N" horiz-adv-x="1348" 
d="M304 0h-127v1363h128l735 -1143h4v1143h127v-1363h-128l-736 1143h-3v-1143z" />
    <glyph glyph-name="O" unicode="O" horiz-adv-x="1307" 
d="M248 789v-225c0 -311 167 -477 405 -477c239 0 405 166 405 477v225c0 311 -167 488 -405 488c-237 0 -405 -177 -405 -488zM122 566v221c0 376 206 606 532 606c328 0 531 -231 531 -607v-220c0 -375 -206 -596 -533 -596c-328 0 -530 221 -530 596z" />
    <glyph glyph-name="P" unicode="P" horiz-adv-x="1135" 
d="M177 1363h468c261 0 427 -163 427 -412c0 -251 -166 -411 -427 -411h-341v-540h-127v1363zM304 1247v-592h260c239 0 377 70 377 296c0 187 -110 296 -301 296h-336z" />
    <glyph glyph-name="Q" unicode="Q" horiz-adv-x="1309" 
d="M122 575v217c0 375 203 601 531 601c327 0 532 -226 532 -601v-217c0 -213 -66 -378 -184 -480l187 -257h-147l-139 190c-71 -35 -155 -54 -249 -54c-328 0 -531 225 -531 601zM248 793v-219c0 -312 166 -483 405 -483c66 0 124 12 175 36l-178 241h151l126 -170
c83 81 131 209 131 376v219c0 310 -167 484 -405 484s-405 -174 -405 -484z" />
    <glyph glyph-name="R" unicode="R" horiz-adv-x="1198" 
d="M646 1363c283 0 423 -179 423 -394c0 -220 -130 -334 -269 -376l293 -593h-147l-274 567h-368v-567h-127v1363h469zM304 682h320c202 0 314 104 314 279c0 185 -120 287 -309 287h-325v-566z" />
    <glyph glyph-name="S" unicode="S" horiz-adv-x="1144" 
d="M77 357h129c10 -132 120 -270 363 -270c208 0 345 106 345 268c0 138 -87 205 -263 252l-217 57c-170 46 -314 147 -314 351c0 241 207 381 454 381c241 0 447 -131 452 -369h-129c-9 131 -110 252 -325 252c-191 0 -322 -96 -322 -256c0 -122 74 -196 222 -235l212 -58
c221 -60 360 -150 360 -366c0 -255 -214 -394 -490 -394c-352 0 -473 220 -477 387z" />
    <glyph glyph-name="T" unicode="T" horiz-adv-x="1033" 
d="M579 0h-126v1247h-435v116h997v-116h-436v-1247z" />
    <glyph glyph-name="U" unicode="U" horiz-adv-x="1319" 
d="M286 1363v-891c0 -233 139 -385 374 -385c234 0 374 151 374 385v891h127v-891c0 -302 -196 -502 -501 -502s-502 203 -502 505v888h128z" />
    <glyph glyph-name="V" unicode="V" horiz-adv-x="1178" 
d="M651 0h-129l-496 1363h144l416 -1196h4l417 1196h144z" />
    <glyph glyph-name="W" unicode="W" horiz-adv-x="1665" 
d="M513 0h-119l-371 1363h149l283 -1145h4l305 1145h137l305 -1145h4l284 1145h148l-372 -1363h-119l-317 1146h-5z" />
    <glyph glyph-name="X" unicode="X" horiz-adv-x="1117" 
d="M1094 1363l-461 -687l453 -676h-155l-375 574h-8l-377 -574h-147l456 685l-452 678h154l380 -575h7l377 575h148z" />
    <glyph glyph-name="Y" unicode="Y" horiz-adv-x="1070" 
d="M598 0h-126v602l-462 761h147l375 -634h5l377 634h146l-462 -760v-603z" />
    <glyph glyph-name="Z" unicode="Z" horiz-adv-x="1145" 
d="M88 0v94l787 1150v4h-760v115h918v-93l-783 -1150v-4h795v-116h-957z" />
    <glyph glyph-name="bracketleft" unicode="[" horiz-adv-x="612" 
d="M143 1363h386v-96h-266v-1397h279v-96h-399v1589z" />
    <glyph glyph-name="backslash" unicode="\" horiz-adv-x="666" 
d="M638 -311h-110l-503 1747h111z" />
    <glyph glyph-name="bracketright" unicode="]" horiz-adv-x="612" 
d="M83 1363h386v-1589h-399v96h280v1397h-267v96z" />
    <glyph glyph-name="asciicircum" unicode="^" horiz-adv-x="743" 
d="M679 795h-109l-197 460h-4l-196 -460h-109l245 570h125z" />
    <glyph glyph-name="underscore" unicode="_" horiz-adv-x="844" 
d="M870 -214h-896v103h896v-103z" />
    <glyph glyph-name="grave" unicode="`" horiz-adv-x="888" 
d="M526 1208h-99l-236 279h135z" />
    <glyph glyph-name="a" unicode="a" horiz-adv-x="1038" 
d="M756 152c-43 -77 -143 -169 -316 -169c-203 0 -341 122 -341 313c0 178 124 298 361 298h295v137c0 151 -93 216 -246 216c-164 0 -233 -80 -245 -176h-123c10 165 130 289 375 289c224 0 366 -101 366 -324v-736h-122v152h-4zM467 93c161 0 288 110 288 262v132h-291
c-164 0 -234 -78 -234 -188c0 -136 108 -206 237 -206z" />
    <glyph glyph-name="b" unicode="b" horiz-adv-x="1129" 
d="M608 -17c-186 0 -286 101 -321 191h-4v-174h-120v1436h126v-559h4c35 69 114 183 320 183c254 0 405 -185 405 -463v-149c0 -299 -166 -465 -410 -465zM595 96c167 0 296 121 296 363v122c0 236 -119 368 -296 368c-194 0 -306 -162 -306 -357v-142
c0 -184 101 -354 306 -354z" />
    <glyph glyph-name="c" unicode="c" horiz-adv-x="1021" 
d="M111 455v137c0 278 158 468 421 468c252 0 386 -162 390 -314h-125c-13 92 -100 203 -264 203c-194 0 -297 -153 -297 -366v-126c0 -212 112 -356 300 -356c168 0 246 88 267 179h124c-8 -139 -138 -297 -394 -297c-269 0 -422 189 -422 472z" />
    <glyph glyph-name="d" unicode="d" horiz-adv-x="1130" 
d="M518 1061c186 0 286 -98 318 -183h4v558h125v-1436h-120v175h-4c-21 -77 -127 -192 -324 -192c-257 0 -407 187 -407 459v159c0 277 156 460 408 460zM532 948c-185 0 -296 -143 -296 -373v-108c0 -225 108 -372 300 -372c194 0 304 152 304 370v117
c0 216 -115 366 -308 366z" />
    <glyph glyph-name="e" unicode="e" horiz-adv-x="1053" 
d="M541 -17c-285 0 -429 195 -429 482v101c0 295 144 494 417 494s417 -193 417 -492v-73h-708v-37c0 -203 98 -362 303 -362c170 0 241 95 258 176h132c-19 -125 -128 -289 -390 -289zM238 604h582v3c0 206 -111 342 -291 342s-291 -138 -291 -342v-3z" />
    <glyph glyph-name="f" unicode="f" horiz-adv-x="653" 
d="M218 0v935h-159v108h159v116c0 195 94 281 294 281c39 0 68 -5 85 -8v-106c-18 2 -42 5 -73 5c-122 0 -180 -41 -180 -178v-110h236v-108h-236v-935h-126z" />
    <glyph glyph-name="g" unicode="g" horiz-adv-x="1102" 
d="M524 -268c200 0 306 106 306 276v196h-4c-34 -80 -140 -186 -315 -186c-231 0 -411 171 -411 442v153c0 277 184 447 413 447c193 0 281 -103 317 -182h4v165h121v-1030c0 -259 -169 -394 -436 -394s-385 150 -393 293h131c10 -86 90 -180 267 -180zM532 949
c-178 0 -306 -132 -306 -360v-109c0 -222 131 -350 307 -350c192 0 296 163 296 340v121c0 197 -112 358 -297 358z" />
    <glyph glyph-name="h" unicode="h" horiz-adv-x="1141" 
d="M164 0v1436h126v-551h5c32 80 128 175 308 175c227 0 381 -160 381 -399v-661h-126v638c0 176 -93 307 -273 307c-189 0 -295 -133 -295 -321v-624h-126z" />
    <glyph glyph-name="i" unicode="i" horiz-adv-x="498" 
d="M186 0v1043h126v-1043h-126zM158 1310c0 52 40 90 90 90c52 0 92 -38 92 -90s-40 -91 -92 -91c-50 0 -90 39 -90 91z" />
    <glyph glyph-name="j" unicode="j" horiz-adv-x="498" 
d="M158 1310c0 52 40 90 90 90c52 0 92 -38 92 -90s-40 -91 -92 -91c-50 0 -90 39 -90 91zM312 1043v-1091c0 -224 -93 -313 -253 -313c-29 0 -73 5 -88 9v104c15 -3 44 -5 66 -5c109 0 149 60 149 205v1091h126z" />
    <glyph glyph-name="k" unicode="k" horiz-adv-x="995" 
d="M290 405v-405h-126v1436h126v-888h5l490 501h150l-435 -450l458 -599h-153l-397 518z" />
    <glyph glyph-name="l" unicode="l" horiz-adv-x="468" 
d="M171 0v1436h126v-1436h-126z" />
    <glyph glyph-name="m" unicode="m" horiz-adv-x="1701" 
d="M161 0v1043h126v-143h6c31 73 120 160 273 160c171 0 269 -78 306 -185h6c33 86 138 185 319 185c212 0 347 -129 347 -349v-711h-125v686c0 157 -90 259 -246 259c-168 0 -258 -123 -258 -274v-671h-125v673c0 174 -93 272 -248 272c-153 0 -255 -112 -255 -279v-666
h-126z" />
    <glyph glyph-name="n" unicode="n" horiz-adv-x="1131" 
d="M161 0v1043h126v-158h4c38 90 146 175 314 175c207 0 372 -130 372 -367v-693h-127v649c0 186 -93 296 -272 296c-190 0 -291 -128 -291 -317v-628h-126z" />
    <glyph glyph-name="o" unicode="o" horiz-adv-x="1094" 
d="M547 1060c282 0 436 -191 436 -484v-110c0 -294 -153 -483 -436 -483s-436 188 -436 483v110c0 287 152 484 436 484zM547 949c-213 0 -311 -164 -311 -387v-81c0 -226 97 -385 312 -385c213 0 309 158 309 385v81c0 222 -97 387 -310 387z" />
    <glyph glyph-name="p" unicode="p" horiz-adv-x="1127" 
d="M610 -17c-187 0 -279 97 -319 178h-4v-515h-125v1398h120v-167h4c33 81 135 183 329 183c233 0 400 -171 400 -456v-166c0 -294 -173 -455 -405 -455zM595 96c163 0 294 118 294 364v126c0 233 -120 363 -298 363c-193 0 -304 -156 -304 -350v-147
c0 -193 114 -356 308 -356z" />
    <glyph glyph-name="q" unicode="q" horiz-adv-x="1119" 
d="M516 1060c185 0 282 -92 323 -182h4v165h120v-1398h-126v517h-4c-36 -79 -135 -179 -319 -179c-247 0 -404 178 -404 455v169c0 281 171 453 406 453zM534 947c-181 0 -298 -128 -298 -362v-129c0 -227 118 -362 299 -362c201 0 302 171 302 358v136
c0 213 -113 359 -303 359z" />
    <glyph glyph-name="r" unicode="r" horiz-adv-x="679" 
d="M173 0v1043h126v-149h4c27 73 90 165 276 165c28 0 52 -3 70 -5v-118c-15 3 -48 6 -85 6c-177 0 -265 -112 -265 -289v-653h-126z" />
    <glyph glyph-name="s" unicode="s" horiz-adv-x="968" 
d="M114 760c0 204 171 300 369 300c251 0 360 -150 360 -299h-120c-4 81 -59 194 -245 194c-135 0 -239 -64 -239 -183c0 -129 124 -158 265 -188c195 -40 363 -88 363 -289c0 -205 -171 -312 -397 -312c-243 0 -381 127 -381 291h124c10 -93 86 -184 262 -184
c170 0 267 75 267 191c0 131 -129 160 -279 192c-199 44 -349 93 -349 287z" />
    <glyph glyph-name="t" unicode="t" horiz-adv-x="651" 
d="M210 1043v259h126v-259h236v-108h-236v-672c0 -128 48 -162 181 -162c22 0 50 1 65 3v-104c-15 -3 -55 -7 -91 -7c-228 0 -281 84 -281 280v662h-162v108h162z" />
    <glyph glyph-name="u" unicode="u" horiz-adv-x="1127" 
d="M966 1043v-1043h-126v159h-5c-37 -89 -138 -176 -317 -176c-210 0 -366 120 -366 358v702h127v-668c0 -194 114 -277 270 -277c180 0 291 129 291 305v640h126z" />
    <glyph glyph-name="v" unicode="v" horiz-adv-x="951" 
d="M410 0l-378 1043h140l297 -903h6l310 903h134l-383 -1043h-126z" />
    <glyph glyph-name="w" unicode="w" horiz-adv-x="1425" 
d="M1389 1043l-282 -1043h-124l-265 860h-4l-260 -860h-125l-294 1043h143l212 -872h6l259 872h121l264 -872h7l215 872h127z" />
    <glyph glyph-name="x" unicode="x" horiz-adv-x="986" 
d="M773 0l-280 422h-6l-281 -422h-144l359 519l-357 524h152l273 -417h6l279 417h144l-357 -511l364 -532h-152z" />
    <glyph glyph-name="y" unicode="y" horiz-adv-x="983" 
d="M937 1043l-376 -1050l-34 -90c-55 -149 -123 -270 -311 -270c-35 0 -73 4 -99 9v108c19 -4 56 -7 81 -7c119 0 172 63 204 167l25 75l-390 1058h140l311 -913h6l309 913h134z" />
    <glyph glyph-name="z" unicode="z" horiz-adv-x="964" 
d="M109 0v92l591 838v9h-594v104h752v-92l-592 -838v-7h595v-106h-752z" />
    <glyph glyph-name="braceleft" unicode="{" horiz-adv-x="690" 
d="M209 599v-21c110 -10 163 -81 163 -219v-346c0 -146 68 -214 228 -214h50v-103h-46c-222 0 -350 82 -350 320v295c0 140 -31 203 -168 203v148c137 0 168 65 168 204v257c0 236 128 311 350 311h46v-103h-50c-163 0 -228 -67 -228 -213v-299c0 -140 -53 -209 -163 -220z
" />
    <glyph glyph-name="bar" unicode="|" horiz-adv-x="560" 
d="M332 -309h-105v1745h105v-1745z" />
    <glyph glyph-name="braceright" unicode="}" horiz-adv-x="690" 
d="M481 578v21c-108 11 -163 80 -163 220v299c0 146 -65 213 -229 213h-49v103h45c222 0 351 -75 351 -311v-257c0 -139 31 -204 168 -204v-148c-137 0 -168 -63 -168 -203v-295c0 -238 -129 -320 -351 -320h-45v103h49c161 0 229 68 229 214v346c0 138 55 209 163 219z" />
    <glyph glyph-name="asciitilde" unicode="~" horiz-adv-x="1117" 
d="M752 503c-87 0 -151 43 -237 125c-50 49 -99 98 -160 98c-96 0 -140 -80 -145 -187h-116c0 160 79 303 267 303c85 0 150 -42 232 -120c50 -52 104 -102 167 -102c103 0 144 96 149 192h117c0 -148 -75 -309 -274 -309z" />
    <glyph glyph-name="nonbreakingspace" unicode="&#xa0;" horiz-adv-x="415" 
 />
    <glyph glyph-name="exclamdown" unicode="&#xa1;" horiz-adv-x="501" 
d="M320 -293h-141l15 971h110zM347 988c0 -53 -41 -95 -97 -95c-51 0 -95 42 -95 95c0 56 44 96 95 96c56 0 97 -40 97 -96z" />
    <glyph glyph-name="cent" unicode="&#xa2;" horiz-adv-x="1063" 
d="M934 433c-9 -128 -110 -274 -341 -292v-231h-106v232c-227 22 -370 185 -370 448v179c0 258 146 422 370 444v246h106v-245c219 -21 329 -173 335 -307h-125c-14 81 -81 198 -262 198c-188 0 -299 -132 -299 -345v-168c0 -212 116 -336 302 -336c178 0 245 89 265 177
h125z" />
    <glyph glyph-name="sterling" unicode="&#xa3;" horiz-adv-x="1063" 
d="M990 109v-109h-901v116c117 0 193 9 193 263v271h-216v104h216v315c0 215 156 324 357 324c214 0 343 -128 349 -294h-120c-6 95 -85 184 -229 184c-159 0 -231 -97 -231 -227v-302h312v-104h-312v-278c0 -125 -16 -218 -77 -253v-10h659z" />
    <glyph glyph-name="currency" unicode="&#xa4;" horiz-adv-x="1063" 
d="M915 189l-181 182c-57 -41 -127 -65 -202 -65c-77 0 -148 25 -206 68l-183 -185l-75 75l183 184c-45 58 -69 130 -69 208c0 76 23 147 65 204l-179 179l76 76l177 -179c59 45 132 71 211 71c77 0 149 -25 207 -68l176 176l75 -76l-175 -176c42 -58 67 -129 67 -207
c0 -79 -26 -153 -72 -212l180 -180zM276 656c0 -142 114 -256 256 -256c141 0 257 114 257 256s-116 258 -257 258c-142 0 -256 -116 -256 -258z" />
    <glyph glyph-name="yen" unicode="&#xa5;" horiz-adv-x="1063" 
d="M875 313h-280v-313h-126v313h-281v97h281v165h-281v96h239l-420 692h147l373 -634h8l376 634h146l-420 -692h238v-96h-280v-165h280v-97z" />
    <glyph glyph-name="brokenbar" unicode="&#xa6;" horiz-adv-x="387" 
d="M250 783h-108v654h108v-654zM250 -309h-108v685h108v-685z" />
    <glyph glyph-name="section" unicode="&#xa7;" horiz-adv-x="964" 
d="M740 66c0 132 -116 167 -284 207c-194 47 -344 108 -344 299c0 137 103 214 179 247v7c-76 41 -167 107 -167 254c0 201 166 313 360 313c212 0 355 -126 355 -304h-120c-3 101 -95 192 -238 192c-144 0 -232 -85 -232 -196c0 -137 124 -176 272 -212
c175 -42 344 -92 344 -298c0 -124 -83 -210 -154 -254v-7c69 -38 155 -101 155 -234c0 -198 -161 -333 -389 -333c-219 0 -382 117 -382 307h123c11 -116 102 -194 262 -194c177 0 260 99 260 206zM606 351c65 28 133 110 133 209c0 101 -74 162 -221 196
c-16 4 -104 27 -122 31c-64 -14 -159 -94 -159 -202c0 -118 90 -164 234 -201c22 -5 110 -27 135 -33z" />
    <glyph glyph-name="dieresis" unicode="&#xa8;" horiz-adv-x="888" 
d="M194 1311c0 48 35 83 79 83c46 0 81 -35 81 -83c0 -45 -35 -82 -81 -82c-44 0 -79 37 -79 82zM513 1311c0 48 36 83 79 83c47 0 82 -35 82 -83c0 -45 -35 -82 -82 -82c-43 0 -79 37 -79 82z" />
    <glyph glyph-name="copyright" unicode="&#xa9;" horiz-adv-x="1643" 
d="M519 634v99c0 211 121 326 314 326c186 0 279 -121 285 -227h-101c-11 52 -53 134 -183 134c-144 0 -216 -82 -216 -239v-94c0 -155 82 -230 216 -230c124 0 173 55 188 117h102c-9 -104 -100 -215 -291 -215c-193 0 -314 112 -314 329zM213 638
c0 -348 246 -604 614 -604s616 256 616 604v108c0 322 -251 584 -616 584s-614 -261 -614 -584v-108zM827 -62c-424 0 -715 301 -715 704v104c0 380 298 681 715 681c419 0 715 -305 715 -681v-104c0 -403 -289 -704 -715 -704z" />
    <glyph glyph-name="ordfeminine" unicode="&#xaa;" horiz-adv-x="622" 
d="M270 785c-109 0 -185 64 -185 169c0 102 70 165 200 165h150v58c0 73 -48 104 -122 104s-107 -30 -115 -67h-91c7 89 81 148 210 148c119 0 212 -51 212 -184v-384h-90v77h-4c-24 -42 -74 -86 -165 -86zM296 862c77 0 139 52 139 122v64h-140c-80 1 -117 -36 -117 -88
c0 -65 55 -98 118 -98z" />
    <glyph glyph-name="guillemotleft" unicode="&#xab;" horiz-adv-x="1221" 
d="M563 565l353 404h150l-348 -403v-6l348 -405h-159l-344 402v8zM118 565l353 404h150l-348 -403v-6l348 -405h-159l-344 402v8z" />
    <glyph glyph-name="logicalnot" unicode="&#xac;" horiz-adv-x="1063" 
d="M978 123h-113v370h-783v106h896v-476z" />
    <glyph glyph-name="registered" unicode="&#xae;" horiz-adv-x="1161" 
d="M584 416c-280 0 -481 198 -481 465v61c0 251 205 450 481 450s481 -201 481 -450v-61c0 -267 -199 -465 -481 -465zM584 495c235 0 401 162 401 384v65c0 206 -167 371 -401 371c-233 0 -400 -165 -400 -371v-65c0 -222 164 -384 400 -384zM492 1099v-177h96
c57 0 110 19 110 89c0 58 -41 88 -100 88h-106zM492 666h-77v494h208c91 0 154 -62 154 -147c0 -73 -43 -126 -99 -142c8 -14 91 -164 114 -205h-91l-103 195h-106v-195z" />
    <glyph glyph-name="macron" unicode="&#xaf;" horiz-adv-x="888" 
d="M713 1266h-546v84h546v-84z" />
    <glyph glyph-name="degree" unicode="&#xb0;" horiz-adv-x="509" 
d="M255 968c-114 0 -205 92 -205 205s91 204 205 204c112 0 204 -91 204 -204s-92 -205 -204 -205zM255 1054c67 0 120 55 120 119c0 67 -53 120 -120 120c-64 0 -119 -53 -119 -120c0 -64 55 -119 119 -119z" />
    <glyph glyph-name="plusminus" unicode="&#xb1;" horiz-adv-x="1078" 
d="M589 672v-307h-104v307h-410v106h410v291h104v-291h412v-106h-412zM1003 137h-926v107h926v-107z" />
    <glyph glyph-name="twosuperior" unicode="&#xb2;" horiz-adv-x="640" 
d="M188 1176h-95v7c0 100 72 197 216 197c131 0 214 -81 214 -186c0 -80 -50 -142 -112 -208l-187 -191v-1h311v-87h-435v65l249 273c37 40 76 86 76 143c0 63 -48 106 -118 106c-78 0 -119 -53 -119 -111v-7z" />
    <glyph glyph-name="threesuperior" unicode="&#xb3;" horiz-adv-x="635" 
d="M230 1006v84h71c72 0 119 45 119 106c0 59 -46 101 -116 101c-73 0 -116 -45 -119 -92h-92c3 88 76 175 212 175c126 0 211 -72 211 -171c0 -78 -55 -138 -124 -155v-1c74 -12 148 -61 148 -160c0 -115 -97 -197 -235 -197c-140 0 -223 86 -226 179h91
c5 -52 57 -95 135 -95c83 0 138 48 138 114c0 65 -55 112 -138 112h-75z" />
    <glyph glyph-name="acute" unicode="&#xb4;" horiz-adv-x="888" 
d="M332 1208h-100l202 279h134z" />
    <glyph glyph-name="paragraph" unicode="&#xb6;" horiz-adv-x="1194" 
d="M705 -210h-126v747h-20c-152 0 -434 96 -434 412c0 344 282 416 435 416h145v-1575zM869 -210v1575h126v-1575h-126z" />
    <glyph glyph-name="periodcentered" unicode="&#xb7;" horiz-adv-x="546" 
d="M158 697c0 53 42 93 92 93c54 0 95 -40 95 -93s-41 -93 -95 -93c-50 0 -92 40 -92 93z" />
    <glyph glyph-name="cedilla" unicode="&#xb8;" horiz-adv-x="888" 
d="M332 -219v64l64 162h95l-57 -147c120 0 212 -47 212 -157c0 -123 -106 -177 -221 -181c-57 -2 -114 8 -140 16v85c26 -8 80 -14 118 -14c62 0 132 23 132 90c0 71 -70 82 -151 82h-52z" />
    <glyph glyph-name="onesuperior" unicode="&#xb9;" horiz-adv-x="568" 
d="M390 707h-98v551h-5l-156 -114v99l161 120h98v-656z" />
    <glyph glyph-name="ordmasculine" unicode="&#xba;" horiz-adv-x="609" 
d="M306 1281c-93 0 -151 -70 -151 -174v-67c0 -105 54 -173 151 -173c94 0 149 67 149 173v67c0 104 -57 174 -149 174zM306 1362c141 0 245 -92 245 -249v-79c0 -160 -104 -249 -245 -249c-144 0 -246 89 -246 249v79c0 153 103 249 246 249z" />
    <glyph glyph-name="guillemotright" unicode="&#xbb;" horiz-adv-x="1217" 
d="M1076 565v-8l-344 -402h-159l348 405v6l-348 403h150zM631 565v-8l-344 -402h-159l348 405v6l-348 403h150z" />
    <glyph glyph-name="onequarter" unicode="&#xbc;" horiz-adv-x="1345" 
d="M856 214h234v368h-5c-65 -96 -170 -263 -229 -364v-4zM1044 667h135v-453h86v-81h-86v-133h-89v133h-334v78c71 128 207 329 288 456zM289 707h-98v551h-5l-156 -114v99l161 120h98v-656zM180 0h-118l517 682l517 681h118l-516 -681z" />
    <glyph glyph-name="onehalf" unicode="&#xbd;" horiz-adv-x="1374" 
d="M964 459h-97v7c0 102 73 200 219 200c133 0 217 -82 217 -188c0 -81 -50 -144 -113 -211l-190 -194v-1h315v-88h-441v66l253 277c37 40 77 87 77 145c0 63 -49 107 -120 107c-79 0 -120 -54 -120 -113v-7zM289 707h-98v551h-5l-156 -114v99l161 120h98v-656zM180 0h-118
l517 682l517 681h118l-516 -681z" />
    <glyph glyph-name="threequarters" unicode="&#xbe;" horiz-adv-x="1367" 
d="M924 216h234v366h-4c-66 -96 -171 -261 -230 -363v-3zM1112 667h136v-451h85v-83h-85v-133h-90v133h-334v78c72 128 207 329 288 456zM166 990v85h72c73 0 120 45 120 107c0 60 -46 102 -117 102c-74 0 -117 -45 -120 -93h-93c3 89 77 177 214 177
c127 0 213 -73 213 -173c0 -79 -55 -139 -125 -156v-1c75 -13 150 -62 150 -162c0 -116 -98 -199 -238 -199c-141 0 -225 87 -228 181h92c5 -53 57 -96 136 -96c84 0 140 48 140 115c0 66 -56 113 -140 113h-76zM231 0h-118l517 682l517 681h118l-516 -681z" />
    <glyph glyph-name="questiondown" unicode="&#xbf;" horiz-adv-x="916" 
d="M576 976c0 -53 -41 -95 -97 -95c-52 0 -95 42 -95 95c0 56 43 97 95 97c56 0 97 -41 97 -97zM849 26c-3 -252 -190 -365 -398 -365c-201 0 -384 110 -384 330c0 158 92 244 197 327c123 98 156 145 156 252v73h126v-95c0 -132 -77 -211 -190 -301
c-102 -81 -160 -139 -160 -250c0 -156 124 -225 261 -225c191 0 268 129 270 254h122z" />
    <glyph glyph-name="Agrave" unicode="&#xc0;" horiz-adv-x="1172" 
d="M165 0h-132l490 1363h126l489 -1363h-137l-149 436h-537zM585 1206h-4l-230 -665h464zM686 1514h-119l-298 213h149z" />
    <glyph glyph-name="Aacute" unicode="&#xc1;" horiz-adv-x="1172" 
d="M165 0h-132l490 1363h126l489 -1363h-137l-149 436h-537zM585 1206h-4l-230 -665h464zM490 1513l268 213h148l-297 -213h-119z" />
    <glyph glyph-name="Acircumflex" unicode="&#xc2;" horiz-adv-x="1172" 
d="M165 0h-132l490 1363h126l489 -1363h-137l-149 436h-537zM585 1206h-4l-230 -665h464zM279 1509l280 225h64l277 -225h-128l-179 149h-5l-179 -149h-130z" />
    <glyph glyph-name="Atilde" unicode="&#xc3;" horiz-adv-x="1172" 
d="M165 0h-132l490 1363h126l489 -1363h-137l-149 436h-537zM585 1206h-4l-230 -665h464zM556 1554c-26 30 -51 58 -88 58c-55 0 -71 -50 -73 -108h-83c0 104 50 187 156 187c56 0 94 -26 140 -75c28 -32 47 -54 85 -54c50 0 77 59 80 115h83c0 -96 -61 -189 -157 -189
c-72 0 -106 27 -143 66z" />
    <glyph glyph-name="Adieresis" unicode="&#xc4;" horiz-adv-x="1172" 
d="M165 0h-132l490 1363h126l489 -1363h-137l-149 436h-537zM585 1206h-4l-230 -665h464zM395 1579c0 40 30 71 69 71c40 0 70 -31 70 -71c0 -38 -30 -71 -70 -71c-39 0 -69 33 -69 71zM679 1579c0 40 31 71 70 71c40 0 69 -31 69 -71c0 -38 -29 -71 -69 -71
c-39 0 -70 33 -70 71z" />
    <glyph glyph-name="Aring" unicode="&#xc5;" horiz-adv-x="1173" 
d="M475 1510c0 -60 52 -111 111 -111c61 0 110 51 110 111c0 61 -49 110 -110 110c-59 0 -111 -49 -111 -110zM816 541l-229 665h-6l-229 -665h464zM165 0h-131l482 1342c-66 27 -112 92 -112 168c0 99 80 179 182 179c98 0 179 -80 179 -179c0 -75 -45 -139 -109 -166
l483 -1344h-137l-150 436h-537z" />
    <glyph glyph-name="AE" unicode="&#xc6;" horiz-adv-x="1835" 
d="M862 1246l-383 -678h454v678h-71zM933 460h-513l-260 -460h-143l776 1363h929v-117h-661v-491h625v-115h-625v-524h661v-116h-789v460z" />
    <glyph glyph-name="Ccedilla" unicode="&#xc7;" horiz-adv-x="1244" 
d="M631 -481c-57 -2 -114 8 -140 16v85c26 -8 80 -14 118 -14c62 0 132 23 132 90c0 70 -70 82 -151 82h-52v64l52 131c-304 22 -468 249 -468 603v205c0 377 191 612 522 612c325 0 486 -235 486 -440v-1h-126c0 151 -125 325 -360 325c-249 0 -395 -185 -395 -495v-208
c0 -311 143 -487 400 -487c230 0 359 142 359 307h126v-1c0 -187 -146 -404 -450 -422l-44 -114c119 0 212 -47 212 -157c0 -124 -106 -177 -221 -181z" />
    <glyph glyph-name="Egrave" unicode="&#xc8;" horiz-adv-x="1085" 
d="M671 1514h-119l-298 213h149zM972 116v-116h-795v1363h795v-117h-668v-491h633v-115h-633v-524h668z" />
    <glyph glyph-name="Eacute" unicode="&#xc9;" horiz-adv-x="1085" 
d="M475 1513l268 213h148l-297 -213h-119zM972 116v-116h-795v1363h795v-117h-668v-491h633v-115h-633v-524h668z" />
    <glyph glyph-name="Ecircumflex" unicode="&#xca;" horiz-adv-x="1085" 
d="M264 1509l280 225h64l277 -225h-128l-179 149h-5l-179 -149h-130zM972 116v-116h-795v1363h795v-117h-668v-491h633v-115h-633v-524h668z" />
    <glyph glyph-name="Edieresis" unicode="&#xcb;" horiz-adv-x="1085" 
d="M380 1579c0 40 30 71 69 71c40 0 70 -31 70 -71c0 -38 -30 -71 -70 -71c-39 0 -69 33 -69 71zM664 1579c0 40 31 71 70 71c40 0 69 -31 69 -71c0 -38 -29 -71 -69 -71c-39 0 -70 33 -70 71zM972 116v-116h-795v1363h795v-117h-668v-491h633v-115h-633v-524h668z" />
    <glyph glyph-name="Igrave" unicode="&#xcc;" horiz-adv-x="493" 
d="M310 0h-127v1363h127v-1363zM346 1514h-119l-298 213h149z" />
    <glyph glyph-name="Iacute" unicode="&#xcd;" horiz-adv-x="493" 
d="M310 0h-127v1363h127v-1363zM150 1513l268 213h148l-297 -213h-119z" />
    <glyph glyph-name="Icircumflex" unicode="&#xce;" horiz-adv-x="493" 
d="M310 0h-127v1363h127v-1363zM-61 1509l280 225h64l277 -225h-128l-179 149h-5l-179 -149h-130z" />
    <glyph glyph-name="Idieresis" unicode="&#xcf;" horiz-adv-x="493" 
d="M310 0h-127v1363h127v-1363zM55 1579c0 40 30 71 69 71c40 0 70 -31 70 -71c0 -38 -30 -71 -70 -71c-39 0 -69 33 -69 71zM339 1579c0 40 31 71 70 71c40 0 69 -31 69 -71c0 -38 -29 -71 -69 -71c-39 0 -70 33 -70 71z" />
    <glyph glyph-name="Eth" unicode="&#xd0;" horiz-adv-x="1358" 
d="M648 0h-403v642h-159v113h159v608h403c437 0 602 -280 602 -682c0 -395 -157 -681 -602 -681zM373 116h271c333 0 475 211 475 565c0 347 -138 566 -475 566h-271v-492h335v-113h-335v-526z" />
    <glyph glyph-name="Ntilde" unicode="&#xd1;" horiz-adv-x="1348" 
d="M643 1554c-26 30 -51 58 -88 58c-55 0 -71 -50 -73 -108h-83c0 104 50 187 156 187c56 0 94 -26 140 -75c28 -32 47 -54 85 -54c50 0 77 59 80 115h83c0 -96 -61 -189 -157 -189c-72 0 -106 27 -143 66zM304 0h-127v1363h128l735 -1143h4v1143h127v-1363h-128l-736 1143
h-3v-1143z" />
    <glyph glyph-name="Ograve" unicode="&#xd2;" horiz-adv-x="1307" 
d="M753 1514h-119l-298 213h149zM248 789v-225c0 -311 167 -477 405 -477c239 0 405 166 405 477v225c0 311 -167 488 -405 488c-237 0 -405 -177 -405 -488zM122 566v221c0 376 206 606 532 606c328 0 531 -231 531 -607v-220c0 -375 -206 -596 -533 -596
c-328 0 -530 221 -530 596z" />
    <glyph glyph-name="Oacute" unicode="&#xd3;" horiz-adv-x="1307" 
d="M557 1513l268 213h148l-297 -213h-119zM248 789v-225c0 -311 167 -477 405 -477c239 0 405 166 405 477v225c0 311 -167 488 -405 488c-237 0 -405 -177 -405 -488zM122 566v221c0 376 206 606 532 606c328 0 531 -231 531 -607v-220c0 -375 -206 -596 -533 -596
c-328 0 -530 221 -530 596z" />
    <glyph glyph-name="Ocircumflex" unicode="&#xd4;" horiz-adv-x="1307" 
d="M346 1509l280 225h64l277 -225h-128l-179 149h-5l-179 -149h-130zM248 789v-225c0 -311 167 -477 405 -477c239 0 405 166 405 477v225c0 311 -167 488 -405 488c-237 0 -405 -177 -405 -488zM122 566v221c0 376 206 606 532 606c328 0 531 -231 531 -607v-220
c0 -375 -206 -596 -533 -596c-328 0 -530 221 -530 596z" />
    <glyph glyph-name="Otilde" unicode="&#xd5;" horiz-adv-x="1307" 
d="M248 789v-225c0 -311 167 -477 405 -477c239 0 405 166 405 477v225c0 311 -167 488 -405 488c-237 0 -405 -177 -405 -488zM122 566v221c0 376 206 606 532 606c328 0 531 -231 531 -607v-220c0 -375 -206 -596 -533 -596c-328 0 -530 221 -530 596zM623 1554
c-26 30 -51 58 -88 58c-55 0 -71 -50 -73 -108h-83c0 104 50 187 156 187c56 0 94 -26 140 -75c28 -32 47 -54 85 -54c50 0 77 59 80 115h83c0 -96 -61 -189 -157 -189c-72 0 -106 27 -143 66z" />
    <glyph glyph-name="Odieresis" unicode="&#xd6;" horiz-adv-x="1307" 
d="M462 1579c0 40 30 71 69 71c40 0 70 -31 70 -71c0 -38 -30 -71 -70 -71c-39 0 -69 33 -69 71zM746 1579c0 40 31 71 70 71c40 0 69 -31 69 -71c0 -38 -29 -71 -69 -71c-39 0 -70 33 -70 71zM248 789v-225c0 -311 167 -477 405 -477c239 0 405 166 405 477v225
c0 311 -167 488 -405 488c-237 0 -405 -177 -405 -488zM122 566v221c0 376 206 606 532 606c328 0 531 -231 531 -607v-220c0 -375 -206 -596 -533 -596c-328 0 -530 221 -530 596z" />
    <glyph glyph-name="multiply" unicode="&#xd7;" horiz-adv-x="1063" 
d="M850 90l-318 320l-319 -320l-75 75l319 319l-319 320l74 74l320 -319l319 319l74 -74l-319 -320l319 -319z" />
    <glyph glyph-name="Oslash" unicode="&#xd8;" horiz-adv-x="1307" 
d="M652 -30c-167 0 -301 58 -392 165l-106 -129l-75 62l122 149c-51 93 -79 211 -79 349v221c0 376 205 606 532 606c162 0 293 -57 384 -158l107 129l79 -56l-127 -153c57 -98 88 -222 88 -368v-221c0 -375 -206 -596 -533 -596zM248 564c0 -92 15 -171 42 -238l666 809
c-71 91 -176 142 -303 142c-238 0 -405 -177 -405 -488v-225zM653 87c239 0 405 166 405 477v225c0 100 -17 186 -49 257l-668 -812c72 -96 180 -147 312 -147z" />
    <glyph glyph-name="Ugrave" unicode="&#xd9;" horiz-adv-x="1319" 
d="M759 1514h-119l-298 213h149zM286 1363v-891c0 -233 139 -385 374 -385c234 0 374 151 374 385v891h127v-891c0 -302 -196 -502 -501 -502s-502 203 -502 505v888h128z" />
    <glyph glyph-name="Uacute" unicode="&#xda;" horiz-adv-x="1319" 
d="M563 1513l268 213h148l-297 -213h-119zM286 1363v-891c0 -233 139 -385 374 -385c234 0 374 151 374 385v891h127v-891c0 -302 -196 -502 -501 -502s-502 203 -502 505v888h128z" />
    <glyph glyph-name="Ucircumflex" unicode="&#xdb;" horiz-adv-x="1319" 
d="M352 1509l280 225h64l277 -225h-128l-179 149h-5l-179 -149h-130zM286 1363v-891c0 -233 139 -385 374 -385c234 0 374 151 374 385v891h127v-891c0 -302 -196 -502 -501 -502s-502 203 -502 505v888h128z" />
    <glyph glyph-name="Udieresis" unicode="&#xdc;" horiz-adv-x="1319" 
d="M468 1579c0 40 30 71 69 71c40 0 70 -31 70 -71c0 -38 -30 -71 -70 -71c-39 0 -69 33 -69 71zM752 1579c0 40 31 71 70 71c40 0 69 -31 69 -71c0 -38 -29 -71 -69 -71c-39 0 -70 33 -70 71zM286 1363v-891c0 -233 139 -385 374 -385c234 0 374 151 374 385v891h127v-891
c0 -302 -196 -502 -501 -502s-502 203 -502 505v888h128z" />
    <glyph glyph-name="Yacute" unicode="&#xdd;" horiz-adv-x="1070" 
d="M598 0h-126v602l-462 761h147l375 -634h5l377 634h146l-462 -760v-603zM439 1513l268 213h148l-297 -213h-119z" />
    <glyph glyph-name="Thorn" unicode="&#xde;" horiz-adv-x="1135" 
d="M177 1363h126v-267h322c253 0 427 -124 427 -374c0 -251 -174 -375 -427 -375h-321v-347h-127v1363zM304 981v-519h286c193 0 331 44 331 260c0 182 -111 259 -301 259h-316z" />
    <glyph glyph-name="germandbls" unicode="&#xdf;" horiz-adv-x="1186" 
d="M301 0h-127v1054c0 232 145 377 397 378c244 1 398 -139 398 -343c-1 -203 -159 -318 -261 -331v-9c180 -2 387 -121 387 -364c0 -270 -238 -402 -464 -402c-68 0 -121 9 -154 17v110c27 -9 86 -19 156 -19c154 0 333 81 333 290c0 179 -147 295 -381 295h-83v130h62
c137 0 277 116 277 273c0 154 -111 243 -267 243c-190 0 -273 -109 -273 -279v-1043z" />
    <glyph glyph-name="agrave" unicode="&#xe0;" horiz-adv-x="1038" 
d="M756 152c-43 -77 -143 -169 -316 -169c-203 0 -341 122 -341 313c0 178 124 298 361 298h295v137c0 151 -93 216 -246 216c-164 0 -233 -80 -245 -176h-123c10 165 130 289 375 289c224 0 366 -101 366 -324v-736h-122v152h-4zM467 93c161 0 288 110 288 262v132h-291
c-164 0 -234 -78 -234 -188c0 -136 108 -206 237 -206zM602 1210h-99l-236 279h135z" />
    <glyph glyph-name="aacute" unicode="&#xe1;" horiz-adv-x="1038" 
d="M756 152c-43 -77 -143 -169 -316 -169c-203 0 -341 122 -341 313c0 178 124 298 361 298h295v137c0 151 -93 216 -246 216c-164 0 -233 -80 -245 -176h-123c10 165 130 289 375 289c224 0 366 -101 366 -324v-736h-122v152h-4zM467 93c161 0 288 110 288 262v132h-291
c-164 0 -234 -78 -234 -188c0 -136 108 -206 237 -206zM536 1210h-100l202 279h134z" />
    <glyph glyph-name="acircumflex" unicode="&#xe2;" horiz-adv-x="1038" 
d="M756 152c-43 -77 -143 -169 -316 -169c-203 0 -341 122 -341 313c0 178 124 298 361 298h295v137c0 151 -93 216 -246 216c-164 0 -233 -80 -245 -176h-123c10 165 130 289 375 289c224 0 366 -101 366 -324v-736h-122v152h-4zM467 93c161 0 288 110 288 262v132h-291
c-164 0 -234 -78 -234 -188c0 -136 108 -206 237 -206zM264 1220l215 306h82l208 -307h-108l-140 225h-3l-146 -224h-108z" />
    <glyph glyph-name="atilde" unicode="&#xe3;" horiz-adv-x="1038" 
d="M756 152c-43 -77 -143 -169 -316 -169c-203 0 -341 122 -341 313c0 178 124 298 361 298h295v137c0 151 -93 216 -246 216c-164 0 -233 -80 -245 -176h-123c10 165 130 289 375 289c224 0 366 -101 366 -324v-736h-122v152h-4zM467 93c161 0 288 110 288 262v132h-291
c-164 0 -234 -78 -234 -188c0 -136 108 -206 237 -206zM483 1243c-28 33 -56 66 -96 66c-58 0 -77 -57 -79 -122h-88c0 117 54 208 167 208c61 0 102 -28 150 -83c31 -36 53 -60 93 -60c54 0 84 66 87 128h87c0 -106 -65 -210 -168 -210c-77 0 -115 30 -153 73z" />
    <glyph glyph-name="adieresis" unicode="&#xe4;" horiz-adv-x="1038" 
d="M756 152c-43 -77 -143 -169 -316 -169c-203 0 -341 122 -341 313c0 178 124 298 361 298h295v137c0 151 -93 216 -246 216c-164 0 -233 -80 -245 -176h-123c10 165 130 289 375 289c224 0 366 -101 366 -324v-736h-122v152h-4zM467 93c161 0 288 110 288 262v132h-291
c-164 0 -234 -78 -234 -188c0 -136 108 -206 237 -206zM279 1264c0 48 35 83 79 83c46 0 81 -35 81 -83c0 -45 -35 -82 -81 -82c-44 0 -79 37 -79 82zM598 1264c0 48 36 83 79 83c47 0 82 -35 82 -83c0 -45 -35 -82 -82 -82c-43 0 -79 37 -79 82z" />
    <glyph glyph-name="aring" unicode="&#xe5;" horiz-adv-x="1038" 
d="M756 152c-43 -77 -143 -169 -316 -169c-203 0 -341 122 -341 313c0 178 124 298 361 298h295v137c0 151 -93 216 -246 216c-164 0 -233 -80 -245 -176h-123c10 165 130 289 375 289c224 0 366 -101 366 -324v-736h-122v152h-4zM467 93c161 0 288 110 288 262v132h-291
c-164 0 -234 -78 -234 -188c0 -136 108 -206 237 -206zM518 1192c-101 0 -181 78 -181 178s80 177 181 177c99 0 179 -77 179 -177s-80 -178 -179 -178zM409 1370c0 -60 49 -110 109 -110c61 0 108 50 108 110c0 61 -47 110 -108 110c-60 0 -109 -49 -109 -110z" />
    <glyph glyph-name="ae" unicode="&#xe6;" horiz-adv-x="1695" 
d="M1187 -17c-207 0 -337 102 -376 229h-10c-40 -116 -159 -229 -357 -229c-206 0 -346 120 -346 314c0 189 132 302 366 302h293v123c0 156 -108 225 -251 225c-157 0 -226 -69 -245 -144h-122c14 159 153 257 374 257c139 0 271 -53 322 -169h10c60 112 189 169 329 169
c245 0 409 -173 409 -466v-102h-699v-76c0 -192 116 -320 302 -320c153 0 236 80 254 154h133c-15 -108 -133 -267 -386 -267zM1174 949c-169 0 -290 -129 -290 -328v-29h573v20c0 211 -108 337 -283 337zM469 93c160 0 288 110 288 262v137h-291c-164 0 -242 -80 -242 -191
c0 -136 115 -208 245 -208z" />
    <glyph glyph-name="ccedilla" unicode="&#xe7;" horiz-adv-x="1021" 
d="M521 -463c-58 -2 -114 7 -141 15v86c27 -8 81 -15 119 -15c62 0 132 23 132 91c0 70 -63 81 -145 81h-51v64l56 126c-242 19 -380 202 -380 470v137c0 278 158 468 421 468c252 0 386 -162 390 -314h-125c-13 92 -100 203 -264 203c-194 0 -297 -153 -297 -366v-126
c0 -212 112 -356 300 -356c168 0 246 88 267 179h124c-7 -129 -120 -275 -341 -295l-49 -110c119 0 205 -48 205 -158c0 -123 -106 -176 -221 -180z" />
    <glyph glyph-name="egrave" unicode="&#xe8;" horiz-adv-x="1053" 
d="M610 1210h-99l-236 279h135zM541 -17c-285 0 -429 195 -429 482v101c0 295 144 494 417 494s417 -193 417 -492v-73h-708v-37c0 -203 98 -362 303 -362c170 0 241 95 258 176h132c-19 -125 -128 -289 -390 -289zM238 604h582v3c0 206 -111 342 -291 342
s-291 -138 -291 -342v-3z" />
    <glyph glyph-name="eacute" unicode="&#xe9;" horiz-adv-x="1053" 
d="M544 1210h-100l202 279h134zM541 -17c-285 0 -429 195 -429 482v101c0 295 144 494 417 494s417 -193 417 -492v-73h-708v-37c0 -203 98 -362 303 -362c170 0 241 95 258 176h132c-19 -125 -128 -289 -390 -289zM238 604h582v3c0 206 -111 342 -291 342
s-291 -138 -291 -342v-3z" />
    <glyph glyph-name="ecircumflex" unicode="&#xea;" horiz-adv-x="1053" 
d="M272 1220l215 306h82l208 -307h-108l-140 225h-3l-146 -224h-108zM541 -17c-285 0 -429 195 -429 482v101c0 295 144 494 417 494s417 -193 417 -492v-73h-708v-37c0 -203 98 -362 303 -362c170 0 241 95 258 176h132c-19 -125 -128 -289 -390 -289zM238 604h582v3
c0 206 -111 342 -291 342s-291 -138 -291 -342v-3z" />
    <glyph glyph-name="edieresis" unicode="&#xeb;" horiz-adv-x="1053" 
d="M541 -17c-285 0 -429 195 -429 482v101c0 295 144 494 417 494s417 -193 417 -492v-73h-708v-37c0 -203 98 -362 303 -362c170 0 241 95 258 176h132c-19 -125 -128 -289 -390 -289zM238 604h582v3c0 206 -111 342 -291 342s-291 -138 -291 -342v-3zM287 1264
c0 48 35 83 79 83c46 0 81 -35 81 -83c0 -45 -35 -82 -81 -82c-44 0 -79 37 -79 82zM606 1264c0 48 36 83 79 83c47 0 82 -35 82 -83c0 -45 -35 -82 -82 -82c-43 0 -79 37 -79 82z" />
    <glyph glyph-name="igrave" unicode="&#xec;" horiz-adv-x="483" 
d="M325 1210h-99l-236 279h135zM178 0v1043h126v-1043h-126z" />
    <glyph glyph-name="iacute" unicode="&#xed;" horiz-adv-x="483" 
d="M259 1210h-100l202 279h134zM178 0v1043h126v-1043h-126z" />
    <glyph glyph-name="icircumflex" unicode="&#xee;" horiz-adv-x="483" 
d="M-13 1220l215 306h82l208 -307h-108l-140 225h-3l-146 -224h-108zM178 0v1043h126v-1043h-126z" />
    <glyph glyph-name="idieresis" unicode="&#xef;" horiz-adv-x="483" 
d="M178 0v1043h126v-1043h-126zM2 1264c0 48 35 83 79 83c46 0 81 -35 81 -83c0 -45 -35 -82 -81 -82c-44 0 -79 37 -79 82zM321 1264c0 48 36 83 79 83c47 0 82 -35 82 -83c0 -45 -35 -82 -82 -82c-43 0 -79 37 -79 82z" />
    <glyph glyph-name="eth" unicode="&#xf0;" horiz-adv-x="1094" 
d="M547 -17c-249 0 -436 160 -436 456v108c0 287 189 457 436 457c156 0 254 -75 302 -151h7l-8 61c-14 111 -68 232 -144 321l-284 -101l-24 79l248 87c-63 61 -135 111 -198 145l76 81c97 -49 175 -109 243 -183l242 86l27 -75l-214 -76c114 -153 163 -345 163 -537v-302
c0 -294 -190 -456 -436 -456zM547 893c-183 0 -311 -137 -311 -360v-80c0 -226 123 -357 312 -357c186 0 309 130 309 357v114c0 202 -126 326 -310 326z" />
    <glyph glyph-name="ntilde" unicode="&#xf1;" horiz-adv-x="1131" 
d="M530 1243c-28 33 -56 66 -96 66c-58 0 -77 -57 -79 -122h-88c0 117 54 208 167 208c61 0 102 -28 150 -83c31 -36 53 -60 93 -60c54 0 84 66 87 128h87c0 -106 -65 -210 -168 -210c-77 0 -115 30 -153 73zM161 0v1043h126v-158h4c38 90 146 175 314 175
c207 0 372 -130 372 -367v-693h-127v649c0 186 -93 296 -272 296c-190 0 -291 -128 -291 -317v-628h-126z" />
    <glyph glyph-name="ograve" unicode="&#xf2;" horiz-adv-x="1094" 
d="M631 1210h-99l-236 279h135zM547 1060c282 0 436 -191 436 -484v-110c0 -294 -153 -483 -436 -483s-436 188 -436 483v110c0 287 152 484 436 484zM547 949c-213 0 -311 -164 -311 -387v-81c0 -226 97 -385 312 -385c213 0 309 158 309 385v81c0 222 -97 387 -310 387z
" />
    <glyph glyph-name="oacute" unicode="&#xf3;" horiz-adv-x="1094" 
d="M565 1210h-100l202 279h134zM547 1060c282 0 436 -191 436 -484v-110c0 -294 -153 -483 -436 -483s-436 188 -436 483v110c0 287 152 484 436 484zM547 949c-213 0 -311 -164 -311 -387v-81c0 -226 97 -385 312 -385c213 0 309 158 309 385v81c0 222 -97 387 -310 387z
" />
    <glyph glyph-name="ocircumflex" unicode="&#xf4;" horiz-adv-x="1094" 
d="M293 1220l215 306h82l208 -307h-108l-140 225h-3l-146 -224h-108zM547 1060c282 0 436 -191 436 -484v-110c0 -294 -153 -483 -436 -483s-436 188 -436 483v110c0 287 152 484 436 484zM547 949c-213 0 -311 -164 -311 -387v-81c0 -226 97 -385 312 -385
c213 0 309 158 309 385v81c0 222 -97 387 -310 387z" />
    <glyph glyph-name="otilde" unicode="&#xf5;" horiz-adv-x="1094" 
d="M512 1243c-28 33 -56 66 -96 66c-58 0 -77 -57 -79 -122h-88c0 117 54 208 167 208c61 0 102 -28 150 -83c31 -36 53 -60 93 -60c54 0 84 66 87 128h87c0 -106 -65 -210 -168 -210c-77 0 -115 30 -153 73zM547 1060c282 0 436 -191 436 -484v-110
c0 -294 -153 -483 -436 -483s-436 188 -436 483v110c0 287 152 484 436 484zM547 949c-213 0 -311 -164 -311 -387v-81c0 -226 97 -385 312 -385c213 0 309 158 309 385v81c0 222 -97 387 -310 387z" />
    <glyph glyph-name="odieresis" unicode="&#xf6;" horiz-adv-x="1094" 
d="M308 1264c0 48 35 83 79 83c46 0 81 -35 81 -83c0 -45 -35 -82 -81 -82c-44 0 -79 37 -79 82zM627 1264c0 48 36 83 79 83c47 0 82 -35 82 -83c0 -45 -35 -82 -82 -82c-43 0 -79 37 -79 82zM547 1060c282 0 436 -191 436 -484v-110c0 -294 -153 -483 -436 -483
s-436 188 -436 483v110c0 287 152 484 436 484zM547 949c-213 0 -311 -164 -311 -387v-81c0 -226 97 -385 312 -385c213 0 309 158 309 385v81c0 222 -97 387 -310 387z" />
    <glyph glyph-name="divide" unicode="&#xf7;" horiz-adv-x="1078" 
d="M1003 490h-927v107h927v-107zM432 921c0 62 47 110 107 110c62 0 110 -48 110 -110c0 -61 -48 -107 -110 -107c-60 0 -107 46 -107 107zM437 172c0 62 47 110 107 110c62 0 110 -48 110 -110c0 -60 -48 -107 -110 -107c-60 0 -107 47 -107 107z" />
    <glyph glyph-name="oslash" unicode="&#xf8;" horiz-adv-x="1094" 
d="M337 168c53 -50 126 -75 211 -75c186 0 311 133 311 360v157c0 72 -14 134 -40 184zM233 432c0 -75 16 -138 42 -189l483 628c-52 53 -126 81 -211 81c-183 0 -314 -140 -314 -363v-157zM547 -17c-105 0 -202 33 -276 96l-102 -135l-76 56l110 145
c-58 75 -92 174 -92 294v165c0 287 189 456 436 456c105 0 203 -35 277 -101l111 143l74 -57l-117 -151c57 -76 91 -173 91 -290v-165c0 -294 -190 -456 -436 -456z" />
    <glyph glyph-name="ugrave" unicode="&#xf9;" horiz-adv-x="1127" 
d="M647 1210h-99l-236 279h135zM966 1043v-1043h-126v159h-5c-37 -89 -138 -176 -317 -176c-210 0 -366 120 -366 358v702h127v-668c0 -194 114 -277 270 -277c180 0 291 129 291 305v640h126z" />
    <glyph glyph-name="uacute" unicode="&#xfa;" horiz-adv-x="1127" 
d="M581 1210h-100l202 279h134zM966 1043v-1043h-126v159h-5c-37 -89 -138 -176 -317 -176c-210 0 -366 120 -366 358v702h127v-668c0 -194 114 -277 270 -277c180 0 291 129 291 305v640h126z" />
    <glyph glyph-name="ucircumflex" unicode="&#xfb;" horiz-adv-x="1127" 
d="M309 1220l215 306h82l208 -307h-108l-140 225h-3l-146 -224h-108zM966 1043v-1043h-126v159h-5c-37 -89 -138 -176 -317 -176c-210 0 -366 120 -366 358v702h127v-668c0 -194 114 -277 270 -277c180 0 291 129 291 305v640h126z" />
    <glyph glyph-name="udieresis" unicode="&#xfc;" horiz-adv-x="1127" 
d="M966 1043v-1043h-126v159h-5c-37 -89 -138 -176 -317 -176c-210 0 -366 120 -366 358v702h127v-668c0 -194 114 -277 270 -277c180 0 291 129 291 305v640h126zM324 1264c0 48 35 83 79 83c46 0 81 -35 81 -83c0 -45 -35 -82 -81 -82c-44 0 -79 37 -79 82zM643 1264
c0 48 36 83 79 83c47 0 82 -35 82 -83c0 -45 -35 -82 -82 -82c-43 0 -79 37 -79 82z" />
    <glyph glyph-name="yacute" unicode="&#xfd;" horiz-adv-x="983" 
d="M937 1043l-376 -1050l-34 -90c-55 -149 -123 -270 -311 -270c-35 0 -73 4 -99 9v108c19 -4 56 -7 81 -7c119 0 172 63 204 167l25 75l-390 1058h140l311 -913h6l309 913h134zM509 1210h-100l202 279h134z" />
    <glyph glyph-name="thorn" unicode="&#xfe;" horiz-adv-x="1127" 
d="M608 -17c-194 0 -283 113 -314 189h-7v-526h-125l-2 1790h121l1 -574h7c33 92 137 198 323 198c231 0 403 -160 403 -442v-192c0 -276 -166 -443 -407 -443zM592 96c170 0 297 118 297 358v134c0 241 -126 361 -300 361c-188 0 -302 -139 -302 -340v-190
c0 -177 116 -323 305 -323z" />
    <glyph glyph-name="ydieresis" unicode="&#xff;" horiz-adv-x="983" 
d="M937 1043l-376 -1050l-34 -90c-55 -149 -123 -270 -311 -270c-35 0 -73 4 -99 9v108c19 -4 56 -7 81 -7c119 0 172 63 204 167l25 75l-390 1058h140l311 -913h6l309 913h134zM252 1264c0 48 35 83 79 83c46 0 81 -35 81 -83c0 -45 -35 -82 -81 -82c-44 0 -79 37 -79 82z
M571 1264c0 48 36 83 79 83c47 0 82 -35 82 -83c0 -45 -35 -82 -82 -82c-43 0 -79 37 -79 82z" />
    <glyph glyph-name="Amacron" unicode="&#x100;" horiz-adv-x="1172" 
d="M165 0h-132l490 1363h126l489 -1363h-137l-149 436h-537zM585 1206h-4l-230 -665h464zM856 1533h-540v77h540v-77z" />
    <glyph glyph-name="amacron" unicode="&#x101;" horiz-adv-x="1038" 
d="M756 152c-43 -77 -143 -169 -316 -169c-203 0 -341 122 -341 313c0 178 124 298 361 298h295v137c0 151 -93 216 -246 216c-164 0 -233 -80 -245 -176h-123c10 165 130 289 375 289c224 0 366 -101 366 -324v-736h-122v152h-4zM467 93c161 0 288 110 288 262v132h-291
c-164 0 -234 -78 -234 -188c0 -136 108 -206 237 -206zM788 1224h-546v84h546v-84z" />
    <glyph glyph-name="Abreve" unicode="&#x102;" horiz-adv-x="1172" 
d="M165 0h-132l490 1363h126l489 -1363h-137l-149 436h-537zM585 1206h-4l-230 -665h464zM288 1736h95c0 -87 79 -153 203 -153s200 66 200 153h95c0 -118 -82 -243 -295 -243s-298 124 -298 243z" />
    <glyph glyph-name="abreve" unicode="&#x103;" horiz-adv-x="1038" 
d="M756 152c-43 -77 -143 -169 -316 -169c-203 0 -341 122 -341 313c0 178 124 298 361 298h295v137c0 151 -93 216 -246 216c-164 0 -233 -80 -245 -176h-123c10 165 130 289 375 289c224 0 366 -101 366 -324v-736h-122v152h-4zM467 93c161 0 288 110 288 262v132h-291
c-164 0 -234 -78 -234 -188c0 -136 108 -206 237 -206zM239 1429h94c0 -92 60 -171 183 -171s180 79 180 171h95c-1 -116 -81 -257 -275 -257s-278 139 -277 257z" />
    <glyph glyph-name="Aogonek" unicode="&#x104;" horiz-adv-x="1173" 
d="M165 0h-131l489 1363h127l486 -1355c-72 -24 -180 -86 -184 -180c-4 -74 47 -111 111 -111c27 0 59 4 83 11v-89c-17 -9 -53 -19 -115 -19c-99 0 -200 55 -200 180c0 117 89 190 159 235l-138 401h-537zM587 1206h-6l-229 -665h464z" />
    <glyph glyph-name="aogonek" unicode="&#x105;" horiz-adv-x="1038" 
d="M467 93c161 0 288 110 288 262v132h-291c-164 0 -234 -78 -234 -188c0 -136 108 -206 237 -206zM906 -355c-15 -6 -51 -19 -109 -19c-102 0 -198 54 -198 177c0 116 75 181 161 236v113h-4c-43 -77 -143 -169 -316 -169c-203 0 -341 122 -341 313c0 178 124 298 361 298
h295v137c0 151 -93 216 -246 216c-164 0 -233 -80 -245 -176h-123c10 165 130 289 375 289c224 0 366 -101 366 -324v-733c-82 -31 -169 -90 -169 -178c0 -64 46 -97 111 -97c25 0 59 3 82 10v-93z" />
    <glyph glyph-name="Cacute" unicode="&#x106;" horiz-adv-x="1244" 
d="M547 1513l268 213h148l-297 -213h-119zM249 782v-208c0 -311 143 -487 400 -487c230 0 359 142 359 307h126v-1c0 -195 -158 -423 -490 -423c-336 0 -522 229 -522 606v205c0 377 191 612 522 612c325 0 486 -235 486 -440v-1h-126c0 151 -125 325 -360 325
c-249 0 -395 -185 -395 -495z" />
    <glyph glyph-name="cacute" unicode="&#x107;" horiz-adv-x="1021" 
d="M111 455v137c0 278 158 468 421 468c252 0 386 -162 390 -314h-125c-13 92 -100 203 -264 203c-194 0 -297 -153 -297 -366v-126c0 -212 112 -356 300 -356c168 0 246 88 267 179h124c-8 -139 -138 -297 -394 -297c-269 0 -422 189 -422 472zM532 1210h-100l202 279h134z
" />
    <glyph glyph-name="Ccircumflex" unicode="&#x108;" horiz-adv-x="1244" 
d="M249 782v-208c0 -311 143 -487 400 -487c230 0 359 142 359 307h126v-1c0 -195 -158 -423 -490 -423c-336 0 -522 229 -522 606v205c0 377 191 612 522 612c325 0 486 -235 486 -440v-1h-126c0 151 -125 325 -360 325c-249 0 -395 -185 -395 -495zM336 1509l280 225h64
l277 -225h-128l-179 149h-5l-179 -149h-130z" />
    <glyph glyph-name="ccircumflex" unicode="&#x109;" horiz-adv-x="1021" 
d="M260 1220l215 306h82l208 -307h-108l-140 225h-3l-146 -224h-108zM111 455v137c0 278 158 468 421 468c252 0 386 -162 390 -314h-125c-13 92 -100 203 -264 203c-194 0 -297 -153 -297 -366v-126c0 -212 112 -356 300 -356c168 0 246 88 267 179h124
c-8 -139 -138 -297 -394 -297c-269 0 -422 189 -422 472z" />
    <glyph glyph-name="Cdotaccent" unicode="&#x10a;" horiz-adv-x="1244" 
d="M249 782v-208c0 -311 143 -487 400 -487c230 0 359 142 359 307h126v-1c0 -195 -158 -423 -490 -423c-336 0 -522 229 -522 606v205c0 377 191 612 522 612c325 0 486 -235 486 -440v-1h-126c0 151 -125 325 -360 325c-249 0 -395 -185 -395 -495zM558 1621
c0 50 38 88 85 88c51 0 89 -38 89 -88c0 -49 -38 -85 -89 -85c-47 0 -85 36 -85 85z" />
    <glyph glyph-name="cdotaccent" unicode="&#x10b;" horiz-adv-x="1021" 
d="M111 455v137c0 278 158 468 421 468c252 0 386 -162 390 -314h-125c-13 92 -100 203 -264 203c-194 0 -297 -153 -297 -366v-126c0 -212 112 -356 300 -356c168 0 246 88 267 179h124c-8 -139 -138 -297 -394 -297c-269 0 -422 189 -422 472zM429 1301c0 50 38 88 85 88
c51 0 89 -38 89 -88c0 -49 -38 -85 -89 -85c-47 0 -85 36 -85 85z" />
    <glyph glyph-name="Ccaron" unicode="&#x10c;" horiz-adv-x="1244" 
d="M249 782v-208c0 -311 143 -487 400 -487c230 0 359 142 359 307h126v-1c0 -195 -158 -423 -490 -423c-336 0 -522 229 -522 606v205c0 377 191 612 522 612c325 0 486 -235 486 -440v-1h-126c0 151 -125 325 -360 325c-249 0 -395 -185 -395 -495zM335 1714h125l183 -145
h5l184 145h124l-272 -211h-75z" />
    <glyph glyph-name="ccaron" unicode="&#x10d;" horiz-adv-x="1021" 
d="M260 1510h107l146 -223h3l140 225h108l-207 -307h-83zM111 455v137c0 278 158 468 421 468c252 0 386 -162 390 -314h-125c-13 92 -100 203 -264 203c-194 0 -297 -153 -297 -366v-126c0 -212 112 -356 300 -356c168 0 246 88 267 179h124c-8 -139 -138 -297 -394 -297
c-269 0 -422 189 -422 472z" />
    <glyph glyph-name="Dcaron" unicode="&#x10e;" horiz-adv-x="1289" 
d="M302 1714h125l183 -145h5l184 145h124l-272 -211h-75zM177 1363h402c437 0 602 -280 602 -682c0 -395 -157 -681 -602 -681h-402v1363zM304 1247v-1131h271c333 0 475 211 475 565c0 347 -138 566 -475 566h-271z" />
    <glyph glyph-name="dcaron" unicode="&#x10f;" horiz-adv-x="1271" 
d="M1169 1436h120l-37 -488h-83v488zM518 1061c186 0 286 -98 318 -183h4v558h125v-1436h-120v175h-4c-21 -77 -127 -192 -324 -192c-257 0 -407 187 -407 459v159c0 277 156 460 408 460zM532 948c-185 0 -296 -143 -296 -373v-108c0 -225 108 -372 300 -372
c194 0 304 152 304 370v117c0 216 -115 366 -308 366z" />
    <glyph glyph-name="Dcroat" unicode="&#x110;" horiz-adv-x="1358" 
d="M648 0h-403v642h-159v113h159v608h403c437 0 602 -280 602 -682c0 -395 -157 -681 -602 -681zM373 116h271c333 0 475 211 475 565c0 347 -138 566 -475 566h-271v-492h335v-113h-335v-526z" />
    <glyph glyph-name="dcroat" unicode="&#x111;" horiz-adv-x="1130" 
d="M533 948c-176 0 -296 -128 -296 -351v-148c0 -233 127 -354 300 -354c185 0 303 139 303 340v190c0 177 -120 323 -307 323zM839 181c-25 -85 -132 -198 -324 -198c-231 0 -404 160 -404 434v210c0 261 163 434 408 434c192 0 287 -113 314 -190h7v327h-260v103h260v170
h126v-170h131v-103h-131v-1198h-120v181h-7z" />
    <glyph glyph-name="Emacron" unicode="&#x112;" horiz-adv-x="1085" 
d="M972 116v-116h-795v1363h795v-117h-668v-491h633v-115h-633v-524h668zM841 1533h-540v77h540v-77z" />
    <glyph glyph-name="emacron" unicode="&#x113;" horiz-adv-x="1053" 
d="M541 -17c-285 0 -429 195 -429 482v101c0 295 144 494 417 494s417 -193 417 -492v-73h-708v-37c0 -203 98 -362 303 -362c170 0 241 95 258 176h132c-19 -125 -128 -289 -390 -289zM238 604h582v3c0 206 -111 342 -291 342s-291 -138 -291 -342v-3zM796 1224h-546v84
h546v-84z" />
    <glyph glyph-name="Ebreve" unicode="&#x114;" horiz-adv-x="1085" 
d="M972 116v-116h-795v1363h795v-117h-668v-491h633v-115h-633v-524h668zM273 1736h95c0 -87 79 -153 203 -153s200 66 200 153h95c0 -118 -82 -243 -295 -243s-298 124 -298 243z" />
    <glyph glyph-name="ebreve" unicode="&#x115;" horiz-adv-x="1053" 
d="M541 -17c-285 0 -429 195 -429 482v101c0 295 144 494 417 494s417 -193 417 -492v-73h-708v-37c0 -203 98 -362 303 -362c170 0 241 95 258 176h132c-19 -125 -128 -289 -390 -289zM238 604h582v3c0 206 -111 342 -291 342s-291 -138 -291 -342v-3zM247 1429h94
c0 -92 60 -171 183 -171s180 79 180 171h95c-1 -116 -81 -257 -275 -257s-278 139 -277 257z" />
    <glyph glyph-name="Edotaccent" unicode="&#x116;" horiz-adv-x="1085" 
d="M486 1621c0 50 38 88 85 88c51 0 89 -38 89 -88c0 -49 -38 -85 -89 -85c-47 0 -85 36 -85 85zM972 116v-116h-795v1363h795v-117h-668v-491h633v-115h-633v-524h668z" />
    <glyph glyph-name="edotaccent" unicode="&#x117;" horiz-adv-x="1053" 
d="M441 1301c0 50 38 88 85 88c51 0 89 -38 89 -88c0 -49 -38 -85 -89 -85c-47 0 -85 36 -85 85zM541 -17c-285 0 -429 195 -429 482v101c0 295 144 494 417 494s417 -193 417 -492v-73h-708v-37c0 -203 98 -362 303 -362c170 0 241 95 258 176h132
c-19 -125 -128 -289 -390 -289zM238 604h582v3c0 206 -111 342 -291 342s-291 -138 -291 -342v-3z" />
    <glyph glyph-name="Eogonek" unicode="&#x118;" horiz-adv-x="1085" 
d="M973 -362c-23 -9 -62 -18 -106 -18c-107 0 -200 55 -200 180c0 88 50 154 126 200h-616v1363h795v-117h-669v-491h634v-115h-633v-524h668v-106c-98 -27 -193 -88 -193 -189c0 -67 45 -104 114 -104c30 0 60 5 80 11v-90z" />
    <glyph glyph-name="eogonek" unicode="&#x119;" horiz-adv-x="1053" 
d="M661 10c-24 -15 -68 -27 -120 -27c-285 0 -429 195 -429 482v101c0 295 144 494 417 494s417 -193 417 -492v-73h-708v-37c0 -203 98 -362 303 -362c170 0 241 95 258 176h132c-14 -82 -58 -151 -127 -218c-68 -66 -125 -131 -125 -216c0 -71 56 -111 123 -111
c24 0 56 5 79 12v-95c-15 -7 -50 -18 -111 -18c-102 0 -202 60 -202 183c0 98 51 148 97 195zM238 604h582v3c0 206 -111 342 -291 342s-291 -138 -291 -342v-3z" />
    <glyph glyph-name="Ecaron" unicode="&#x11a;" horiz-adv-x="1085" 
d="M263 1714h125l183 -145h5l184 145h124l-272 -211h-75zM972 116v-116h-795v1363h795v-117h-668v-491h633v-115h-633v-524h668z" />
    <glyph glyph-name="ecaron" unicode="&#x11b;" horiz-adv-x="1053" 
d="M272 1510h107l146 -223h3l140 225h108l-207 -307h-83zM541 -17c-285 0 -429 195 -429 482v101c0 295 144 494 417 494s417 -193 417 -492v-73h-708v-37c0 -203 98 -362 303 -362c170 0 241 95 258 176h132c-19 -125 -128 -289 -390 -289zM238 604h582v3
c0 206 -111 342 -291 342s-291 -138 -291 -342v-3z" />
    <glyph glyph-name="Gcircumflex" unicode="&#x11c;" horiz-adv-x="1266" 
d="M339 1509l280 225h64l277 -225h-128l-179 149h-5l-179 -149h-130zM1140 975h-126c-18 182 -159 302 -363 302c-228 0 -402 -159 -402 -488v-205c0 -302 135 -497 398 -497c219 0 373 127 373 326v158h-382v117h506v-275c0 -205 -145 -443 -495 -443
c-353 0 -527 246 -527 614v205c0 378 209 604 532 604c311 0 474 -202 486 -418z" />
    <glyph glyph-name="gcircumflex" unicode="&#x11d;" horiz-adv-x="1102" 
d="M296 1220l215 306h82l208 -307h-108l-140 225h-3l-146 -224h-108zM524 -268c200 0 306 106 306 276v196h-4c-34 -80 -140 -186 -315 -186c-231 0 -411 171 -411 442v153c0 277 184 447 413 447c193 0 281 -103 317 -182h4v165h121v-1030c0 -259 -169 -394 -436 -394
s-385 150 -393 293h131c10 -86 90 -180 267 -180zM532 949c-178 0 -306 -132 -306 -360v-109c0 -222 131 -350 307 -350c192 0 296 163 296 340v121c0 197 -112 358 -297 358z" />
    <glyph glyph-name="Gbreve" unicode="&#x11e;" horiz-adv-x="1266" 
d="M1140 975h-126c-18 182 -159 302 -363 302c-228 0 -402 -159 -402 -488v-205c0 -302 135 -497 398 -497c219 0 373 127 373 326v158h-382v117h506v-275c0 -205 -145 -443 -495 -443c-353 0 -527 246 -527 614v205c0 378 209 604 532 604c311 0 474 -202 486 -418z
M348 1736h95c0 -87 79 -153 203 -153s200 66 200 153h95c0 -118 -82 -243 -295 -243s-298 124 -298 243z" />
    <glyph glyph-name="gbreve" unicode="&#x11f;" horiz-adv-x="1102" 
d="M271 1429h94c0 -92 60 -171 183 -171s180 79 180 171h95c-1 -116 -81 -257 -275 -257s-278 139 -277 257zM524 -268c200 0 306 106 306 276v196h-4c-34 -80 -140 -186 -315 -186c-231 0 -411 171 -411 442v153c0 277 184 447 413 447c193 0 281 -103 317 -182h4v165h121
v-1030c0 -259 -169 -394 -436 -394s-385 150 -393 293h131c10 -86 90 -180 267 -180zM532 949c-178 0 -306 -132 -306 -360v-109c0 -222 131 -350 307 -350c192 0 296 163 296 340v121c0 197 -112 358 -297 358z" />
    <glyph glyph-name="Gdotaccent" unicode="&#x120;" horiz-adv-x="1266" 
d="M561 1621c0 50 38 88 85 88c51 0 89 -38 89 -88c0 -49 -38 -85 -89 -85c-47 0 -85 36 -85 85zM1140 975h-126c-18 182 -159 302 -363 302c-228 0 -402 -159 -402 -488v-205c0 -302 135 -497 398 -497c219 0 373 127 373 326v158h-382v117h506v-275
c0 -205 -145 -443 -495 -443c-353 0 -527 246 -527 614v205c0 378 209 604 532 604c311 0 474 -202 486 -418z" />
    <glyph glyph-name="gdotaccent" unicode="&#x121;" horiz-adv-x="1102" 
d="M465 1301c0 50 38 88 85 88c51 0 89 -38 89 -88c0 -49 -38 -85 -89 -85c-47 0 -85 36 -85 85zM524 -268c200 0 306 106 306 276v196h-4c-34 -80 -140 -186 -315 -186c-231 0 -411 171 -411 442v153c0 277 184 447 413 447c193 0 281 -103 317 -182h4v165h121v-1030
c0 -259 -169 -394 -436 -394s-385 150 -393 293h131c10 -86 90 -180 267 -180zM532 949c-178 0 -306 -132 -306 -360v-109c0 -222 131 -350 307 -350c192 0 296 163 296 340v121c0 197 -112 358 -297 358z" />
    <glyph glyph-name="Gcommaaccent" unicode="&#x122;" horiz-adv-x="1266" 
d="M607 -486h-100l85 335h129zM1140 975h-126c-18 182 -159 302 -363 302c-228 0 -402 -159 -402 -488v-205c0 -302 135 -497 398 -497c219 0 373 127 373 326v158h-382v117h506v-275c0 -205 -145 -443 -495 -443c-353 0 -527 246 -527 614v205c0 378 209 604 532 604
c311 0 474 -202 486 -418z" />
    <glyph glyph-name="gcommaaccent" unicode="&#x123;" horiz-adv-x="1102" 
d="M568 1579h100l-85 -335h-129zM524 -268c200 0 306 106 306 276v196h-4c-34 -80 -140 -186 -315 -186c-231 0 -411 171 -411 442v153c0 277 184 447 413 447c193 0 281 -103 317 -182h4v165h121v-1030c0 -259 -169 -394 -436 -394s-385 150 -393 293h131
c10 -86 90 -180 267 -180zM532 949c-178 0 -306 -132 -306 -360v-109c0 -222 131 -350 307 -350c192 0 296 163 296 340v121c0 197 -112 358 -297 358z" />
    <glyph glyph-name="Hcircumflex" unicode="&#x124;" horiz-adv-x="1348" 
d="M1171 0h-127v652h-740v-652h-127v1363h127v-595h740v595h127v-1363zM366 1509l280 225h64l277 -225h-128l-179 149h-5l-179 -149h-130z" />
    <glyph glyph-name="hcircumflex" unicode="&#x125;" horiz-adv-x="1141" 
d="M164 0v1436h126v-551h5c32 80 128 175 308 175c227 0 381 -160 381 -399v-661h-126v638c0 176 -93 307 -273 307c-189 0 -295 -133 -295 -321v-624h-126zM-30 1613l215 306h82l208 -307h-108l-140 225h-3l-146 -224h-108z" />
    <glyph glyph-name="Hbar" unicode="&#x126;" horiz-adv-x="1348" 
d="M304 747h740v263h-740v-263zM304 632v-632h-127v1010h-122v102h122v251h127v-251h740v251h127v-251h125v-102h-125v-1010h-127v632h-740z" />
    <glyph glyph-name="hbar" unicode="&#x127;" horiz-adv-x="1141" 
d="M290 600v-600h-126v1199h-125v102h125v135h126v-135h263v-102h-263v-353h7c24 83 117 214 333 214c203 0 354 -120 354 -354v-706h-126v670c0 172 -97 280 -261 280c-203 0 -307 -161 -307 -350z" />
    <glyph glyph-name="Itilde" unicode="&#x128;" horiz-adv-x="493" 
d="M310 0h-127v1363h127v-1363zM216 1554c-26 30 -51 58 -88 58c-55 0 -71 -50 -73 -108h-83c0 104 50 187 156 187c56 0 94 -26 140 -75c28 -32 47 -54 85 -54c50 0 77 59 80 115h83c0 -96 -61 -189 -157 -189c-72 0 -106 27 -143 66z" />
    <glyph glyph-name="itilde" unicode="&#x129;" horiz-adv-x="483" 
d="M178 0v1043h126v-1043h-126zM206 1243c-28 33 -56 66 -96 66c-58 0 -77 -57 -79 -122h-88c0 117 54 208 167 208c61 0 102 -28 150 -83c31 -36 53 -60 93 -60c54 0 84 66 87 128h87c0 -106 -65 -210 -168 -210c-77 0 -115 30 -153 73z" />
    <glyph glyph-name="Imacron" unicode="&#x12a;" horiz-adv-x="493" 
d="M310 0h-127v1363h127v-1363zM516 1533h-540v77h540v-77z" />
    <glyph glyph-name="imacron" unicode="&#x12b;" horiz-adv-x="483" 
d="M178 0v1043h126v-1043h-126zM511 1224h-546v84h546v-84z" />
    <glyph glyph-name="Ibreve" unicode="&#x12c;" horiz-adv-x="493" 
d="M310 0h-127v1363h127v-1363zM-52 1736h95c0 -87 79 -153 203 -153s200 66 200 153h95c0 -118 -82 -243 -295 -243s-298 124 -298 243z" />
    <glyph glyph-name="ibreve" unicode="&#x12d;" horiz-adv-x="483" 
d="M178 0v1043h126v-1043h-126zM-38 1429h94c0 -92 60 -171 183 -171s180 79 180 171h95c-1 -116 -81 -257 -275 -257s-278 139 -277 257z" />
    <glyph glyph-name="Iogonek" unicode="&#x12e;" horiz-adv-x="493" 
d="M342 -361c-17 -9 -56 -19 -110 -19c-113 0 -199 58 -199 181c0 119 81 189 150 229v1333h127v-1363c-78 -31 -163 -87 -163 -179c0 -68 46 -104 113 -104c26 0 58 4 82 11v-89z" />
    <glyph glyph-name="iogonek" unicode="&#x12f;" horiz-adv-x="498" 
d="M343 -355c-17 -9 -56 -19 -110 -19c-113 0 -199 58 -199 181c0 119 83 189 152 229v1007h126v-1037c-78 -31 -164 -87 -164 -179c0 -68 47 -104 113 -104c26 0 59 4 82 11v-89zM148 1361c0 59 44 101 100 101c58 0 101 -42 101 -101c0 -56 -43 -99 -101 -99
c-56 0 -100 43 -100 99z" />
    <glyph glyph-name="Idotaccent" unicode="&#x130;" horiz-adv-x="493" 
d="M310 0h-127v1363h127v-1363zM161 1621c0 50 38 88 85 88c51 0 89 -38 89 -88c0 -49 -38 -85 -89 -85c-47 0 -85 36 -85 85z" />
    <glyph glyph-name="dotlessi" unicode="&#x131;" horiz-adv-x="483" 
d="M178 0v1043h126v-1043h-126z" />
    <glyph glyph-name="Jcircumflex" unicode="&#x134;" horiz-adv-x="932" 
d="M29 299h126c3 -112 89 -207 232 -207c144 0 251 80 251 273v998h127v-985c0 -275 -156 -403 -378 -403c-232 0 -358 150 -358 324zM393 1509l280 225h64l277 -225h-128l-179 149h-5l-179 -149h-130z" />
    <glyph glyph-name="jcircumflex" unicode="&#x135;" horiz-adv-x="498" 
d="M312 1043v-1091c0 -224 -93 -313 -253 -313c-29 0 -73 5 -88 9v104c15 -3 44 -5 66 -5c109 0 149 60 149 205v1091h126zM-2 1207l215 306h82l208 -307h-108l-140 225h-3l-146 -224h-108z" />
    <glyph glyph-name="Kcommaaccent" unicode="&#x136;" horiz-adv-x="1147" 
d="M1101 1363l-531 -590l561 -773h-164l-492 685l-171 -184v-501h-127v1363h127v-693h5l637 693h155zM534 -486h-100l85 335h129z" />
    <glyph glyph-name="kcommaaccent" unicode="&#x137;" horiz-adv-x="995" 
d="M290 405v-405h-126v1436h126v-888h5l490 501h150l-435 -450l458 -599h-153l-397 518zM477 -486h-100l85 335h129z" />
    <glyph glyph-name="Lacute" unicode="&#x139;" horiz-adv-x="996" 
d="M143 1513l268 213h148l-297 -213h-119zM960 116v-116h-783v1363h127v-1247h656z" />
    <glyph glyph-name="lacute" unicode="&#x13a;" horiz-adv-x="468" 
d="M252 1603h-100l202 279h134zM171 0v1436h126v-1436h-126z" />
    <glyph glyph-name="Lcommaaccent" unicode="&#x13b;" horiz-adv-x="996" 
d="M471 -486h-100l85 335h129zM960 116v-116h-783v1363h127v-1247h656z" />
    <glyph glyph-name="lcommaaccent" unicode="&#x13c;" horiz-adv-x="468" 
d="M195 -486h-100l85 335h129zM171 0v1436h126v-1436h-126z" />
    <glyph glyph-name="Lcaron" unicode="&#x13d;" horiz-adv-x="996" 
d="M578 1437h126l-40 -488h-86v488zM960 116v-116h-783v1363h127v-1247h656z" />
    <glyph glyph-name="lcaron" unicode="&#x13e;" horiz-adv-x="594" 
d="M495 1436h120l-37 -488h-83v488zM171 0v1436h126v-1436h-126z" />
    <glyph glyph-name="Lslash" unicode="&#x141;" horiz-adv-x="1002" 
d="M966 0h-783v560l-139 -81v127l139 81v676h127v-602l411 242v-129l-411 -241v-517h656v-116z" />
    <glyph glyph-name="lslash" unicode="&#x142;" horiz-adv-x="511" 
d="M318 0h-125v644l-169 -124v130l169 124v662h125v-572l171 125v-129l-171 -126v-734z" />
    <glyph glyph-name="Nacute" unicode="&#x143;" horiz-adv-x="1348" 
d="M577 1513l268 213h148l-297 -213h-119zM304 0h-127v1363h128l735 -1143h4v1143h127v-1363h-128l-736 1143h-3v-1143z" />
    <glyph glyph-name="nacute" unicode="&#x144;" horiz-adv-x="1131" 
d="M583 1210h-100l202 279h134zM161 0v1043h126v-158h4c38 90 146 175 314 175c207 0 372 -130 372 -367v-693h-127v649c0 186 -93 296 -272 296c-190 0 -291 -128 -291 -317v-628h-126z" />
    <glyph glyph-name="Ncommaaccent" unicode="&#x145;" horiz-adv-x="1348" 
d="M634 -486h-100l85 335h129zM304 0h-127v1363h128l735 -1143h4v1143h127v-1363h-128l-736 1143h-3v-1143z" />
    <glyph glyph-name="ncommaaccent" unicode="&#x146;" horiz-adv-x="1131" 
d="M526 -486h-100l85 335h129zM161 0v1043h126v-158h4c38 90 146 175 314 175c207 0 372 -130 372 -367v-693h-127v649c0 186 -93 296 -272 296c-190 0 -291 -128 -291 -317v-628h-126z" />
    <glyph glyph-name="Ncaron" unicode="&#x147;" horiz-adv-x="1348" 
d="M365 1714h125l183 -145h5l184 145h124l-272 -211h-75zM304 0h-127v1363h128l735 -1143h4v1143h127v-1363h-128l-736 1143h-3v-1143z" />
    <glyph glyph-name="ncaron" unicode="&#x148;" horiz-adv-x="1131" 
d="M311 1510h107l146 -223h3l140 225h108l-207 -307h-83zM161 0v1043h126v-158h4c38 90 146 175 314 175c207 0 372 -130 372 -367v-693h-127v649c0 186 -93 296 -272 296c-190 0 -291 -128 -291 -317v-628h-126z" />
    <glyph glyph-name="Omacron" unicode="&#x14c;" horiz-adv-x="1307" 
d="M248 789v-225c0 -311 167 -477 405 -477c239 0 405 166 405 477v225c0 311 -167 488 -405 488c-237 0 -405 -177 -405 -488zM122 566v221c0 376 206 606 532 606c328 0 531 -231 531 -607v-220c0 -375 -206 -596 -533 -596c-328 0 -530 221 -530 596zM923 1533h-540v77
h540v-77z" />
    <glyph glyph-name="omacron" unicode="&#x14d;" horiz-adv-x="1094" 
d="M817 1224h-546v84h546v-84zM547 1060c282 0 436 -191 436 -484v-110c0 -294 -153 -483 -436 -483s-436 188 -436 483v110c0 287 152 484 436 484zM547 949c-213 0 -311 -164 -311 -387v-81c0 -226 97 -385 312 -385c213 0 309 158 309 385v81c0 222 -97 387 -310 387z
" />
    <glyph glyph-name="Obreve" unicode="&#x14e;" horiz-adv-x="1307" 
d="M248 789v-225c0 -311 167 -477 405 -477c239 0 405 166 405 477v225c0 311 -167 488 -405 488c-237 0 -405 -177 -405 -488zM122 566v221c0 376 206 606 532 606c328 0 531 -231 531 -607v-220c0 -375 -206 -596 -533 -596c-328 0 -530 221 -530 596zM355 1736h95
c0 -87 79 -153 203 -153s200 66 200 153h95c0 -118 -82 -243 -295 -243s-298 124 -298 243z" />
    <glyph glyph-name="obreve" unicode="&#x14f;" horiz-adv-x="1094" 
d="M268 1429h94c0 -92 60 -171 183 -171s180 79 180 171h95c-1 -116 -81 -257 -275 -257s-278 139 -277 257zM547 1060c282 0 436 -191 436 -484v-110c0 -294 -153 -483 -436 -483s-436 188 -436 483v110c0 287 152 484 436 484zM547 949c-213 0 -311 -164 -311 -387v-81
c0 -226 97 -385 312 -385c213 0 309 158 309 385v81c0 222 -97 387 -310 387z" />
    <glyph glyph-name="Ohungarumlaut" unicode="&#x150;" horiz-adv-x="1307" 
d="M430 1514l281 223h136l-295 -223h-122zM714 1514l282 223h136l-295 -223h-123zM248 789v-225c0 -311 167 -477 405 -477c239 0 405 166 405 477v225c0 311 -167 488 -405 488c-237 0 -405 -177 -405 -488zM122 566v221c0 376 206 606 532 606c328 0 531 -231 531 -607
v-220c0 -375 -206 -596 -533 -596c-328 0 -530 221 -530 596z" />
    <glyph glyph-name="ohungarumlaut" unicode="&#x151;" horiz-adv-x="1094" 
d="M447 1209h-89l219 305h120zM692 1209h-90l219 305h120zM547 1060c282 0 436 -191 436 -484v-110c0 -294 -153 -483 -436 -483s-436 188 -436 483v110c0 287 152 484 436 484zM547 949c-213 0 -311 -164 -311 -387v-81c0 -226 97 -385 312 -385c213 0 309 158 309 385v81
c0 222 -97 387 -310 387z" />
    <glyph glyph-name="OE" unicode="&#x152;" horiz-adv-x="1962" 
d="M248 789v-225c0 -311 164 -477 402 -477c235 0 404 157 404 452v283c0 291 -166 455 -404 455c-237 0 -402 -177 -402 -488zM649 -30c-327 0 -527 221 -527 596v221c0 376 203 606 530 606c171 0 322 -71 392 -199h10v169h789v-117h-661v-491h625v-115h-625v-524h661
v-116h-789v176h-9c-77 -132 -223 -206 -396 -206z" />
    <glyph glyph-name="oe" unicode="&#x153;" horiz-adv-x="1800" 
d="M1286 -17c-168 0 -301 79 -362 209h-10c-67 -132 -207 -209 -367 -209c-249 0 -436 160 -436 456v165c0 287 189 456 436 456c160 0 296 -67 368 -209h9c64 132 195 209 350 209c244 0 415 -173 415 -466v-102h-706v-55c0 -203 109 -341 303 -341c152 0 242 80 260 154
h133c-15 -108 -139 -267 -393 -267zM547 949c-183 0 -311 -137 -311 -360v-136c0 -226 123 -357 312 -357c186 0 309 130 309 357v136c0 223 -126 360 -310 360zM983 592h580v15c0 210 -114 342 -289 342s-291 -132 -291 -342v-15z" />
    <glyph glyph-name="Racute" unicode="&#x154;" horiz-adv-x="1198" 
d="M475 1513l268 213h148l-297 -213h-119zM646 1363c283 0 423 -179 423 -394c0 -220 -130 -334 -269 -376l293 -593h-147l-274 567h-368v-567h-127v1363h469zM304 682h320c202 0 314 104 314 279c0 185 -120 287 -309 287h-325v-566z" />
    <glyph glyph-name="racute" unicode="&#x155;" horiz-adv-x="679" 
d="M407 1210h-100l202 279h134zM173 0v1043h126v-149h4c27 73 90 165 276 165c28 0 52 -3 70 -5v-118c-15 3 -48 6 -85 6c-177 0 -265 -112 -265 -289v-653h-126z" />
    <glyph glyph-name="Rcommaaccent" unicode="&#x156;" horiz-adv-x="1198" 
d="M646 1363c283 0 423 -179 423 -394c0 -220 -130 -334 -269 -376l293 -593h-147l-274 567h-368v-567h-127v1363h469zM304 682h320c202 0 314 104 314 279c0 185 -120 287 -309 287h-325v-566zM532 -486h-100l85 335h129z" />
    <glyph glyph-name="rcommaaccent" unicode="&#x157;" horiz-adv-x="679" 
d="M173 0v1043h126v-149h4c27 73 90 165 276 165c28 0 52 -3 70 -5v-118c-15 3 -48 6 -85 6c-177 0 -265 -112 -265 -289v-653h-126zM198 -486h-100l85 335h129z" />
    <glyph glyph-name="Rcaron" unicode="&#x158;" horiz-adv-x="1198" 
d="M646 1363c283 0 423 -179 423 -394c0 -220 -130 -334 -269 -376l293 -593h-147l-274 567h-368v-567h-127v1363h469zM304 682h320c202 0 314 104 314 279c0 185 -120 287 -309 287h-325v-566zM263 1714h125l183 -145h5l184 145h124l-272 -211h-75z" />
    <glyph glyph-name="rcaron" unicode="&#x159;" horiz-adv-x="679" 
d="M135 1510h107l146 -223h3l140 225h108l-207 -307h-83zM173 0v1043h126v-149h4c27 73 90 165 276 165c28 0 52 -3 70 -5v-118c-15 3 -48 6 -85 6c-177 0 -265 -112 -265 -289v-653h-126z" />
    <glyph glyph-name="Sacute" unicode="&#x15a;" horiz-adv-x="1144" 
d="M473 1513l268 213h148l-297 -213h-119zM77 357h129c10 -132 120 -270 363 -270c208 0 345 106 345 268c0 138 -87 205 -263 252l-217 57c-170 46 -314 147 -314 351c0 241 207 381 454 381c241 0 447 -131 452 -369h-129c-9 131 -110 252 -325 252
c-191 0 -322 -96 -322 -256c0 -122 74 -196 222 -235l212 -58c221 -60 360 -150 360 -366c0 -255 -214 -394 -490 -394c-352 0 -473 220 -477 387z" />
    <glyph glyph-name="sacute" unicode="&#x15b;" horiz-adv-x="968" 
d="M114 760c0 204 171 300 369 300c251 0 360 -150 360 -299h-120c-4 81 -59 194 -245 194c-135 0 -239 -64 -239 -183c0 -129 124 -158 265 -188c195 -40 363 -88 363 -289c0 -205 -171 -312 -397 -312c-243 0 -381 127 -381 291h124c10 -93 86 -184 262 -184
c170 0 267 75 267 191c0 131 -129 160 -279 192c-199 44 -349 93 -349 287zM501 1210h-100l202 279h134z" />
    <glyph glyph-name="Scircumflex" unicode="&#x15c;" horiz-adv-x="1144" 
d="M77 357h129c10 -132 120 -270 363 -270c208 0 345 106 345 268c0 138 -87 205 -263 252l-217 57c-170 46 -314 147 -314 351c0 241 207 381 454 381c241 0 447 -131 452 -369h-129c-9 131 -110 252 -325 252c-191 0 -322 -96 -322 -256c0 -122 74 -196 222 -235l212 -58
c221 -60 360 -150 360 -366c0 -255 -214 -394 -490 -394c-352 0 -473 220 -477 387zM262 1509l280 225h64l277 -225h-128l-179 149h-5l-179 -149h-130z" />
    <glyph glyph-name="scircumflex" unicode="&#x15d;" horiz-adv-x="968" 
d="M229 1220l215 306h82l208 -307h-108l-140 225h-3l-146 -224h-108zM114 760c0 204 171 300 369 300c251 0 360 -150 360 -299h-120c-4 81 -59 194 -245 194c-135 0 -239 -64 -239 -183c0 -129 124 -158 265 -188c195 -40 363 -88 363 -289c0 -205 -171 -312 -397 -312
c-243 0 -381 127 -381 291h124c10 -93 86 -184 262 -184c170 0 267 75 267 191c0 131 -129 160 -279 192c-199 44 -349 93 -349 287z" />
    <glyph glyph-name="Scedilla" unicode="&#x15e;" horiz-adv-x="1144" 
d="M564 -463c-58 -2 -114 7 -141 15v86c27 -8 81 -15 119 -15c62 0 132 23 132 91c0 70 -64 81 -145 81h-52v64l48 112c-329 11 -444 224 -448 386h129c10 -132 120 -270 363 -270c208 0 345 106 345 268c0 138 -87 205 -263 252l-217 57c-170 46 -314 147 -314 351
c0 241 207 381 454 381c241 0 447 -131 452 -369h-129c-9 131 -110 252 -325 252c-191 0 -322 -96 -322 -256c0 -122 74 -196 222 -235l212 -58c221 -60 360 -150 360 -366c0 -234 -180 -370 -423 -391l-42 -98c119 0 206 -48 206 -158c0 -123 -106 -176 -221 -180z" />
    <glyph glyph-name="scedilla" unicode="&#x15f;" horiz-adv-x="968" 
d="M468 -459c-57 -2 -114 8 -140 15v86c26 -8 80 -15 118 -15c62 0 132 23 132 91c0 70 -70 82 -151 82h-52v63l49 122c-217 13 -335 138 -335 289h124c10 -93 86 -184 262 -184c170 0 267 75 267 191c0 131 -129 160 -279 192c-199 44 -349 93 -349 287
c0 204 171 300 369 300c251 0 360 -150 360 -299h-120c-4 81 -59 194 -245 194c-135 0 -239 -64 -239 -183c0 -129 124 -158 265 -188c195 -40 363 -88 363 -289c0 -190 -146 -296 -348 -311l-42 -105c119 0 212 -48 212 -158c0 -123 -106 -176 -221 -180z" />
    <glyph glyph-name="Scaron" unicode="&#x160;" horiz-adv-x="1144" 
d="M77 357h129c10 -132 120 -270 363 -270c208 0 345 106 345 268c0 138 -87 205 -263 252l-217 57c-170 46 -314 147 -314 351c0 241 207 381 454 381c241 0 447 -131 452 -369h-129c-9 131 -110 252 -325 252c-191 0 -322 -96 -322 -256c0 -122 74 -196 222 -235l212 -58
c221 -60 360 -150 360 -366c0 -255 -214 -394 -490 -394c-352 0 -473 220 -477 387zM261 1714h125l183 -145h5l184 145h124l-272 -211h-75z" />
    <glyph glyph-name="scaron" unicode="&#x161;" horiz-adv-x="968" 
d="M229 1510h107l146 -223h3l140 225h108l-207 -307h-83zM114 760c0 204 171 300 369 300c251 0 360 -150 360 -299h-120c-4 81 -59 194 -245 194c-135 0 -239 -64 -239 -183c0 -129 124 -158 265 -188c195 -40 363 -88 363 -289c0 -205 -171 -312 -397 -312
c-243 0 -381 127 -381 291h124c10 -93 86 -184 262 -184c170 0 267 75 267 191c0 131 -129 160 -279 192c-199 44 -349 93 -349 287z" />
    <glyph glyph-name="Tcedilla" unicode="&#x162;" horiz-adv-x="1033" 
d="M516 -478c-57 -2 -114 8 -140 16v85c27 -8 80 -14 118 -14c62 0 132 23 132 90c0 71 -70 82 -151 82h-52v64l62 155h-32v1247h-435v116h997v-116h-436v-1247l-53 -140c119 0 211 -47 211 -157c0 -123 -106 -177 -221 -181z" />
    <glyph glyph-name="tcedilla" unicode="&#x163;" horiz-adv-x="664" 
d="M368 -460c-57 -2 -114 7 -140 15v86c27 -8 81 -15 119 -15c62 0 132 23 132 91c0 70 -71 81 -152 81h-51v64l59 154c-97 36 -125 117 -125 257v662h-162v108h162v259h126v-259h236v-108h-236v-672c0 -128 48 -162 181 -162c22 0 50 1 65 3v-104c-15 -3 -55 -7 -91 -7
c-24 0 -47 1 -67 3l-46 -118c119 0 211 -48 211 -158c0 -123 -106 -176 -221 -180z" />
    <glyph glyph-name="Tcaron" unicode="&#x164;" horiz-adv-x="1033" 
d="M208 1714h125l183 -145h5l184 145h124l-272 -211h-75zM579 0h-126v1247h-435v116h997v-116h-436v-1247z" />
    <glyph glyph-name="tcaron" unicode="&#x165;" horiz-adv-x="664" 
d="M537 1699h120l-37 -488h-83v488zM210 1043v259h126v-259h236v-108h-236v-672c0 -128 48 -162 181 -162c22 0 50 1 65 3v-104c-15 -3 -55 -7 -91 -7c-228 0 -281 84 -281 280v662h-162v108h162z" />
    <glyph glyph-name="Tbar" unicode="&#x166;" horiz-adv-x="1033" 
d="M826 669h-247v-669h-126v669h-247v102h247v476h-435v116h997v-116h-436v-476h247v-102z" />
    <glyph glyph-name="tbar" unicode="&#x167;" horiz-adv-x="651" 
d="M582 0c-15 -3 -55 -7 -91 -7c-228 0 -281 84 -281 280v282h-145v102h145v278h-162v108h162v259h126v-259h236v-108h-236v-278h206v-102h-206v-292c0 -128 48 -162 181 -162c22 0 50 1 65 3v-104z" />
    <glyph glyph-name="Utilde" unicode="&#x168;" horiz-adv-x="1319" 
d="M286 1363v-891c0 -233 139 -385 374 -385c234 0 374 151 374 385v891h127v-891c0 -302 -196 -502 -501 -502s-502 203 -502 505v888h128zM629 1554c-26 30 -51 58 -88 58c-55 0 -71 -50 -73 -108h-83c0 104 50 187 156 187c56 0 94 -26 140 -75c28 -32 47 -54 85 -54
c50 0 77 59 80 115h83c0 -96 -61 -189 -157 -189c-72 0 -106 27 -143 66z" />
    <glyph glyph-name="utilde" unicode="&#x169;" horiz-adv-x="1127" 
d="M966 1043v-1043h-126v159h-5c-37 -89 -138 -176 -317 -176c-210 0 -366 120 -366 358v702h127v-668c0 -194 114 -277 270 -277c180 0 291 129 291 305v640h126zM528 1243c-28 33 -56 66 -96 66c-58 0 -77 -57 -79 -122h-88c0 117 54 208 167 208c61 0 102 -28 150 -83
c31 -36 53 -60 93 -60c54 0 84 66 87 128h87c0 -106 -65 -210 -168 -210c-77 0 -115 30 -153 73z" />
    <glyph glyph-name="Umacron" unicode="&#x16a;" horiz-adv-x="1319" 
d="M286 1363v-891c0 -233 139 -385 374 -385c234 0 374 151 374 385v891h127v-891c0 -302 -196 -502 -501 -502s-502 203 -502 505v888h128zM929 1533h-540v77h540v-77z" />
    <glyph glyph-name="umacron" unicode="&#x16b;" horiz-adv-x="1127" 
d="M966 1043v-1043h-126v159h-5c-37 -89 -138 -176 -317 -176c-210 0 -366 120 -366 358v702h127v-668c0 -194 114 -277 270 -277c180 0 291 129 291 305v640h126zM833 1224h-546v84h546v-84z" />
    <glyph glyph-name="Ubreve" unicode="&#x16c;" horiz-adv-x="1319" 
d="M286 1363v-891c0 -233 139 -385 374 -385c234 0 374 151 374 385v891h127v-891c0 -302 -196 -502 -501 -502s-502 203 -502 505v888h128zM361 1736h95c0 -87 79 -153 203 -153s200 66 200 153h95c0 -118 -82 -243 -295 -243s-298 124 -298 243z" />
    <glyph glyph-name="ubreve" unicode="&#x16d;" horiz-adv-x="1127" 
d="M966 1043v-1043h-126v159h-5c-37 -89 -138 -176 -317 -176c-210 0 -366 120 -366 358v702h127v-668c0 -194 114 -277 270 -277c180 0 291 129 291 305v640h126zM284 1429h94c0 -92 60 -171 183 -171s180 79 180 171h95c-1 -116 -81 -257 -275 -257s-278 139 -277 257z
" />
    <glyph glyph-name="Uring" unicode="&#x16e;" horiz-adv-x="1319" 
d="M286 1363v-891c0 -233 139 -385 374 -385c234 0 374 151 374 385v891h127v-891c0 -302 -196 -502 -501 -502s-502 203 -502 505v888h128zM659 1512c-101 0 -181 78 -181 178s80 177 181 177c99 0 179 -77 179 -177s-80 -178 -179 -178zM550 1690c0 -60 49 -110 109 -110
c61 0 108 50 108 110c0 61 -47 110 -108 110c-60 0 -109 -49 -109 -110z" />
    <glyph glyph-name="uring" unicode="&#x16f;" horiz-adv-x="1127" 
d="M966 1043v-1043h-126v159h-5c-37 -89 -138 -176 -317 -176c-210 0 -366 120 -366 358v702h127v-668c0 -194 114 -277 270 -277c180 0 291 129 291 305v640h126zM563 1192c-101 0 -181 78 -181 178s80 177 181 177c99 0 179 -77 179 -177s-80 -178 -179 -178zM454 1370
c0 -60 49 -110 109 -110c61 0 108 50 108 110c0 61 -47 110 -108 110c-60 0 -109 -49 -109 -110z" />
    <glyph glyph-name="Uhungarumlaut" unicode="&#x170;" horiz-adv-x="1319" 
d="M286 1363v-891c0 -233 139 -385 374 -385c234 0 374 151 374 385v891h127v-891c0 -302 -196 -502 -501 -502s-502 203 -502 505v888h128zM436 1514l281 223h136l-295 -223h-122zM720 1514l282 223h136l-295 -223h-123z" />
    <glyph glyph-name="uhungarumlaut" unicode="&#x171;" horiz-adv-x="1127" 
d="M463 1209h-89l219 305h120zM708 1209h-90l219 305h120zM966 1043v-1043h-126v159h-5c-37 -89 -138 -176 -317 -176c-210 0 -366 120 -366 358v702h127v-668c0 -194 114 -277 270 -277c180 0 291 129 291 305v640h126z" />
    <glyph glyph-name="Uogonek" unicode="&#x172;" horiz-adv-x="1319" 
d="M942 -380c-102 0 -208 55 -208 185c0 67 30 144 108 204l-4 7c-45 -22 -96 -46 -189 -46c-289 0 -491 203 -491 505v888h128v-891c0 -233 139 -385 374 -385c234 0 374 151 374 385v891h127v-891c0 -197 -73 -316 -160 -405c-80 -85 -154 -147 -154 -238
c0 -74 53 -108 122 -108c23 0 53 3 79 12v-94c-15 -7 -55 -19 -106 -19z" />
    <glyph glyph-name="uogonek" unicode="&#x173;" horiz-adv-x="1127" 
d="M989 -355c-16 -7 -52 -19 -109 -19c-103 0 -197 54 -197 178c0 122 93 188 157 236v145h-8c-31 -90 -132 -202 -323 -202c-204 0 -357 97 -357 338v722h127v-693c0 -179 108 -257 256 -257c184 0 305 143 305 297v653h126v-1034c-81 -38 -170 -101 -170 -184
c0 -63 44 -97 112 -97c24 0 57 3 81 10v-93z" />
    <glyph glyph-name="Wcircumflex" unicode="&#x174;" horiz-adv-x="1665" 
d="M525 1509l280 225h64l277 -225h-128l-179 149h-5l-179 -149h-130zM513 0h-119l-371 1363h149l283 -1145h4l305 1145h137l305 -1145h4l284 1145h148l-372 -1363h-119l-317 1146h-5z" />
    <glyph glyph-name="wcircumflex" unicode="&#x175;" horiz-adv-x="1425" 
d="M458 1220l215 306h82l208 -307h-108l-140 225h-3l-146 -224h-108zM1389 1043l-282 -1043h-124l-265 860h-4l-260 -860h-125l-294 1043h143l212 -872h6l259 872h121l264 -872h7l215 872h127z" />
    <glyph glyph-name="Ycircumflex" unicode="&#x176;" horiz-adv-x="1070" 
d="M598 0h-126v602l-462 761h147l375 -634h5l377 634h146l-462 -760v-603zM228 1509l280 225h64l277 -225h-128l-179 149h-5l-179 -149h-130z" />
    <glyph glyph-name="ycircumflex" unicode="&#x177;" horiz-adv-x="983" 
d="M937 1043l-376 -1050l-34 -90c-55 -149 -123 -270 -311 -270c-35 0 -73 4 -99 9v108c19 -4 56 -7 81 -7c119 0 172 63 204 167l25 75l-390 1058h140l311 -913h6l309 913h134zM237 1220l215 306h82l208 -307h-108l-140 225h-3l-146 -224h-108z" />
    <glyph glyph-name="Ydieresis" unicode="&#x178;" horiz-adv-x="1070" 
d="M598 0h-126v602l-462 761h147l375 -634h5l377 634h146l-462 -760v-603zM343 1579c0 40 30 71 69 71c40 0 70 -31 70 -71c0 -38 -30 -71 -70 -71c-39 0 -69 33 -69 71zM627 1579c0 40 31 71 70 71c40 0 69 -31 69 -71c0 -38 -29 -71 -69 -71c-39 0 -70 33 -70 71z" />
    <glyph glyph-name="Zacute" unicode="&#x179;" horiz-adv-x="1145" 
d="M476 1513l268 213h148l-297 -213h-119zM88 0v94l787 1150v4h-760v115h918v-93l-783 -1150v-4h795v-116h-957z" />
    <glyph glyph-name="zacute" unicode="&#x17a;" horiz-adv-x="964" 
d="M499 1210h-100l202 279h134zM109 0v92l591 838v9h-594v104h752v-92l-592 -838v-7h595v-106h-752z" />
    <glyph glyph-name="Zdotaccent" unicode="&#x17b;" horiz-adv-x="1145" 
d="M88 0v94l787 1150v4h-760v115h918v-93l-783 -1150v-4h795v-116h-957zM487 1621c0 50 38 88 85 88c51 0 89 -38 89 -88c0 -49 -38 -85 -89 -85c-47 0 -85 36 -85 85z" />
    <glyph glyph-name="zdotaccent" unicode="&#x17c;" horiz-adv-x="964" 
d="M396 1301c0 50 38 88 85 88c51 0 89 -38 89 -88c0 -49 -38 -85 -89 -85c-47 0 -85 36 -85 85zM109 0v92l591 838v9h-594v104h752v-92l-592 -838v-7h595v-106h-752z" />
    <glyph glyph-name="Zcaron" unicode="&#x17d;" horiz-adv-x="1145" 
d="M88 0v94l787 1150v4h-760v115h918v-93l-783 -1150v-4h795v-116h-957zM264 1714h125l183 -145h5l184 145h124l-272 -211h-75z" />
    <glyph glyph-name="zcaron" unicode="&#x17e;" horiz-adv-x="964" 
d="M227 1510h107l146 -223h3l140 225h108l-207 -307h-83zM109 0v92l591 838v9h-594v104h752v-92l-592 -838v-7h595v-106h-752z" />
    <glyph glyph-name="florin" unicode="&#x192;" horiz-adv-x="1063" 
d="M166 -186l179 990h-234l19 106h235l34 194c32 184 142 289 324 289c198 0 261 -142 261 -232h-119c-1 80 -71 124 -152 124c-110 0 -168 -72 -190 -200l-31 -175h310l-20 -106h-310l-179 -990h-127z" />
    <glyph glyph-name="Ohorn" unicode="&#x1a0;" horiz-adv-x="1303" 
d="M1185 566c0 -375 -206 -596 -533 -596c-328 0 -530 221 -530 596v221c0 376 206 606 532 606c186 0 277 -86 403 -86c105 0 142 62 142 156v92h116v-90c0 -183 -103 -260 -262 -249l-3 -6c73 -82 135 -242 135 -424v-220zM248 789v-225c0 -311 167 -477 405 -477
c239 0 405 166 405 477v225c0 311 -167 488 -405 488c-237 0 -405 -177 -405 -488z" />
    <glyph glyph-name="ohorn" unicode="&#x1a1;" horiz-adv-x="1092" 
d="M547 -17c-249 0 -436 160 -436 456v165c0 287 189 456 436 456c109 0 151 -38 257 -38c97 0 144 60 144 158v140h116v-131c0 -156 -63 -250 -206 -253v-7c65 -63 125 -185 125 -325v-165c0 -294 -190 -456 -436 -456zM547 949c-183 0 -311 -137 -311 -360v-136
c0 -226 123 -357 312 -357c186 0 309 130 309 357v136c0 223 -126 360 -310 360z" />
    <glyph glyph-name="Uhorn" unicode="&#x1af;" horiz-adv-x="1364" 
d="M660 -30c-305 0 -502 203 -502 505v888h128v-891c0 -233 139 -385 374 -385c234 0 374 151 374 385v891h128c106 0 146 63 146 157v99h114v-97c0 -152 -81 -255 -231 -255h-30v-795c0 -302 -196 -502 -501 -502z" />
    <glyph glyph-name="uhorn" unicode="&#x1b0;" horiz-adv-x="1194" 
d="M832 185c-31 -90 -132 -202 -323 -202c-204 0 -357 97 -357 338v722h127v-693c0 -179 108 -257 256 -257c184 0 305 143 305 297v653h120c105 0 145 63 145 157v120h116v-118c0 -154 -81 -253 -238 -253h-17v-949h-126v185h-8z" />
    <glyph glyph-name="Acaron" unicode="&#x1cd;" horiz-adv-x="1172" 
d="M165 0h-132l490 1363h126l489 -1363h-137l-149 436h-537zM585 1206h-4l-230 -665h464zM278 1714h125l183 -145h5l184 145h124l-272 -211h-75z" />
    <glyph glyph-name="acaron" unicode="&#x1ce;" horiz-adv-x="1038" 
d="M756 152c-43 -77 -143 -169 -316 -169c-203 0 -341 122 -341 313c0 178 124 298 361 298h295v137c0 151 -93 216 -246 216c-164 0 -233 -80 -245 -176h-123c10 165 130 289 375 289c224 0 366 -101 366 -324v-736h-122v152h-4zM467 93c161 0 288 110 288 262v132h-291
c-164 0 -234 -78 -234 -188c0 -136 108 -206 237 -206zM264 1510h107l146 -223h3l140 225h108l-207 -307h-83z" />
    <glyph glyph-name="Icaron" unicode="&#x1cf;" horiz-adv-x="493" 
d="M310 0h-127v1363h127v-1363zM-62 1714h125l183 -145h5l184 145h124l-272 -211h-75z" />
    <glyph glyph-name="icaron" unicode="&#x1d0;" horiz-adv-x="483" 
d="M-13 1510h107l146 -223h3l140 225h108l-207 -307h-83zM178 0v1043h126v-1043h-126z" />
    <glyph glyph-name="Ocaron" unicode="&#x1d1;" horiz-adv-x="1307" 
d="M345 1714h125l183 -145h5l184 145h124l-272 -211h-75zM248 789v-225c0 -311 167 -477 405 -477c239 0 405 166 405 477v225c0 311 -167 488 -405 488c-237 0 -405 -177 -405 -488zM122 566v221c0 376 206 606 532 606c328 0 531 -231 531 -607v-220
c0 -375 -206 -596 -533 -596c-328 0 -530 221 -530 596z" />
    <glyph glyph-name="ocaron" unicode="&#x1d2;" horiz-adv-x="1094" 
d="M293 1510h107l146 -223h3l140 225h108l-207 -307h-83zM547 1060c282 0 436 -191 436 -484v-110c0 -294 -153 -483 -436 -483s-436 188 -436 483v110c0 287 152 484 436 484zM547 949c-213 0 -311 -164 -311 -387v-81c0 -226 97 -385 312 -385c213 0 309 158 309 385v81
c0 222 -97 387 -310 387z" />
    <glyph glyph-name="Ucaron" unicode="&#x1d3;" horiz-adv-x="1319" 
d="M351 1714h125l183 -145h5l184 145h124l-272 -211h-75zM286 1363v-891c0 -233 139 -385 374 -385c234 0 374 151 374 385v891h127v-891c0 -302 -196 -502 -501 -502s-502 203 -502 505v888h128z" />
    <glyph glyph-name="ucaron" unicode="&#x1d4;" horiz-adv-x="1127" 
d="M309 1510h107l146 -223h3l140 225h108l-207 -307h-83zM966 1043v-1043h-126v159h-5c-37 -89 -138 -176 -317 -176c-210 0 -366 120 -366 358v702h127v-668c0 -194 114 -277 270 -277c180 0 291 129 291 305v640h126z" />
    <glyph glyph-name="Udieresismacron" unicode="&#x1d5;" horiz-adv-x="1319" 
d="M468 1579c0 40 30 71 69 71c40 0 70 -31 70 -71c0 -38 -30 -71 -70 -71c-39 0 -69 33 -69 71zM752 1579c0 40 31 71 70 71c40 0 69 -31 69 -71c0 -38 -29 -71 -69 -71c-39 0 -70 33 -70 71zM286 1363v-891c0 -233 139 -385 374 -385c234 0 374 151 374 385v891h127v-891
c0 -302 -196 -502 -501 -502s-502 203 -502 505v888h128zM929 1802h-540v77h540v-77z" />
    <glyph glyph-name="udieresismacron" unicode="&#x1d6;" horiz-adv-x="1127" 
d="M966 1043v-1043h-126v159h-5c-37 -89 -138 -176 -317 -176c-210 0 -366 120 -366 358v702h127v-668c0 -194 114 -277 270 -277c180 0 291 129 291 305v640h126zM324 1264c0 48 35 83 79 83c46 0 81 -35 81 -83c0 -45 -35 -82 -81 -82c-44 0 -79 37 -79 82zM643 1264
c0 48 36 83 79 83c47 0 82 -35 82 -83c0 -45 -35 -82 -82 -82c-43 0 -79 37 -79 82zM833 1509h-546v84h546v-84z" />
    <glyph glyph-name="Udieresisacute" unicode="&#x1d7;" horiz-adv-x="1319" 
d="M563 1723l268 213h148l-297 -213h-119zM468 1579c0 40 30 71 69 71c40 0 70 -31 70 -71c0 -38 -30 -71 -70 -71c-39 0 -69 33 -69 71zM752 1579c0 40 31 71 70 71c40 0 69 -31 69 -71c0 -38 -29 -71 -69 -71c-39 0 -70 33 -70 71zM286 1363v-891
c0 -233 139 -385 374 -385c234 0 374 151 374 385v891h127v-891c0 -302 -196 -502 -501 -502s-502 203 -502 505v888h128z" />
    <glyph glyph-name="udieresisacute" unicode="&#x1d8;" horiz-adv-x="1127" 
d="M581 1458h-100l202 279h134zM966 1043v-1043h-126v159h-5c-37 -89 -138 -176 -317 -176c-210 0 -366 120 -366 358v702h127v-668c0 -194 114 -277 270 -277c180 0 291 129 291 305v640h126zM324 1264c0 48 35 83 79 83c46 0 81 -35 81 -83c0 -45 -35 -82 -81 -82
c-44 0 -79 37 -79 82zM643 1264c0 48 36 83 79 83c47 0 82 -35 82 -83c0 -45 -35 -82 -82 -82c-43 0 -79 37 -79 82z" />
    <glyph glyph-name="Udieresiscaron" unicode="&#x1d9;" horiz-adv-x="1319" 
d="M468 1579c0 40 30 71 69 71c40 0 70 -31 70 -71c0 -38 -30 -71 -70 -71c-39 0 -69 33 -69 71zM752 1579c0 40 31 71 70 71c40 0 69 -31 69 -71c0 -38 -29 -71 -69 -71c-39 0 -70 33 -70 71zM351 1973h125l183 -145h5l184 145h124l-272 -211h-75zM286 1363v-891
c0 -233 139 -385 374 -385c234 0 374 151 374 385v891h127v-891c0 -302 -196 -502 -501 -502s-502 203 -502 505v888h128z" />
    <glyph glyph-name="udieresiscaron" unicode="&#x1da;" horiz-adv-x="1127" 
d="M309 1782h107l146 -223h3l140 225h108l-207 -307h-83zM966 1043v-1043h-126v159h-5c-37 -89 -138 -176 -317 -176c-210 0 -366 120 -366 358v702h127v-668c0 -194 114 -277 270 -277c180 0 291 129 291 305v640h126zM324 1264c0 48 35 83 79 83c46 0 81 -35 81 -83
c0 -45 -35 -82 -81 -82c-44 0 -79 37 -79 82zM643 1264c0 48 36 83 79 83c47 0 82 -35 82 -83c0 -45 -35 -82 -82 -82c-43 0 -79 37 -79 82z" />
    <glyph glyph-name="Udieresisgrave" unicode="&#x1db;" horiz-adv-x="1319" 
d="M759 1724h-119l-298 213h149zM468 1579c0 40 30 71 69 71c40 0 70 -31 70 -71c0 -38 -30 -71 -70 -71c-39 0 -69 33 -69 71zM752 1579c0 40 31 71 70 71c40 0 69 -31 69 -71c0 -38 -29 -71 -69 -71c-39 0 -70 33 -70 71zM286 1363v-891c0 -233 139 -385 374 -385
c234 0 374 151 374 385v891h127v-891c0 -302 -196 -502 -501 -502s-502 203 -502 505v888h128z" />
    <glyph glyph-name="udieresisgrave" unicode="&#x1dc;" horiz-adv-x="1127" 
d="M647 1458h-99l-236 279h135zM966 1043v-1043h-126v159h-5c-37 -89 -138 -176 -317 -176c-210 0 -366 120 -366 358v702h127v-668c0 -194 114 -277 270 -277c180 0 291 129 291 305v640h126zM324 1264c0 48 35 83 79 83c46 0 81 -35 81 -83c0 -45 -35 -82 -81 -82
c-44 0 -79 37 -79 82zM643 1264c0 48 36 83 79 83c47 0 82 -35 82 -83c0 -45 -35 -82 -82 -82c-43 0 -79 37 -79 82z" />
    <glyph glyph-name="Adieresismacron" unicode="&#x1de;" horiz-adv-x="1172" 
d="M165 0h-132l490 1363h126l489 -1363h-137l-149 436h-537zM585 1206h-4l-230 -665h464zM395 1579c0 40 30 71 69 71c40 0 70 -31 70 -71c0 -38 -30 -71 -70 -71c-39 0 -69 33 -69 71zM679 1579c0 40 31 71 70 71c40 0 69 -31 69 -71c0 -38 -29 -71 -69 -71
c-39 0 -70 33 -70 71zM856 1802h-540v77h540v-77z" />
    <glyph glyph-name="adieresismacron" unicode="&#x1df;" horiz-adv-x="1038" 
d="M756 152c-43 -77 -143 -169 -316 -169c-203 0 -341 122 -341 313c0 178 124 298 361 298h295v137c0 151 -93 216 -246 216c-164 0 -233 -80 -245 -176h-123c10 165 130 289 375 289c224 0 366 -101 366 -324v-736h-122v152h-4zM467 93c161 0 288 110 288 262v132h-291
c-164 0 -234 -78 -234 -188c0 -136 108 -206 237 -206zM279 1264c0 48 35 83 79 83c46 0 81 -35 81 -83c0 -45 -35 -82 -81 -82c-44 0 -79 37 -79 82zM598 1264c0 48 36 83 79 83c47 0 82 -35 82 -83c0 -45 -35 -82 -82 -82c-43 0 -79 37 -79 82zM788 1509h-546v84h546v-84z
" />
    <glyph glyph-name="Adotmacron" unicode="&#x1e0;" horiz-adv-x="1172" 
d="M165 0h-132l490 1363h126l489 -1363h-137l-149 436h-537zM585 1206h-4l-230 -665h464zM501 1621c0 50 38 88 85 88c51 0 89 -38 89 -88c0 -49 -38 -85 -89 -85c-47 0 -85 36 -85 85zM856 1802h-540v77h540v-77z" />
    <glyph glyph-name="adotmacron" unicode="&#x1e1;" horiz-adv-x="1038" 
d="M756 152c-43 -77 -143 -169 -316 -169c-203 0 -341 122 -341 313c0 178 124 298 361 298h295v137c0 151 -93 216 -246 216c-164 0 -233 -80 -245 -176h-123c10 165 130 289 375 289c224 0 366 -101 366 -324v-736h-122v152h-4zM467 93c161 0 288 110 288 262v132h-291
c-164 0 -234 -78 -234 -188c0 -136 108 -206 237 -206zM433 1301c0 50 38 88 85 88c51 0 89 -38 89 -88c0 -49 -38 -85 -89 -85c-47 0 -85 36 -85 85zM788 1509h-546v84h546v-84z" />
    <glyph glyph-name="AEmacron" unicode="&#x1e2;" horiz-adv-x="1835" 
d="M862 1246l-383 -678h454v678h-71zM933 460h-513l-260 -460h-143l776 1363h929v-117h-661v-491h625v-115h-625v-524h661v-116h-789v460zM1603 1533h-540v77h540v-77z" />
    <glyph glyph-name="aemacron" unicode="&#x1e3;" horiz-adv-x="1695" 
d="M1187 -17c-207 0 -337 102 -376 229h-10c-40 -116 -159 -229 -357 -229c-206 0 -346 120 -346 314c0 189 132 302 366 302h293v123c0 156 -108 225 -251 225c-157 0 -226 -69 -245 -144h-122c14 159 153 257 374 257c139 0 271 -53 322 -169h10c60 112 189 169 329 169
c245 0 409 -173 409 -466v-102h-699v-76c0 -192 116 -320 302 -320c153 0 236 80 254 154h133c-15 -108 -133 -267 -386 -267zM1174 949c-169 0 -290 -129 -290 -328v-29h573v20c0 211 -108 337 -283 337zM469 93c160 0 288 110 288 262v137h-291c-164 0 -242 -80 -242 -191
c0 -136 115 -208 245 -208zM1117 1224h-546v84h546v-84z" />
    <glyph glyph-name="Gcaron" unicode="&#x1e6;" horiz-adv-x="1266" 
d="M338 1714h125l183 -145h5l184 145h124l-272 -211h-75zM1140 975h-126c-18 182 -159 302 -363 302c-228 0 -402 -159 -402 -488v-205c0 -302 135 -497 398 -497c219 0 373 127 373 326v158h-382v117h506v-275c0 -205 -145 -443 -495 -443c-353 0 -527 246 -527 614v205
c0 378 209 604 532 604c311 0 474 -202 486 -418z" />
    <glyph glyph-name="gcaron" unicode="&#x1e7;" horiz-adv-x="1102" 
d="M296 1510h107l146 -223h3l140 225h108l-207 -307h-83zM524 -268c200 0 306 106 306 276v196h-4c-34 -80 -140 -186 -315 -186c-231 0 -411 171 -411 442v153c0 277 184 447 413 447c193 0 281 -103 317 -182h4v165h121v-1030c0 -259 -169 -394 -436 -394
s-385 150 -393 293h131c10 -86 90 -180 267 -180zM532 949c-178 0 -306 -132 -306 -360v-109c0 -222 131 -350 307 -350c192 0 296 163 296 340v121c0 197 -112 358 -297 358z" />
    <glyph glyph-name="Kcaron" unicode="&#x1e8;" horiz-adv-x="1147" 
d="M1101 1363l-531 -590l561 -773h-164l-492 685l-171 -184v-501h-127v1363h127v-693h5l637 693h155zM248 1714h125l183 -145h5l184 145h124l-272 -211h-75z" />
    <glyph glyph-name="kcaron" unicode="&#x1e9;" horiz-adv-x="995" 
d="M-30 1903h107l146 -223h3l140 225h108l-207 -307h-83zM290 405v-405h-126v1436h126v-888h5l490 501h150l-435 -450l458 -599h-153l-397 518z" />
    <glyph glyph-name="Oogonek" unicode="&#x1ea;" horiz-adv-x="1307" 
d="M248 789v-225c0 -311 167 -477 405 -477c239 0 405 166 405 477v225c0 311 -167 488 -405 488c-237 0 -405 -177 -405 -488zM643 -30c-315 0 -521 222 -521 596v221c0 376 206 606 532 606c328 0 531 -231 531 -607v-220c0 -245 -83 -389 -182 -491
c-82 -87 -165 -155 -165 -246c0 -72 52 -108 123 -108c26 0 55 4 79 12v-94c-14 -7 -46 -19 -107 -19c-105 0 -207 58 -207 185c0 77 36 148 108 205l-4 6c-61 -33 -117 -46 -187 -46z" />
    <glyph glyph-name="oogonek" unicode="&#x1eb;" horiz-adv-x="1094" 
d="M547 949c-183 0 -311 -137 -311 -359v-137c0 -225 122 -357 312 -357c187 0 309 131 309 357v137c0 222 -127 359 -310 359zM682 23c-41 -26 -91 -40 -153 -40c-232 0 -418 162 -418 449v172c0 287 189 456 439 456c241 0 433 -163 433 -456v-165
c0 -179 -70 -288 -147 -370c-75 -78 -145 -140 -145 -230c0 -69 50 -112 123 -112c26 0 57 5 78 12v-95c-10 -4 -51 -18 -108 -18c-103 0 -205 56 -205 186c0 78 40 148 108 204z" />
    <glyph glyph-name="Oogonekmacron" unicode="&#x1ec;" horiz-adv-x="1307" 
d="M248 789v-225c0 -311 167 -477 405 -477c239 0 405 166 405 477v225c0 311 -167 488 -405 488c-237 0 -405 -177 -405 -488zM643 -30c-315 0 -521 222 -521 596v221c0 376 206 606 532 606c328 0 531 -231 531 -607v-220c0 -245 -83 -389 -182 -491
c-82 -87 -165 -155 -165 -246c0 -72 52 -108 123 -108c26 0 55 4 79 12v-94c-14 -7 -46 -19 -107 -19c-105 0 -207 58 -207 185c0 77 36 148 108 205l-4 6c-61 -33 -117 -46 -187 -46zM923 1533h-540v77h540v-77z" />
    <glyph glyph-name="oogonekmacron" unicode="&#x1ed;" horiz-adv-x="1094" 
d="M547 949c-183 0 -311 -137 -311 -359v-137c0 -225 122 -357 312 -357c187 0 309 131 309 357v137c0 222 -127 359 -310 359zM682 23c-41 -26 -91 -40 -153 -40c-232 0 -418 162 -418 449v172c0 287 189 456 439 456c241 0 433 -163 433 -456v-165
c0 -179 -70 -288 -147 -370c-75 -78 -145 -140 -145 -230c0 -69 50 -112 123 -112c26 0 57 5 78 12v-95c-10 -4 -51 -18 -108 -18c-103 0 -205 56 -205 186c0 78 40 148 108 204zM817 1224h-546v84h546v-84z" />
    <glyph glyph-name="Gacute" unicode="&#x1f4;" horiz-adv-x="1266" 
d="M550 1513l268 213h148l-297 -213h-119zM1140 975h-126c-18 182 -159 302 -363 302c-228 0 -402 -159 -402 -488v-205c0 -302 135 -497 398 -497c219 0 373 127 373 326v158h-382v117h506v-275c0 -205 -145 -443 -495 -443c-353 0 -527 246 -527 614v205
c0 378 209 604 532 604c311 0 474 -202 486 -418z" />
    <glyph glyph-name="gacute" unicode="&#x1f5;" horiz-adv-x="1102" 
d="M568 1210h-100l202 279h134zM524 -268c200 0 306 106 306 276v196h-4c-34 -80 -140 -186 -315 -186c-231 0 -411 171 -411 442v153c0 277 184 447 413 447c193 0 281 -103 317 -182h4v165h121v-1030c0 -259 -169 -394 -436 -394s-385 150 -393 293h131
c10 -86 90 -180 267 -180zM532 949c-178 0 -306 -132 -306 -360v-109c0 -222 131 -350 307 -350c192 0 296 163 296 340v121c0 197 -112 358 -297 358z" />
    <glyph glyph-name="Ngrave" unicode="&#x1f8;" horiz-adv-x="1348" 
d="M773 1514h-119l-298 213h149zM304 0h-127v1363h128l735 -1143h4v1143h127v-1363h-128l-736 1143h-3v-1143z" />
    <glyph glyph-name="ngrave" unicode="&#x1f9;" horiz-adv-x="1131" 
d="M649 1210h-99l-236 279h135zM161 0v1043h126v-158h4c38 90 146 175 314 175c207 0 372 -130 372 -367v-693h-127v649c0 186 -93 296 -272 296c-190 0 -291 -128 -291 -317v-628h-126z" />
    <glyph glyph-name="Aringacute" unicode="&#x1fa;" horiz-adv-x="1173" 
d="M547 1642l315 250h156l-326 -250h-145zM475 1510c0 -60 52 -111 111 -111c61 0 110 51 110 111c0 61 -49 110 -110 110c-59 0 -111 -49 -111 -110zM816 541l-229 665h-6l-229 -665h464zM165 0h-131l482 1342c-66 27 -112 92 -112 168c0 99 80 179 182 179
c98 0 179 -80 179 -179c0 -75 -45 -139 -109 -166l483 -1344h-137l-150 436h-537z" />
    <glyph glyph-name="aringacute" unicode="&#x1fb;" horiz-adv-x="1038" 
d="M650 1496h-103l248 337h145zM756 152c-43 -77 -143 -169 -316 -169c-203 0 -341 122 -341 313c0 178 124 298 361 298h295v137c0 151 -93 216 -246 216c-164 0 -233 -80 -245 -176h-123c10 165 130 289 375 289c224 0 366 -101 366 -324v-736h-122v152h-4zM467 93
c161 0 288 110 288 262v132h-291c-164 0 -234 -78 -234 -188c0 -136 108 -206 237 -206zM525 1192c-101 0 -181 78 -181 178s80 177 181 177c99 0 179 -77 179 -177s-80 -178 -179 -178zM416 1370c0 -60 49 -110 109 -110c61 0 108 50 108 110c0 61 -47 110 -108 110
c-60 0 -109 -49 -109 -110z" />
    <glyph glyph-name="AEacute" unicode="&#x1fc;" horiz-adv-x="1835" 
d="M1237 1513l268 213h148l-297 -213h-119zM862 1246l-383 -678h454v678h-71zM933 460h-513l-260 -460h-143l776 1363h929v-117h-661v-491h625v-115h-625v-524h661v-116h-789v460z" />
    <glyph glyph-name="aeacute" unicode="&#x1fd;" horiz-adv-x="1695" 
d="M865 1210h-100l202 279h134zM1187 -17c-207 0 -337 102 -376 229h-10c-40 -116 -159 -229 -357 -229c-206 0 -346 120 -346 314c0 189 132 302 366 302h293v123c0 156 -108 225 -251 225c-157 0 -226 -69 -245 -144h-122c14 159 153 257 374 257c139 0 271 -53 322 -169
h10c60 112 189 169 329 169c245 0 409 -173 409 -466v-102h-699v-76c0 -192 116 -320 302 -320c153 0 236 80 254 154h133c-15 -108 -133 -267 -386 -267zM1174 949c-169 0 -290 -129 -290 -328v-29h573v20c0 211 -108 337 -283 337zM469 93c160 0 288 110 288 262v137h-291
c-164 0 -242 -80 -242 -191c0 -136 115 -208 245 -208z" />
    <glyph glyph-name="Oslashacute" unicode="&#x1fe;" horiz-adv-x="1307" 
d="M652 -30c-167 0 -301 58 -392 165l-106 -129l-75 62l122 149c-51 93 -79 211 -79 349v221c0 376 205 606 532 606c162 0 293 -57 384 -158l107 129l79 -56l-127 -153c57 -98 88 -222 88 -368v-221c0 -375 -206 -596 -533 -596zM248 564c0 -92 15 -171 42 -238l666 809
c-71 91 -176 142 -303 142c-238 0 -405 -177 -405 -488v-225zM653 87c239 0 405 166 405 477v225c0 100 -17 186 -49 257l-668 -812c72 -96 180 -147 312 -147zM557 1513l268 213h148l-297 -213h-119z" />
    <glyph glyph-name="oslashacute" unicode="&#x1ff;" horiz-adv-x="1094" 
d="M337 168c53 -50 126 -75 211 -75c186 0 311 133 311 360v157c0 72 -14 134 -40 184zM233 432c0 -75 16 -138 42 -189l483 628c-52 53 -126 81 -211 81c-183 0 -314 -140 -314 -363v-157zM547 -17c-105 0 -202 33 -276 96l-102 -135l-76 56l110 145
c-58 75 -92 174 -92 294v165c0 287 189 456 436 456c105 0 203 -35 277 -101l111 143l74 -57l-117 -151c57 -76 91 -173 91 -290v-165c0 -294 -190 -456 -436 -456zM565 1210h-100l202 279h134z" />
    <glyph glyph-name="Adblgrave" unicode="&#x200;" horiz-adv-x="1172" 
d="M165 0h-132l490 1363h126l489 -1363h-137l-149 436h-537zM585 1206h-4l-230 -665h464zM807 1514h-120l-298 223h136zM522 1514h-120l-298 223h136z" />
    <glyph glyph-name="adblgrave" unicode="&#x201;" horiz-adv-x="1038" 
d="M756 152c-43 -77 -143 -169 -316 -169c-203 0 -341 122 -341 313c0 178 124 298 361 298h295v137c0 151 -93 216 -246 216c-164 0 -233 -80 -245 -176h-123c10 165 130 289 375 289c224 0 366 -101 366 -324v-736h-122v152h-4zM467 93c161 0 288 110 288 262v132h-291
c-164 0 -234 -78 -234 -188c0 -136 108 -206 237 -206zM360 1208l-250 305h120l219 -305h-89zM605 1208l-251 305h120l219 -305h-88z" />
    <glyph glyph-name="Ainvertedbreve" unicode="&#x202;" horiz-adv-x="1172" 
d="M165 0h-132l490 1363h126l489 -1363h-137l-149 436h-537zM585 1206h-4l-230 -665h464zM586 1663c-124 0 -203 -70 -203 -157h-95c0 119 85 247 298 247s295 -129 295 -247h-95c0 87 -76 157 -200 157z" />
    <glyph glyph-name="ainvertedbreve" unicode="&#x203;" horiz-adv-x="1038" 
d="M756 152c-43 -77 -143 -169 -316 -169c-203 0 -341 122 -341 313c0 178 124 298 361 298h295v137c0 151 -93 216 -246 216c-164 0 -233 -80 -245 -176h-123c10 165 130 289 375 289c224 0 366 -101 366 -324v-736h-122v152h-4zM467 93c161 0 288 110 288 262v132h-291
c-164 0 -234 -78 -234 -188c0 -136 108 -206 237 -206zM241 1199c0 118 83 257 277 257s275 -141 275 -257h-95c0 92 -57 171 -180 171s-183 -79 -183 -171h-94z" />
    <glyph glyph-name="Edblgrave" unicode="&#x204;" horiz-adv-x="1085" 
d="M792 1514h-120l-298 223h136zM507 1514h-120l-298 223h136zM972 116v-116h-795v1363h795v-117h-668v-491h633v-115h-633v-524h668z" />
    <glyph glyph-name="edblgrave" unicode="&#x205;" horiz-adv-x="1053" 
d="M541 -17c-285 0 -429 195 -429 482v101c0 295 144 494 417 494s417 -193 417 -492v-73h-708v-37c0 -203 98 -362 303 -362c170 0 241 95 258 176h132c-19 -125 -128 -289 -390 -289zM238 604h582v3c0 206 -111 342 -291 342s-291 -138 -291 -342v-3zM368 1208l-250 305
h120l219 -305h-89zM613 1208l-251 305h120l219 -305h-88z" />
    <glyph glyph-name="Einvertedbreve" unicode="&#x206;" horiz-adv-x="1085" 
d="M972 116v-116h-795v1363h795v-117h-668v-491h633v-115h-633v-524h668zM571 1663c-124 0 -203 -70 -203 -157h-95c0 119 85 247 298 247s295 -129 295 -247h-95c0 87 -76 157 -200 157z" />
    <glyph glyph-name="einvertedbreve" unicode="&#x207;" horiz-adv-x="1053" 
d="M541 -17c-285 0 -429 195 -429 482v101c0 295 144 494 417 494s417 -193 417 -492v-73h-708v-37c0 -203 98 -362 303 -362c170 0 241 95 258 176h132c-19 -125 -128 -289 -390 -289zM238 604h582v3c0 206 -111 342 -291 342s-291 -138 -291 -342v-3zM249 1199
c0 118 83 257 277 257s275 -141 275 -257h-95c0 92 -57 171 -180 171s-183 -79 -183 -171h-94z" />
    <glyph glyph-name="Idblgrave" unicode="&#x208;" horiz-adv-x="493" 
d="M310 0h-127v1363h127v-1363zM467 1514h-120l-298 223h136zM182 1514h-120l-298 223h136z" />
    <glyph glyph-name="idblgrave" unicode="&#x209;" horiz-adv-x="483" 
d="M178 0v1043h126v-1043h-126zM83 1208l-250 305h120l219 -305h-89zM328 1208l-251 305h120l219 -305h-88z" />
    <glyph glyph-name="Iinvertedbreve" unicode="&#x20a;" horiz-adv-x="493" 
d="M310 0h-127v1363h127v-1363zM246 1663c-124 0 -203 -70 -203 -157h-95c0 119 85 247 298 247s295 -129 295 -247h-95c0 87 -76 157 -200 157z" />
    <glyph glyph-name="iinvertedbreve" unicode="&#x20b;" horiz-adv-x="483" 
d="M178 0v1043h126v-1043h-126zM-36 1199c0 118 83 257 277 257s275 -141 275 -257h-95c0 92 -57 171 -180 171s-183 -79 -183 -171h-94z" />
    <glyph glyph-name="Odblgrave" unicode="&#x20c;" horiz-adv-x="1307" 
d="M874 1514h-120l-298 223h136zM589 1514h-120l-298 223h136zM248 789v-225c0 -311 167 -477 405 -477c239 0 405 166 405 477v225c0 311 -167 488 -405 488c-237 0 -405 -177 -405 -488zM122 566v221c0 376 206 606 532 606c328 0 531 -231 531 -607v-220
c0 -375 -206 -596 -533 -596c-328 0 -530 221 -530 596z" />
    <glyph glyph-name="odblgrave" unicode="&#x20d;" horiz-adv-x="1094" 
d="M547 1060c282 0 436 -191 436 -484v-110c0 -294 -153 -483 -436 -483s-436 188 -436 483v110c0 287 152 484 436 484zM547 949c-213 0 -311 -164 -311 -387v-81c0 -226 97 -385 312 -385c213 0 309 158 309 385v81c0 222 -97 387 -310 387zM389 1208l-250 305h120
l219 -305h-89zM634 1208l-251 305h120l219 -305h-88z" />
    <glyph glyph-name="Oinvertedbreve" unicode="&#x20e;" horiz-adv-x="1307" 
d="M653 1663c-124 0 -203 -70 -203 -157h-95c0 119 85 247 298 247s295 -129 295 -247h-95c0 87 -76 157 -200 157zM248 789v-225c0 -311 167 -477 405 -477c239 0 405 166 405 477v225c0 311 -167 488 -405 488c-237 0 -405 -177 -405 -488zM122 566v221
c0 376 206 606 532 606c328 0 531 -231 531 -607v-220c0 -375 -206 -596 -533 -596c-328 0 -530 221 -530 596z" />
    <glyph glyph-name="oinvertedbreve" unicode="&#x20f;" horiz-adv-x="1094" 
d="M547 1060c282 0 436 -191 436 -484v-110c0 -294 -153 -483 -436 -483s-436 188 -436 483v110c0 287 152 484 436 484zM547 949c-213 0 -311 -164 -311 -387v-81c0 -226 97 -385 312 -385c213 0 309 158 309 385v81c0 222 -97 387 -310 387zM270 1199
c0 118 83 257 277 257s275 -141 275 -257h-95c0 92 -57 171 -180 171s-183 -79 -183 -171h-94z" />
    <glyph glyph-name="Rdblgrave" unicode="&#x210;" horiz-adv-x="1198" 
d="M792 1514h-120l-298 223h136zM507 1514h-120l-298 223h136zM646 1363c283 0 423 -179 423 -394c0 -220 -130 -334 -269 -376l293 -593h-147l-274 567h-368v-567h-127v1363h469zM304 682h320c202 0 314 104 314 279c0 185 -120 287 -309 287h-325v-566z" />
    <glyph glyph-name="rdblgrave" unicode="&#x211;" horiz-adv-x="679" 
d="M173 0v1043h126v-149h4c27 73 90 165 276 165c28 0 52 -3 70 -5v-118c-15 3 -48 6 -85 6c-177 0 -265 -112 -265 -289v-653h-126zM231 1208l-250 305h120l219 -305h-89zM476 1208l-251 305h120l219 -305h-88z" />
    <glyph glyph-name="Rinvertedbreve" unicode="&#x212;" horiz-adv-x="1198" 
d="M646 1363c283 0 423 -179 423 -394c0 -220 -130 -334 -269 -376l293 -593h-147l-274 567h-368v-567h-127v1363h469zM304 682h320c202 0 314 104 314 279c0 185 -120 287 -309 287h-325v-566zM571 1663c-124 0 -203 -70 -203 -157h-95c0 119 85 247 298 247
s295 -129 295 -247h-95c0 87 -76 157 -200 157z" />
    <glyph glyph-name="rinvertedbreve" unicode="&#x213;" horiz-adv-x="679" 
d="M173 0v1043h126v-149h4c27 73 90 165 276 165c28 0 52 -3 70 -5v-118c-15 3 -48 6 -85 6c-177 0 -265 -112 -265 -289v-653h-126zM112 1199c0 118 83 257 277 257s275 -141 275 -257h-95c0 92 -57 171 -180 171s-183 -79 -183 -171h-94z" />
    <glyph glyph-name="Udblgrave" unicode="&#x214;" horiz-adv-x="1319" 
d="M880 1514h-120l-298 223h136zM595 1514h-120l-298 223h136zM286 1363v-891c0 -233 139 -385 374 -385c234 0 374 151 374 385v891h127v-891c0 -302 -196 -502 -501 -502s-502 203 -502 505v888h128z" />
    <glyph glyph-name="udblgrave" unicode="&#x215;" horiz-adv-x="1127" 
d="M966 1043v-1043h-126v159h-5c-37 -89 -138 -176 -317 -176c-210 0 -366 120 -366 358v702h127v-668c0 -194 114 -277 270 -277c180 0 291 129 291 305v640h126zM405 1208l-250 305h120l219 -305h-89zM650 1208l-251 305h120l219 -305h-88z" />
    <glyph glyph-name="Uinvertedbreve" unicode="&#x216;" horiz-adv-x="1319" 
d="M286 1363v-891c0 -233 139 -385 374 -385c234 0 374 151 374 385v891h127v-891c0 -302 -196 -502 -501 -502s-502 203 -502 505v888h128zM659 1663c-124 0 -203 -70 -203 -157h-95c0 119 85 247 298 247s295 -129 295 -247h-95c0 87 -76 157 -200 157z" />
    <glyph glyph-name="uinvertedbreve" unicode="&#x217;" horiz-adv-x="1127" 
d="M966 1043v-1043h-126v159h-5c-37 -89 -138 -176 -317 -176c-210 0 -366 120 -366 358v702h127v-668c0 -194 114 -277 270 -277c180 0 291 129 291 305v640h126zM286 1199c0 118 83 257 277 257s275 -141 275 -257h-95c0 92 -57 171 -180 171s-183 -79 -183 -171h-94z" />
    <glyph glyph-name="Scommaaccent" unicode="&#x218;" horiz-adv-x="1144" 
d="M77 357h129c10 -132 120 -270 363 -270c208 0 345 106 345 268c0 138 -87 205 -263 252l-217 57c-170 46 -314 147 -314 351c0 241 207 381 454 381c241 0 447 -131 452 -369h-129c-9 131 -110 252 -325 252c-191 0 -322 -96 -322 -256c0 -122 74 -196 222 -235l212 -58
c221 -60 360 -150 360 -366c0 -255 -214 -394 -490 -394c-352 0 -473 220 -477 387zM514 -486h-100l85 335h129z" />
    <glyph glyph-name="scommaaccent" unicode="&#x219;" horiz-adv-x="968" 
d="M114 760c0 204 171 300 369 300c251 0 360 -150 360 -299h-120c-4 81 -59 194 -245 194c-135 0 -239 -64 -239 -183c0 -129 124 -158 265 -188c195 -40 363 -88 363 -289c0 -205 -171 -312 -397 -312c-243 0 -381 127 -381 291h124c10 -93 86 -184 262 -184
c170 0 267 75 267 191c0 131 -129 160 -279 192c-199 44 -349 93 -349 287zM444 -486h-100l85 335h129z" />
    <glyph glyph-name="Tcommaaccent" unicode="&#x21a;" horiz-adv-x="1033" 
d="M477 -486h-100l85 335h129zM579 0h-126v1247h-435v116h997v-116h-436v-1247z" />
    <glyph glyph-name="tcommaaccent" unicode="&#x21b;" horiz-adv-x="651" 
d="M358 -486h-100l85 335h129zM210 1043v259h126v-259h236v-108h-236v-672c0 -128 48 -162 181 -162c22 0 50 1 65 3v-104c-15 -3 -55 -7 -91 -7c-228 0 -281 84 -281 280v662h-162v108h162z" />
    <glyph glyph-name="Hcaron" unicode="&#x21e;" horiz-adv-x="1348" 
d="M1171 0h-127v652h-740v-652h-127v1363h127v-595h740v595h127v-1363zM365 1714h125l183 -145h5l184 145h124l-272 -211h-75z" />
    <glyph glyph-name="hcaron" unicode="&#x21f;" horiz-adv-x="1141" 
d="M164 0v1436h126v-551h5c32 80 128 175 308 175c227 0 381 -160 381 -399v-661h-126v638c0 176 -93 307 -273 307c-189 0 -295 -133 -295 -321v-624h-126zM-30 1903h107l146 -223h3l140 225h108l-207 -307h-83z" />
    <glyph glyph-name="Adotaccent" unicode="&#x226;" horiz-adv-x="1172" 
d="M165 0h-132l490 1363h126l489 -1363h-137l-149 436h-537zM585 1206h-4l-230 -665h464zM501 1621c0 50 38 88 85 88c51 0 89 -38 89 -88c0 -49 -38 -85 -89 -85c-47 0 -85 36 -85 85z" />
    <glyph glyph-name="adotaccent" unicode="&#x227;" horiz-adv-x="1038" 
d="M756 152c-43 -77 -143 -169 -316 -169c-203 0 -341 122 -341 313c0 178 124 298 361 298h295v137c0 151 -93 216 -246 216c-164 0 -233 -80 -245 -176h-123c10 165 130 289 375 289c224 0 366 -101 366 -324v-736h-122v152h-4zM467 93c161 0 288 110 288 262v132h-291
c-164 0 -234 -78 -234 -188c0 -136 108 -206 237 -206zM433 1301c0 50 38 88 85 88c51 0 89 -38 89 -88c0 -49 -38 -85 -89 -85c-47 0 -85 36 -85 85z" />
    <glyph glyph-name="Ecedilla" unicode="&#x228;" horiz-adv-x="1085" 
d="M558 -464c-58 -2 -114 8 -141 15v86c27 -8 81 -14 119 -14c62 0 132 23 132 90c0 70 -70 82 -152 82h-51v64l56 141h-344v1363h795v-117h-668v-491h633v-115h-633v-524h668v-116h-356l-49 -126c119 0 212 -47 212 -157c0 -124 -106 -177 -221 -181z" />
    <glyph glyph-name="ecedilla" unicode="&#x229;" horiz-adv-x="1053" 
d="M238 604h582v3c0 206 -111 342 -291 342s-291 -138 -291 -342v-3zM531 -478c-57 -2 -114 8 -140 16v85c27 -8 81 -14 119 -14c62 0 132 23 132 90c0 71 -71 82 -152 82h-51v64l55 140c-253 20 -382 208 -382 480v101c0 295 144 494 417 494s417 -193 417 -492v-73h-708
v-37c0 -203 98 -362 303 -362c170 0 241 95 258 176h132c-18 -117 -114 -269 -342 -288l-48 -124c119 0 211 -47 211 -157c0 -123 -106 -177 -221 -181z" />
    <glyph glyph-name="Odieresismacron" unicode="&#x22a;" horiz-adv-x="1307" 
d="M462 1579c0 40 30 71 69 71c40 0 70 -31 70 -71c0 -38 -30 -71 -70 -71c-39 0 -69 33 -69 71zM746 1579c0 40 31 71 70 71c40 0 69 -31 69 -71c0 -38 -29 -71 -69 -71c-39 0 -70 33 -70 71zM248 789v-225c0 -311 167 -477 405 -477c239 0 405 166 405 477v225
c0 311 -167 488 -405 488c-237 0 -405 -177 -405 -488zM122 566v221c0 376 206 606 532 606c328 0 531 -231 531 -607v-220c0 -375 -206 -596 -533 -596c-328 0 -530 221 -530 596zM923 1802h-540v77h540v-77z" />
    <glyph glyph-name="odieresismacron" unicode="&#x22b;" horiz-adv-x="1094" 
d="M308 1264c0 48 35 83 79 83c46 0 81 -35 81 -83c0 -45 -35 -82 -81 -82c-44 0 -79 37 -79 82zM627 1264c0 48 36 83 79 83c47 0 82 -35 82 -83c0 -45 -35 -82 -82 -82c-43 0 -79 37 -79 82zM547 1060c282 0 436 -191 436 -484v-110c0 -294 -153 -483 -436 -483
s-436 188 -436 483v110c0 287 152 484 436 484zM547 949c-213 0 -311 -164 -311 -387v-81c0 -226 97 -385 312 -385c213 0 309 158 309 385v81c0 222 -97 387 -310 387zM817 1509h-546v84h546v-84z" />
    <glyph glyph-name="Otildemacron" unicode="&#x22c;" horiz-adv-x="1307" 
d="M248 789v-225c0 -311 167 -477 405 -477c239 0 405 166 405 477v225c0 311 -167 488 -405 488c-237 0 -405 -177 -405 -488zM122 566v221c0 376 206 606 532 606c328 0 531 -231 531 -607v-220c0 -375 -206 -596 -533 -596c-328 0 -530 221 -530 596zM623 1554
c-26 30 -51 58 -88 58c-55 0 -71 -50 -73 -108h-83c0 104 50 187 156 187c56 0 94 -26 140 -75c28 -32 47 -54 85 -54c50 0 77 59 80 115h83c0 -96 -61 -189 -157 -189c-72 0 -106 27 -143 66zM923 1802h-540v77h540v-77z" />
    <glyph glyph-name="otildemacron" unicode="&#x22d;" horiz-adv-x="1094" 
d="M512 1243c-28 33 -56 66 -96 66c-58 0 -77 -57 -79 -122h-88c0 117 54 208 167 208c61 0 102 -28 150 -83c31 -36 53 -60 93 -60c54 0 84 66 87 128h87c0 -106 -65 -210 -168 -210c-77 0 -115 30 -153 73zM817 1509h-546v84h546v-84zM547 1060c282 0 436 -191 436 -484
v-110c0 -294 -153 -483 -436 -483s-436 188 -436 483v110c0 287 152 484 436 484zM547 949c-213 0 -311 -164 -311 -387v-81c0 -226 97 -385 312 -385c213 0 309 158 309 385v81c0 222 -97 387 -310 387z" />
    <glyph glyph-name="Odotaccent" unicode="&#x22e;" horiz-adv-x="1307" 
d="M568 1621c0 50 38 88 85 88c51 0 89 -38 89 -88c0 -49 -38 -85 -89 -85c-47 0 -85 36 -85 85zM248 789v-225c0 -311 167 -477 405 -477c239 0 405 166 405 477v225c0 311 -167 488 -405 488c-237 0 -405 -177 -405 -488zM122 566v221c0 376 206 606 532 606
c328 0 531 -231 531 -607v-220c0 -375 -206 -596 -533 -596c-328 0 -530 221 -530 596z" />
    <glyph glyph-name="odotaccent" unicode="&#x22f;" horiz-adv-x="1094" 
d="M462 1301c0 50 38 88 85 88c51 0 89 -38 89 -88c0 -49 -38 -85 -89 -85c-47 0 -85 36 -85 85zM547 1060c282 0 436 -191 436 -484v-110c0 -294 -153 -483 -436 -483s-436 188 -436 483v110c0 287 152 484 436 484zM547 949c-213 0 -311 -164 -311 -387v-81
c0 -226 97 -385 312 -385c213 0 309 158 309 385v81c0 222 -97 387 -310 387z" />
    <glyph glyph-name="Odotaccentmacron" unicode="&#x230;" horiz-adv-x="1307" 
d="M568 1621c0 50 38 88 85 88c51 0 89 -38 89 -88c0 -49 -38 -85 -89 -85c-47 0 -85 36 -85 85zM248 789v-225c0 -311 167 -477 405 -477c239 0 405 166 405 477v225c0 311 -167 488 -405 488c-237 0 -405 -177 -405 -488zM122 566v221c0 376 206 606 532 606
c328 0 531 -231 531 -607v-220c0 -375 -206 -596 -533 -596c-328 0 -530 221 -530 596zM923 1802h-540v77h540v-77z" />
    <glyph glyph-name="odotaccentmacron" unicode="&#x231;" horiz-adv-x="1094" 
d="M462 1301c0 50 38 88 85 88c51 0 89 -38 89 -88c0 -49 -38 -85 -89 -85c-47 0 -85 36 -85 85zM817 1509h-546v84h546v-84zM547 1060c282 0 436 -191 436 -484v-110c0 -294 -153 -483 -436 -483s-436 188 -436 483v110c0 287 152 484 436 484zM547 949
c-213 0 -311 -164 -311 -387v-81c0 -226 97 -385 312 -385c213 0 309 158 309 385v81c0 222 -97 387 -310 387z" />
    <glyph glyph-name="Ymacron" unicode="&#x232;" horiz-adv-x="1070" 
d="M598 0h-126v602l-462 761h147l375 -634h5l377 634h146l-462 -760v-603zM805 1533h-540v77h540v-77z" />
    <glyph glyph-name="ymacron" unicode="&#x233;" horiz-adv-x="983" 
d="M937 1043l-376 -1050l-34 -90c-55 -149 -123 -270 -311 -270c-35 0 -73 4 -99 9v108c19 -4 56 -7 81 -7c119 0 172 63 204 167l25 75l-390 1058h140l311 -913h6l309 913h134zM761 1224h-546v84h546v-84z" />
    <glyph glyph-name="circumflex" unicode="&#x2c6;" horiz-adv-x="888" 
d="M209 1207l215 306h82l208 -307h-108l-140 225h-3l-146 -224h-108z" />
    <glyph glyph-name="caron" unicode="&#x2c7;" horiz-adv-x="888" 
d="M184 1538h107l146 -223h3l140 225h108l-207 -307h-83z" />
    <glyph glyph-name="breve" unicode="&#x2d8;" horiz-adv-x="888" 
d="M164 1509h94c0 -92 60 -171 183 -171s180 79 180 171h95c-1 -116 -81 -257 -275 -257s-278 139 -277 257z" />
    <glyph glyph-name="dotaccent" unicode="&#x2d9;" horiz-adv-x="888" 
d="M370 1401c0 52 40 92 90 92c52 0 93 -40 93 -92c0 -51 -41 -90 -93 -90c-50 0 -90 39 -90 90z" />
    <glyph glyph-name="ring" unicode="&#x2da;" horiz-adv-x="888" 
d="M456 1226c-101 0 -181 78 -181 178s80 177 181 177c99 0 179 -77 179 -177s-80 -178 -179 -178zM347 1404c0 -60 49 -110 109 -110c61 0 108 50 108 110c0 61 -47 110 -108 110c-60 0 -109 -49 -109 -110z" />
    <glyph glyph-name="ogonek" unicode="&#x2db;" horiz-adv-x="888" 
d="M589 -261v-95c-13 -6 -49 -18 -113 -18c-97 0 -190 51 -190 173c0 125 119 217 162 274l93 -6c-56 -55 -143 -150 -143 -239c0 -67 46 -100 107 -100c23 0 59 4 84 11z" />
    <glyph glyph-name="tilde" unicode="&#x2dc;" horiz-adv-x="888" 
d="M371 1305c-28 33 -56 66 -96 66c-58 0 -77 -57 -79 -122h-88c0 117 54 208 167 208c61 0 102 -28 150 -83c31 -36 53 -60 93 -60c54 0 84 66 87 128h87c0 -106 -65 -210 -168 -210c-77 0 -115 30 -153 73z" />
    <glyph glyph-name="hungarumlaut" unicode="&#x2dd;" horiz-adv-x="888" 
d="M230 1208h-89l219 305h120zM475 1208h-90l219 305h120z" />
    <glyph glyph-name="gravecmb" unicode="&#x300;" 
d="M84 1210h-99l-236 279h135z" />
    <glyph glyph-name="acutecmb" unicode="&#x301;" 
d="M18 1210h-100l202 279h134z" />
    <glyph glyph-name="circumflexcmb" unicode="&#x302;" 
d="M-254 1220l215 306h82l208 -307h-108l-140 225h-3l-146 -224h-108z" />
    <glyph glyph-name="tildecmb" unicode="&#x303;" 
d="M-35 1243c-28 33 -56 66 -96 66c-58 0 -77 -57 -79 -122h-88c0 117 54 208 167 208c61 0 102 -28 150 -83c31 -36 53 -60 93 -60c54 0 84 66 87 128h87c0 -106 -65 -210 -168 -210c-77 0 -115 30 -153 73z" />
    <glyph glyph-name="macroncmb" unicode="&#x304;" 
d="M270 1224h-546v84h546v-84z" />
    <glyph glyph-name="brevecmb" unicode="&#x306;" 
d="M-279 1429h94c0 -92 60 -171 183 -171s180 79 180 171h95c-1 -116 -81 -257 -275 -257s-278 139 -277 257z" />
    <glyph glyph-name="dotaccentcmb" unicode="&#x307;" 
d="M-85 1301c0 50 38 88 85 88c51 0 89 -38 89 -88c0 -49 -38 -85 -89 -85c-47 0 -85 36 -85 85z" />
    <glyph glyph-name="dieresiscmb" unicode="&#x308;" 
d="M-239 1264c0 48 35 83 79 83c46 0 81 -35 81 -83c0 -45 -35 -82 -81 -82c-44 0 -79 37 -79 82zM80 1264c0 48 36 83 79 83c47 0 82 -35 82 -83c0 -45 -35 -82 -82 -82c-43 0 -79 37 -79 82z" />
    <glyph glyph-name="hookabovecmb" unicode="&#x309;" 
d="M-123 1430v86c20 11 60 21 107 21c121 0 201 -64 201 -172c0 -92 -68 -145 -139 -186l-54 71c64 37 94 69 94 113c0 52 -48 86 -108 86c-43 0 -79 -8 -101 -19z" />
    <glyph glyph-name="ringcmb" unicode="&#x30a;" 
d="M-181 1192c-101 0 -181 78 -181 178s80 177 181 177c99 0 179 -77 179 -177s-80 -178 -179 -178zM-290 1370c0 -60 49 -110 109 -110c61 0 108 50 108 110c0 61 -47 110 -108 110c-60 0 -109 -49 -109 -110z" />
    <glyph glyph-name="hungarumlautcmb" unicode="&#x30b;" 
d="M-100 1209h-89l219 305h120zM145 1209h-90l219 305h120z" />
    <glyph glyph-name="caroncmb" unicode="&#x30c;" 
d="M-254 1510h107l146 -223h3l140 225h108l-207 -307h-83z" />
    <glyph glyph-name="dblgravecmb" unicode="&#x30f;" 
d="M-158 1208l-250 305h120l219 -305h-89zM87 1208l-251 305h120l219 -305h-88z" />
    <glyph glyph-name="invertedbrevecmb" unicode="&#x311;" 
d="M-277 1199c0 118 83 257 277 257s275 -141 275 -257h-95c0 92 -57 171 -180 171s-183 -79 -183 -171h-94z" />
    <glyph glyph-name="horncmb" unicode="&#x31b;" 
d="M1 969v117c18 -19 50 -28 80 -28c105 0 145 63 145 157v140h116v-138c0 -152 -78 -271 -238 -271c-41 0 -78 5 -103 23z" />
    <glyph glyph-name="dotbelowcmb" unicode="&#x323;" 
d="M-87 -282c0 52 40 91 88 91c52 0 92 -39 92 -91c0 -50 -40 -88 -92 -88c-48 0 -88 38 -88 88z" />
    <glyph glyph-name="dieresisbelowcmb" unicode="&#x324;" 
d="M-240 -294c0 48 35 83 79 83c46 0 81 -35 81 -83c0 -45 -35 -82 -81 -82c-44 0 -79 37 -79 82zM79 -294c0 48 36 83 79 83c47 0 82 -35 82 -83c0 -45 -35 -82 -82 -82c-43 0 -79 37 -79 82z" />
    <glyph glyph-name="ringbelowcmb" unicode="&#x325;" 
d="M-1 -469c-101 0 -181 78 -181 178s80 177 181 177c99 0 179 -77 179 -177s-80 -178 -179 -178zM-110 -291c0 -60 49 -110 109 -110c61 0 108 50 108 110c0 61 -47 110 -108 110c-60 0 -109 -49 -109 -110z" />
    <glyph glyph-name="commabelowcmb" unicode="&#x326;" 
d="M-39 -486h-100l85 335h129z" />
    <glyph glyph-name="cedillacmb" unicode="&#x327;" 
d="M-106 -219v64l64 162h95l-57 -147c120 0 212 -47 212 -157c0 -123 -106 -177 -221 -181c-57 -2 -114 8 -140 16v85c26 -8 80 -14 118 -14c62 0 132 23 132 90c0 71 -70 82 -151 82h-52z" />
    <glyph glyph-name="ogonekcmb" unicode="&#x328;" 
d="M134 -261v-95c-13 -6 -49 -18 -113 -18c-97 0 -190 51 -190 173c0 125 119 217 162 274l93 -6c-56 -55 -143 -150 -143 -239c0 -67 46 -100 107 -100c23 0 59 4 84 11z" />
    <glyph glyph-name="circumflexbelowcmb" unicode="&#x32d;" 
d="M-255 -411l215 305h82l208 -307h-108l-140 225h-3l-146 -223h-108z" />
    <glyph glyph-name="brevebelowcmb" unicode="&#x32e;" 
d="M-291 -143h102c0 -92 64 -171 189 -171s186 79 186 171h96c0 -118 -78 -257 -282 -257s-291 135 -291 257z" />
    <glyph glyph-name="tildebelowcmb" unicode="&#x330;" 
d="M-32 -291c-28 32 -57 65 -96 65c-58 0 -77 -56 -79 -121h-88c0 117 53 208 166 208c62 0 102 -29 151 -84c31 -35 53 -60 93 -60c54 0 84 67 86 128h88c0 -106 -65 -210 -168 -210c-77 0 -115 30 -153 74z" />
    <glyph glyph-name="macronbelowcmb" unicode="&#x331;" 
d="M269 -307h-546v84h546v-84z" />
    <glyph glyph-name="Delta" unicode="&#x394;" horiz-adv-x="1173" 
d="M34 0l489 1363h127l489 -1363h-1105zM581 1206l-375 -1090h755l-374 1090h-6z" />
    <glyph glyph-name="Omega" unicode="&#x3a9;" horiz-adv-x="1307" 
d="M760 0v140c169 49 298 242 298 493v189c0 310 -167 455 -405 455c-237 0 -405 -145 -405 -455v-189c0 -246 125 -438 290 -490v-142h-432v111h275v19c-137 53 -259 237 -259 505v183c0 377 209 574 532 574c325 0 531 -197 531 -574v-183c0 -269 -130 -450 -268 -505v-22
h285v-109h-442z" />
    <glyph glyph-name="mu" unicode="&#x3bc;" horiz-adv-x="1150" 
d="M270 88h-7l17 -422h-128v1377h127v-693c0 -179 108 -257 256 -257c184 0 305 143 305 297v653h126v-843c0 -71 36 -103 93 -103c22 0 40 2 59 7v-104c-35 -7 -61 -10 -108 -10c-93 0 -164 61 -169 160l-1 35h-8c-31 -90 -132 -202 -323 -202c-91 0 -195 33 -239 105z" />
    <glyph glyph-name="pi" unicode="&#x3c0;" horiz-adv-x="1237" 
d="M1106 0c-24 -4 -52 -8 -96 -8c-110 0 -180 66 -180 169v773h-416v-934h-127v934h-238v109h1137v-109h-229v-747c0 -56 30 -89 88 -89c23 0 44 2 61 5v-103z" />
    <glyph glyph-name="Aringbelow" unicode="&#x1e00;" horiz-adv-x="1173" 
d="M165 0h-132l490 1363h126l489 -1363h-137l-149 436h-537zM585 1206h-4l-230 -665h464zM584 -438c-101 0 -181 78 -181 178s80 177 181 177c99 0 179 -77 179 -177s-80 -178 -179 -178zM475 -260c0 -60 49 -110 109 -110c61 0 108 50 108 110c0 61 -47 110 -108 110
c-60 0 -109 -49 -109 -110z" />
    <glyph glyph-name="aringbelow" unicode="&#x1e01;" horiz-adv-x="1038" 
d="M756 152c-43 -77 -143 -169 -316 -169c-203 0 -341 122 -341 313c0 178 124 298 361 298h295v137c0 151 -93 216 -246 216c-164 0 -233 -80 -245 -176h-123c10 165 130 289 375 289c224 0 366 -101 366 -324v-736h-122v152h-4zM467 93c161 0 288 110 288 262v132h-291
c-164 0 -234 -78 -234 -188c0 -136 108 -206 237 -206zM517 -469c-101 0 -181 78 -181 178s80 177 181 177c99 0 179 -77 179 -177s-80 -178 -179 -178zM408 -291c0 -60 49 -110 109 -110c61 0 108 50 108 110c0 61 -47 110 -108 110c-60 0 -109 -49 -109 -110z" />
    <glyph glyph-name="Bdotaccent" unicode="&#x1e02;" horiz-adv-x="1213" 
d="M177 0v1363h477c232 0 383 -124 383 -335c0 -179 -109 -274 -223 -307v-6c181 -23 301 -144 301 -339c0 -239 -181 -376 -465 -376h-473zM304 1247v-488h265c208 0 338 72 338 249c0 163 -112 239 -272 239h-331zM304 643v-527h291c230 0 389 61 389 257
c0 185 -137 270 -320 270h-360zM490 1621c0 50 38 88 85 88c51 0 89 -38 89 -88c0 -49 -38 -85 -89 -85c-47 0 -85 36 -85 85z" />
    <glyph glyph-name="bdotaccent" unicode="&#x1e03;" horiz-adv-x="1129" 
d="M139 1694c0 50 38 88 85 88c51 0 89 -38 89 -88c0 -49 -38 -85 -89 -85c-47 0 -85 36 -85 85zM608 -17c-186 0 -286 101 -321 191h-4v-174h-120v1436h126v-559h4c35 69 114 183 320 183c254 0 405 -185 405 -463v-149c0 -299 -166 -465 -410 -465zM595 96
c167 0 296 121 296 363v122c0 236 -119 368 -296 368c-194 0 -306 -162 -306 -357v-142c0 -184 101 -354 306 -354z" />
    <glyph glyph-name="Bdotbelow" unicode="&#x1e04;" horiz-adv-x="1213" 
d="M488 -282c0 52 40 91 88 91c52 0 92 -39 92 -91c0 -50 -40 -88 -92 -88c-48 0 -88 38 -88 88zM177 0v1363h477c232 0 383 -124 383 -335c0 -179 -109 -274 -223 -307v-6c181 -23 301 -144 301 -339c0 -239 -181 -376 -465 -376h-473zM304 1247v-488h265
c208 0 338 72 338 249c0 163 -112 239 -272 239h-331zM304 643v-527h291c230 0 389 61 389 257c0 185 -137 270 -320 270h-360z" />
    <glyph glyph-name="bdotbelow" unicode="&#x1e05;" horiz-adv-x="1129" 
d="M477 -282c0 52 40 91 88 91c52 0 92 -39 92 -91c0 -50 -40 -88 -92 -88c-48 0 -88 38 -88 88zM608 -17c-186 0 -286 101 -321 191h-4v-174h-120v1436h126v-559h4c35 69 114 183 320 183c254 0 405 -185 405 -463v-149c0 -299 -166 -465 -410 -465zM595 96
c167 0 296 121 296 363v122c0 236 -119 368 -296 368c-194 0 -306 -162 -306 -357v-142c0 -184 101 -354 306 -354z" />
    <glyph glyph-name="Blinebelow" unicode="&#x1e06;" horiz-adv-x="1213" 
d="M177 0v1363h477c232 0 383 -124 383 -335c0 -179 -109 -274 -223 -307v-6c181 -23 301 -144 301 -339c0 -239 -181 -376 -465 -376h-473zM304 1247v-488h265c208 0 338 72 338 249c0 163 -112 239 -272 239h-331zM304 643v-527h291c230 0 389 61 389 257
c0 185 -137 270 -320 270h-360zM844 -307h-546v84h546v-84z" />
    <glyph glyph-name="blinebelow" unicode="&#x1e07;" horiz-adv-x="1129" 
d="M833 -307h-546v84h546v-84zM608 -17c-186 0 -286 101 -321 191h-4v-174h-120v1436h126v-559h4c35 69 114 183 320 183c254 0 405 -185 405 -463v-149c0 -299 -166 -465 -410 -465zM595 96c167 0 296 121 296 363v122c0 236 -119 368 -296 368c-194 0 -306 -162 -306 -357
v-142c0 -184 101 -354 306 -354z" />
    <glyph glyph-name="Ccedillaacute" unicode="&#x1e08;" horiz-adv-x="1244" 
d="M547 1513l268 213h148l-297 -213h-119zM631 -481c-57 -2 -114 8 -140 16v85c26 -8 80 -14 118 -14c62 0 132 23 132 90c0 70 -70 82 -151 82h-52v64l52 131c-304 22 -468 249 -468 603v205c0 377 191 612 522 612c325 0 486 -235 486 -440v-1h-126
c0 151 -125 325 -360 325c-249 0 -395 -185 -395 -495v-208c0 -311 143 -487 400 -487c230 0 359 142 359 307h126v-1c0 -187 -146 -404 -450 -422l-44 -114c119 0 212 -47 212 -157c0 -124 -106 -177 -221 -181z" />
    <glyph glyph-name="ccedillaacute" unicode="&#x1e09;" horiz-adv-x="1021" 
d="M532 1210h-100l202 279h134zM521 -463c-58 -2 -114 7 -141 15v86c27 -8 81 -15 119 -15c62 0 132 23 132 91c0 70 -63 81 -145 81h-51v64l56 126c-242 19 -380 202 -380 470v137c0 278 158 468 421 468c252 0 386 -162 390 -314h-125c-13 92 -100 203 -264 203
c-194 0 -297 -153 -297 -366v-126c0 -212 112 -356 300 -356c168 0 246 88 267 179h124c-7 -129 -120 -275 -341 -295l-49 -110c119 0 205 -48 205 -158c0 -123 -106 -176 -221 -180z" />
    <glyph glyph-name="Ddotaccent" unicode="&#x1e0a;" horiz-adv-x="1289" 
d="M525 1621c0 50 38 88 85 88c51 0 89 -38 89 -88c0 -49 -38 -85 -89 -85c-47 0 -85 36 -85 85zM177 1363h402c437 0 602 -280 602 -682c0 -395 -157 -681 -602 -681h-402v1363zM304 1247v-1131h271c333 0 475 211 475 565c0 347 -138 566 -475 566h-271z" />
    <glyph glyph-name="ddotaccent" unicode="&#x1e0b;" horiz-adv-x="1130" 
d="M818 1694c0 50 38 88 85 88c51 0 89 -38 89 -88c0 -49 -38 -85 -89 -85c-47 0 -85 36 -85 85zM518 1061c186 0 286 -98 318 -183h4v558h125v-1436h-120v175h-4c-21 -77 -127 -192 -324 -192c-257 0 -407 187 -407 459v159c0 277 156 460 408 460zM532 948
c-185 0 -296 -143 -296 -373v-108c0 -225 108 -372 300 -372c194 0 304 152 304 370v117c0 216 -115 366 -308 366z" />
    <glyph glyph-name="Ddotbelow" unicode="&#x1e0c;" horiz-adv-x="1289" 
d="M523 -282c0 52 40 91 88 91c52 0 92 -39 92 -91c0 -50 -40 -88 -92 -88c-48 0 -88 38 -88 88zM177 1363h402c437 0 602 -280 602 -682c0 -395 -157 -681 -602 -681h-402v1363zM304 1247v-1131h271c333 0 475 211 475 565c0 347 -138 566 -475 566h-271z" />
    <glyph glyph-name="ddotbelow" unicode="&#x1e0d;" horiz-adv-x="1130" 
d="M477 -282c0 52 40 91 88 91c52 0 92 -39 92 -91c0 -50 -40 -88 -92 -88c-48 0 -88 38 -88 88zM518 1061c186 0 286 -98 318 -183h4v558h125v-1436h-120v175h-4c-21 -77 -127 -192 -324 -192c-257 0 -407 187 -407 459v159c0 277 156 460 408 460zM532 948
c-185 0 -296 -143 -296 -373v-108c0 -225 108 -372 300 -372c194 0 304 152 304 370v117c0 216 -115 366 -308 366z" />
    <glyph glyph-name="Dlinebelow" unicode="&#x1e0e;" horiz-adv-x="1289" 
d="M879 -307h-546v84h546v-84zM177 1363h402c437 0 602 -280 602 -682c0 -395 -157 -681 -602 -681h-402v1363zM304 1247v-1131h271c333 0 475 211 475 565c0 347 -138 566 -475 566h-271z" />
    <glyph glyph-name="dlinebelow" unicode="&#x1e0f;" horiz-adv-x="1130" 
d="M833 -307h-546v84h546v-84zM518 1061c186 0 286 -98 318 -183h4v558h125v-1436h-120v175h-4c-21 -77 -127 -192 -324 -192c-257 0 -407 187 -407 459v159c0 277 156 460 408 460zM532 948c-185 0 -296 -143 -296 -373v-108c0 -225 108 -372 300 -372
c194 0 304 152 304 370v117c0 216 -115 366 -308 366z" />
    <glyph glyph-name="Dcommaaccent" unicode="&#x1e10;" horiz-adv-x="1289" 
d="M571 -486h-100l85 335h129zM177 1363h402c437 0 602 -280 602 -682c0 -395 -157 -681 -602 -681h-402v1363zM304 1247v-1131h271c333 0 475 211 475 565c0 347 -138 566 -475 566h-271z" />
    <glyph glyph-name="dcommaaccent" unicode="&#x1e11;" horiz-adv-x="1130" 
d="M525 -486h-100l85 335h129zM518 1061c186 0 286 -98 318 -183h4v558h125v-1436h-120v175h-4c-21 -77 -127 -192 -324 -192c-257 0 -407 187 -407 459v159c0 277 156 460 408 460zM532 948c-185 0 -296 -143 -296 -373v-108c0 -225 108 -372 300 -372
c194 0 304 152 304 370v117c0 216 -115 366 -308 366z" />
    <glyph glyph-name="Dcircumflexbelow" unicode="&#x1e12;" horiz-adv-x="1289" 
d="M177 1363h402c437 0 602 -280 602 -682c0 -395 -157 -681 -602 -681h-402v1363zM304 1247v-1131h271c333 0 475 211 475 565c0 347 -138 566 -475 566h-271zM355 -411l215 305h82l208 -307h-108l-140 225h-3l-146 -223h-108z" />
    <glyph glyph-name="dcircumflexbelow" unicode="&#x1e13;" horiz-adv-x="1130" 
d="M518 1061c186 0 286 -98 318 -183h4v558h125v-1436h-120v175h-4c-21 -77 -127 -192 -324 -192c-257 0 -407 187 -407 459v159c0 277 156 460 408 460zM532 948c-185 0 -296 -143 -296 -373v-108c0 -225 108 -372 300 -372c194 0 304 152 304 370v117
c0 216 -115 366 -308 366zM309 -411l215 305h82l208 -307h-108l-140 225h-3l-146 -223h-108z" />
    <glyph glyph-name="Emacrongrave" unicode="&#x1e14;" horiz-adv-x="1085" 
d="M671 1724h-119l-298 213h149zM972 116v-116h-795v1363h795v-117h-668v-491h633v-115h-633v-524h668zM841 1533h-540v77h540v-77z" />
    <glyph glyph-name="emacrongrave" unicode="&#x1e15;" horiz-adv-x="1053" 
d="M610 1458h-99l-236 279h135zM541 -17c-285 0 -429 195 -429 482v101c0 295 144 494 417 494s417 -193 417 -492v-73h-708v-37c0 -203 98 -362 303 -362c170 0 241 95 258 176h132c-19 -125 -128 -289 -390 -289zM238 604h582v3c0 206 -111 342 -291 342
s-291 -138 -291 -342v-3zM796 1224h-546v84h546v-84z" />
    <glyph glyph-name="Emacronacute" unicode="&#x1e16;" horiz-adv-x="1085" 
d="M475 1723l268 213h148l-297 -213h-119zM972 116v-116h-795v1363h795v-117h-668v-491h633v-115h-633v-524h668zM841 1533h-540v77h540v-77z" />
    <glyph glyph-name="emacronacute" unicode="&#x1e17;" horiz-adv-x="1053" 
d="M544 1458h-100l202 279h134zM541 -17c-285 0 -429 195 -429 482v101c0 295 144 494 417 494s417 -193 417 -492v-73h-708v-37c0 -203 98 -362 303 -362c170 0 241 95 258 176h132c-19 -125 -128 -289 -390 -289zM238 604h582v3c0 206 -111 342 -291 342
s-291 -138 -291 -342v-3zM796 1224h-546v84h546v-84z" />
    <glyph glyph-name="Ecircumflexbelow" unicode="&#x1e18;" horiz-adv-x="1085" 
d="M972 116v-116h-795v1363h795v-117h-668v-491h633v-115h-633v-524h668zM316 -411l215 305h82l208 -307h-108l-140 225h-3l-146 -223h-108z" />
    <glyph glyph-name="ecircumflexbelow" unicode="&#x1e19;" horiz-adv-x="1053" 
d="M541 -17c-285 0 -429 195 -429 482v101c0 295 144 494 417 494s417 -193 417 -492v-73h-708v-37c0 -203 98 -362 303 -362c170 0 241 95 258 176h132c-19 -125 -128 -289 -390 -289zM238 604h582v3c0 206 -111 342 -291 342s-291 -138 -291 -342v-3zM275 -411l215 305h82
l208 -307h-108l-140 225h-3l-146 -223h-108z" />
    <glyph glyph-name="Etildebelow" unicode="&#x1e1a;" horiz-adv-x="1085" 
d="M539 -291c-28 32 -57 65 -96 65c-58 0 -77 -56 -79 -121h-88c0 117 53 208 166 208c62 0 102 -29 151 -84c31 -35 53 -60 93 -60c54 0 84 67 86 128h88c0 -106 -65 -210 -168 -210c-77 0 -115 30 -153 74zM972 116v-116h-795v1363h795v-117h-668v-491h633v-115h-633v-524
h668z" />
    <glyph glyph-name="etildebelow" unicode="&#x1e1b;" horiz-adv-x="1053" 
d="M498 -291c-28 32 -57 65 -96 65c-58 0 -77 -56 -79 -121h-88c0 117 53 208 166 208c62 0 102 -29 151 -84c31 -35 53 -60 93 -60c54 0 84 67 86 128h88c0 -106 -65 -210 -168 -210c-77 0 -115 30 -153 74zM541 -17c-285 0 -429 195 -429 482v101c0 295 144 494 417 494
s417 -193 417 -492v-73h-708v-37c0 -203 98 -362 303 -362c170 0 241 95 258 176h132c-19 -125 -128 -289 -390 -289zM238 604h582v3c0 206 -111 342 -291 342s-291 -138 -291 -342v-3z" />
    <glyph glyph-name="Ecedillabreve" unicode="&#x1e1c;" horiz-adv-x="1085" 
d="M558 -464c-58 -2 -114 8 -141 15v86c27 -8 81 -14 119 -14c62 0 132 23 132 90c0 70 -70 82 -152 82h-51v64l56 141h-344v1363h795v-117h-668v-491h633v-115h-633v-524h668v-116h-356l-49 -126c119 0 212 -47 212 -157c0 -124 -106 -177 -221 -181zM273 1736h95
c0 -87 79 -153 203 -153s200 66 200 153h95c0 -118 -82 -243 -295 -243s-298 124 -298 243z" />
    <glyph glyph-name="ecedillabreve" unicode="&#x1e1d;" horiz-adv-x="1053" 
d="M247 1429h94c0 -92 60 -171 183 -171s180 79 180 171h95c-1 -116 -81 -257 -275 -257s-278 139 -277 257zM238 604h582v3c0 206 -111 342 -291 342s-291 -138 -291 -342v-3zM531 -478c-57 -2 -114 8 -140 16v85c27 -8 81 -14 119 -14c62 0 132 23 132 90
c0 71 -71 82 -152 82h-51v64l55 140c-253 20 -382 208 -382 480v101c0 295 144 494 417 494s417 -193 417 -492v-73h-708v-37c0 -203 98 -362 303 -362c170 0 241 95 258 176h132c-18 -117 -114 -269 -342 -288l-48 -124c119 0 211 -47 211 -157c0 -123 -106 -177 -221 -181
z" />
    <glyph glyph-name="Fdotaccent" unicode="&#x1e1e;" horiz-adv-x="1015" 
d="M462 1621c0 50 38 88 85 88c51 0 89 -38 89 -88c0 -49 -38 -85 -89 -85c-47 0 -85 36 -85 85zM304 0h-127v1363h783v-117h-656v-513h602v-116h-602v-617z" />
    <glyph glyph-name="fdotaccent" unicode="&#x1e1f;" horiz-adv-x="653" 
d="M297 1699c0 50 38 88 85 88c51 0 89 -38 89 -88c0 -49 -38 -85 -89 -85c-47 0 -85 36 -85 85zM218 0v935h-159v108h159v116c0 195 94 281 294 281c39 0 68 -5 85 -8v-106c-18 2 -42 5 -73 5c-122 0 -180 -41 -180 -178v-110h236v-108h-236v-935h-126z" />
    <glyph glyph-name="Gmacron" unicode="&#x1e20;" horiz-adv-x="1266" 
d="M1140 975h-126c-18 182 -159 302 -363 302c-228 0 -402 -159 -402 -488v-205c0 -302 135 -497 398 -497c219 0 373 127 373 326v158h-382v117h506v-275c0 -205 -145 -443 -495 -443c-353 0 -527 246 -527 614v205c0 378 209 604 532 604c311 0 474 -202 486 -418z
M916 1533h-540v77h540v-77z" />
    <glyph glyph-name="gmacron" unicode="&#x1e21;" horiz-adv-x="1102" 
d="M820 1224h-546v84h546v-84zM524 -268c200 0 306 106 306 276v196h-4c-34 -80 -140 -186 -315 -186c-231 0 -411 171 -411 442v153c0 277 184 447 413 447c193 0 281 -103 317 -182h4v165h121v-1030c0 -259 -169 -394 -436 -394s-385 150 -393 293h131
c10 -86 90 -180 267 -180zM532 949c-178 0 -306 -132 -306 -360v-109c0 -222 131 -350 307 -350c192 0 296 163 296 340v121c0 197 -112 358 -297 358z" />
    <glyph glyph-name="Hdotaccent" unicode="&#x1e22;" horiz-adv-x="1348" 
d="M1171 0h-127v652h-740v-652h-127v1363h127v-595h740v595h127v-1363zM588 1621c0 50 38 88 85 88c51 0 89 -38 89 -88c0 -49 -38 -85 -89 -85c-47 0 -85 36 -85 85z" />
    <glyph glyph-name="hdotaccent" unicode="&#x1e23;" horiz-adv-x="1141" 
d="M164 0v1436h126v-551h5c32 80 128 175 308 175c227 0 381 -160 381 -399v-661h-126v638c0 176 -93 307 -273 307c-189 0 -295 -133 -295 -321v-624h-126zM139 1694c0 50 38 88 85 88c51 0 89 -38 89 -88c0 -49 -38 -85 -89 -85c-47 0 -85 36 -85 85z" />
    <glyph glyph-name="Hdotbelow" unicode="&#x1e24;" horiz-adv-x="1348" 
d="M1171 0h-127v652h-740v-652h-127v1363h127v-595h740v595h127v-1363zM586 -282c0 52 40 91 88 91c52 0 92 -39 92 -91c0 -50 -40 -88 -92 -88c-48 0 -88 38 -88 88z" />
    <glyph glyph-name="hdotbelow" unicode="&#x1e25;" horiz-adv-x="1141" 
d="M164 0v1436h126v-551h5c32 80 128 175 308 175c227 0 381 -160 381 -399v-661h-126v638c0 176 -93 307 -273 307c-189 0 -295 -133 -295 -321v-624h-126zM477 -282c0 52 40 91 88 91c52 0 92 -39 92 -91c0 -50 -40 -88 -92 -88c-48 0 -88 38 -88 88z" />
    <glyph glyph-name="Hdieresis" unicode="&#x1e26;" horiz-adv-x="1348" 
d="M1171 0h-127v652h-740v-652h-127v1363h127v-595h740v595h127v-1363zM482 1579c0 40 30 71 69 71c40 0 70 -31 70 -71c0 -38 -30 -71 -70 -71c-39 0 -69 33 -69 71zM766 1579c0 40 31 71 70 71c40 0 69 -31 69 -71c0 -38 -29 -71 -69 -71c-39 0 -70 33 -70 71z" />
    <glyph glyph-name="hdieresis" unicode="&#x1e27;" horiz-adv-x="1141" 
d="M164 0v1436h126v-551h5c32 80 128 175 308 175c227 0 381 -160 381 -399v-661h-126v638c0 176 -93 307 -273 307c-189 0 -295 -133 -295 -321v-624h-126zM-15 1657c0 48 35 83 79 83c46 0 81 -35 81 -83c0 -45 -35 -82 -81 -82c-44 0 -79 37 -79 82zM304 1657
c0 48 36 83 79 83c47 0 82 -35 82 -83c0 -45 -35 -82 -82 -82c-43 0 -79 37 -79 82z" />
    <glyph glyph-name="Hcedilla" unicode="&#x1e28;" horiz-adv-x="1348" 
d="M247 -464c-57 -2 -114 8 -140 15v86c26 -8 80 -14 118 -14c62 0 132 23 132 90c0 70 -70 82 -151 82h-52v64l57 141h-34v1363h127v-595h740v595h127v-1363h-127v652h-740v-652l-48 -126c119 0 212 -47 212 -157c0 -124 -106 -177 -221 -181z" />
    <glyph glyph-name="hcedilla" unicode="&#x1e29;" horiz-adv-x="1141" 
d="M227 -478c-58 -2 -114 8 -140 16v85c26 -8 80 -14 118 -14c62 0 132 23 132 90c0 71 -70 82 -152 82h-51v64l61 155h-31v1436h126v-551h5c32 80 128 175 308 175c227 0 381 -160 381 -399v-661h-126v638c0 176 -93 307 -273 307c-189 0 -295 -133 -295 -321v-624
l-54 -140c119 0 212 -47 212 -157c0 -123 -106 -177 -221 -181z" />
    <glyph glyph-name="Hbrevebelow" unicode="&#x1e2a;" horiz-adv-x="1348" 
d="M382 -143c0 -122 87 -257 291 -257s282 139 282 257h-96c0 -92 -61 -171 -186 -171s-189 79 -189 171h-102zM1171 0h-127v652h-740v-652h-127v1363h127v-595h740v595h127v-1363z" />
    <glyph glyph-name="hbrevebelow" unicode="&#x1e2b;" horiz-adv-x="1141" 
d="M273 -143c0 -122 87 -257 291 -257s282 139 282 257h-96c0 -92 -61 -171 -186 -171s-189 79 -189 171h-102zM164 0v1436h126v-551h5c32 80 128 175 308 175c227 0 381 -160 381 -399v-661h-126v638c0 176 -93 307 -273 307c-189 0 -295 -133 -295 -321v-624h-126z" />
    <glyph glyph-name="Itildebelow" unicode="&#x1e2c;" horiz-adv-x="493" 
d="M310 0h-127v1363h127v-1363zM214 -291c-28 32 -57 65 -96 65c-58 0 -77 -56 -79 -121h-88c0 117 53 208 166 208c62 0 102 -29 151 -84c31 -35 53 -60 93 -60c54 0 84 67 86 128h88c0 -106 -65 -210 -168 -210c-77 0 -115 30 -153 74z" />
    <glyph glyph-name="itildebelow" unicode="&#x1e2d;" horiz-adv-x="498" 
d="M186 0v1043h126v-1043h-126zM158 1310c0 52 40 90 90 90c52 0 92 -38 92 -90s-40 -91 -92 -91c-50 0 -90 39 -90 91zM216 -291c-28 32 -57 65 -96 65c-58 0 -77 -56 -79 -121h-88c0 117 53 208 166 208c62 0 102 -29 151 -84c31 -35 53 -60 93 -60c54 0 84 67 86 128h88
c0 -106 -65 -210 -168 -210c-77 0 -115 30 -153 74z" />
    <glyph glyph-name="Idieresisacute" unicode="&#x1e2e;" horiz-adv-x="493" 
d="M310 0h-127v1363h127v-1363zM150 1723l268 213h148l-297 -213h-119zM55 1579c0 40 30 71 69 71c40 0 70 -31 70 -71c0 -38 -30 -71 -70 -71c-39 0 -69 33 -69 71zM339 1579c0 40 31 71 70 71c40 0 69 -31 69 -71c0 -38 -29 -71 -69 -71c-39 0 -70 33 -70 71z" />
    <glyph glyph-name="idieresisacute" unicode="&#x1e2f;" horiz-adv-x="483" 
d="M259 1458h-100l202 279h134zM178 0v1043h126v-1043h-126zM2 1264c0 48 35 83 79 83c46 0 81 -35 81 -83c0 -45 -35 -82 -81 -82c-44 0 -79 37 -79 82zM321 1264c0 48 36 83 79 83c47 0 82 -35 82 -83c0 -45 -35 -82 -82 -82c-43 0 -79 37 -79 82z" />
    <glyph glyph-name="Kacute" unicode="&#x1e30;" horiz-adv-x="1147" 
d="M460 1513l268 213h148l-297 -213h-119zM1101 1363l-531 -590l561 -773h-164l-492 685l-171 -184v-501h-127v1363h127v-693h5l637 693h155z" />
    <glyph glyph-name="kacute" unicode="&#x1e31;" horiz-adv-x="995" 
d="M290 405v-405h-126v1436h126v-888h5l490 501h150l-435 -450l458 -599h-153l-397 518zM242 1603h-100l202 279h134z" />
    <glyph glyph-name="Kdotbelow" unicode="&#x1e32;" horiz-adv-x="1147" 
d="M486 -282c0 52 40 91 88 91c52 0 92 -39 92 -91c0 -50 -40 -88 -92 -88c-48 0 -88 38 -88 88zM1101 1363l-531 -590l561 -773h-164l-492 685l-171 -184v-501h-127v1363h127v-693h5l637 693h155z" />
    <glyph glyph-name="kdotbelow" unicode="&#x1e33;" horiz-adv-x="995" 
d="M429 -282c0 52 40 91 88 91c52 0 92 -39 92 -91c0 -50 -40 -88 -92 -88c-48 0 -88 38 -88 88zM290 405v-405h-126v1436h126v-888h5l490 501h150l-435 -450l458 -599h-153l-397 518z" />
    <glyph glyph-name="Klinebelow" unicode="&#x1e34;" horiz-adv-x="1147" 
d="M1101 1363l-531 -590l561 -773h-164l-492 685l-171 -184v-501h-127v1363h127v-693h5l637 693h155zM842 -307h-546v84h546v-84z" />
    <glyph glyph-name="klinebelow" unicode="&#x1e35;" horiz-adv-x="995" 
d="M290 405v-405h-126v1436h126v-888h5l490 501h150l-435 -450l458 -599h-153l-397 518zM785 -307h-546v84h546v-84z" />
    <glyph glyph-name="Ldotbelow" unicode="&#x1e36;" horiz-adv-x="996" 
d="M423 -282c0 52 40 91 88 91c52 0 92 -39 92 -91c0 -50 -40 -88 -92 -88c-48 0 -88 38 -88 88zM960 116v-116h-783v1363h127v-1247h656z" />
    <glyph glyph-name="ldotbelow" unicode="&#x1e37;" horiz-adv-x="468" 
d="M147 -282c0 52 40 91 88 91c52 0 92 -39 92 -91c0 -50 -40 -88 -92 -88c-48 0 -88 38 -88 88zM171 0v1436h126v-1436h-126z" />
    <glyph glyph-name="Ldotbelowmacron" unicode="&#x1e38;" horiz-adv-x="996" 
d="M423 -282c0 52 40 91 88 91c52 0 92 -39 92 -91c0 -50 -40 -88 -92 -88c-48 0 -88 38 -88 88zM960 116v-116h-783v1363h127v-1247h656zM509 1533h-540v77h540v-77z" />
    <glyph glyph-name="ldotbelowmacron" unicode="&#x1e39;" horiz-adv-x="468" 
d="M147 -282c0 52 40 91 88 91c52 0 92 -39 92 -91c0 -50 -40 -88 -92 -88c-48 0 -88 38 -88 88zM171 0v1436h126v-1436h-126zM504 1617h-546v84h546v-84z" />
    <glyph glyph-name="Llinebelow" unicode="&#x1e3a;" horiz-adv-x="996" 
d="M779 -307h-546v84h546v-84zM960 116v-116h-783v1363h127v-1247h656z" />
    <glyph glyph-name="llinebelow" unicode="&#x1e3b;" horiz-adv-x="468" 
d="M503 -307h-546v84h546v-84zM171 0v1436h126v-1436h-126z" />
    <glyph glyph-name="Lcircumflexbelow" unicode="&#x1e3c;" horiz-adv-x="996" 
d="M960 116v-116h-783v1363h127v-1247h656zM255 -411l215 305h82l208 -307h-108l-140 225h-3l-146 -223h-108z" />
    <glyph glyph-name="lcircumflexbelow" unicode="&#x1e3d;" horiz-adv-x="468" 
d="M171 0v1436h126v-1436h-126zM-21 -411l215 305h82l208 -307h-108l-140 225h-3l-146 -223h-108z" />
    <glyph glyph-name="Macute" unicode="&#x1e3e;" horiz-adv-x="1576" 
d="M692 1513l268 213h148l-297 -213h-119zM297 0h-117v1363h124l482 -1115h4l483 1115h123v-1363h-116v1077h-4l-430 -972h-116l-429 972h-4v-1077z" />
    <glyph glyph-name="macute" unicode="&#x1e3f;" horiz-adv-x="1701" 
d="M868 1210h-100l202 279h134zM161 0v1043h126v-143h6c31 73 120 160 273 160c171 0 269 -78 306 -185h6c33 86 138 185 319 185c212 0 347 -129 347 -349v-711h-125v686c0 157 -90 259 -246 259c-168 0 -258 -123 -258 -274v-671h-125v673c0 174 -93 272 -248 272
c-153 0 -255 -112 -255 -279v-666h-126z" />
    <glyph glyph-name="Mdotaccent" unicode="&#x1e40;" horiz-adv-x="1576" 
d="M703 1621c0 50 38 88 85 88c51 0 89 -38 89 -88c0 -49 -38 -85 -89 -85c-47 0 -85 36 -85 85zM297 0h-117v1363h124l482 -1115h4l483 1115h123v-1363h-116v1077h-4l-430 -972h-116l-429 972h-4v-1077z" />
    <glyph glyph-name="mdotaccent" unicode="&#x1e41;" horiz-adv-x="1701" 
d="M765 1301c0 50 38 88 85 88c51 0 89 -38 89 -88c0 -49 -38 -85 -89 -85c-47 0 -85 36 -85 85zM161 0v1043h126v-143h6c31 73 120 160 273 160c171 0 269 -78 306 -185h6c33 86 138 185 319 185c212 0 347 -129 347 -349v-711h-125v686c0 157 -90 259 -246 259
c-168 0 -258 -123 -258 -274v-671h-125v673c0 174 -93 272 -248 272c-153 0 -255 -112 -255 -279v-666h-126z" />
    <glyph glyph-name="Mdotbelow" unicode="&#x1e42;" horiz-adv-x="1576" 
d="M700 -282c0 52 40 91 88 91c52 0 92 -39 92 -91c0 -50 -40 -88 -92 -88c-48 0 -88 38 -88 88zM297 0h-117v1363h124l482 -1115h4l483 1115h123v-1363h-116v1077h-4l-430 -972h-116l-429 972h-4v-1077z" />
    <glyph glyph-name="mdotbelow" unicode="&#x1e43;" horiz-adv-x="1701" 
d="M763 -282c0 52 40 91 88 91c52 0 92 -39 92 -91c0 -50 -40 -88 -92 -88c-48 0 -88 38 -88 88zM161 0v1043h126v-143h6c31 73 120 160 273 160c171 0 269 -78 306 -185h6c33 86 138 185 319 185c212 0 347 -129 347 -349v-711h-125v686c0 157 -90 259 -246 259
c-168 0 -258 -123 -258 -274v-671h-125v673c0 174 -93 272 -248 272c-153 0 -255 -112 -255 -279v-666h-126z" />
    <glyph glyph-name="Ndotaccent" unicode="&#x1e44;" horiz-adv-x="1348" 
d="M588 1621c0 50 38 88 85 88c51 0 89 -38 89 -88c0 -49 -38 -85 -89 -85c-47 0 -85 36 -85 85zM304 0h-127v1363h128l735 -1143h4v1143h127v-1363h-128l-736 1143h-3v-1143z" />
    <glyph glyph-name="ndotaccent" unicode="&#x1e45;" horiz-adv-x="1131" 
d="M480 1301c0 50 38 88 85 88c51 0 89 -38 89 -88c0 -49 -38 -85 -89 -85c-47 0 -85 36 -85 85zM161 0v1043h126v-158h4c38 90 146 175 314 175c207 0 372 -130 372 -367v-693h-127v649c0 186 -93 296 -272 296c-190 0 -291 -128 -291 -317v-628h-126z" />
    <glyph glyph-name="Ndotbelow" unicode="&#x1e46;" horiz-adv-x="1348" 
d="M586 -282c0 52 40 91 88 91c52 0 92 -39 92 -91c0 -50 -40 -88 -92 -88c-48 0 -88 38 -88 88zM304 0h-127v1363h128l735 -1143h4v1143h127v-1363h-128l-736 1143h-3v-1143z" />
    <glyph glyph-name="ndotbelow" unicode="&#x1e47;" horiz-adv-x="1131" 
d="M478 -282c0 52 40 91 88 91c52 0 92 -39 92 -91c0 -50 -40 -88 -92 -88c-48 0 -88 38 -88 88zM161 0v1043h126v-158h4c38 90 146 175 314 175c207 0 372 -130 372 -367v-693h-127v649c0 186 -93 296 -272 296c-190 0 -291 -128 -291 -317v-628h-126z" />
    <glyph glyph-name="Nlinebelow" unicode="&#x1e48;" horiz-adv-x="1348" 
d="M942 -307h-546v84h546v-84zM304 0h-127v1363h128l735 -1143h4v1143h127v-1363h-128l-736 1143h-3v-1143z" />
    <glyph glyph-name="nlinebelow" unicode="&#x1e49;" horiz-adv-x="1131" 
d="M834 -307h-546v84h546v-84zM161 0v1043h126v-158h4c38 90 146 175 314 175c207 0 372 -130 372 -367v-693h-127v649c0 186 -93 296 -272 296c-190 0 -291 -128 -291 -317v-628h-126z" />
    <glyph glyph-name="Ncircumflexbelow" unicode="&#x1e4a;" horiz-adv-x="1348" 
d="M304 0h-127v1363h128l735 -1143h4v1143h127v-1363h-128l-736 1143h-3v-1143zM418 -411l215 305h82l208 -307h-108l-140 225h-3l-146 -223h-108z" />
    <glyph glyph-name="ncircumflexbelow" unicode="&#x1e4b;" horiz-adv-x="1131" 
d="M161 0v1043h126v-158h4c38 90 146 175 314 175c207 0 372 -130 372 -367v-693h-127v649c0 186 -93 296 -272 296c-190 0 -291 -128 -291 -317v-628h-126zM310 -411l215 305h82l208 -307h-108l-140 225h-3l-146 -223h-108z" />
    <glyph glyph-name="Otildeacute" unicode="&#x1e4c;" horiz-adv-x="1307" 
d="M557 1723l268 213h148l-297 -213h-119zM248 789v-225c0 -311 167 -477 405 -477c239 0 405 166 405 477v225c0 311 -167 488 -405 488c-237 0 -405 -177 -405 -488zM122 566v221c0 376 206 606 532 606c328 0 531 -231 531 -607v-220c0 -375 -206 -596 -533 -596
c-328 0 -530 221 -530 596zM623 1554c-26 30 -51 58 -88 58c-55 0 -71 -50 -73 -108h-83c0 104 50 187 156 187c56 0 94 -26 140 -75c28 -32 47 -54 85 -54c50 0 77 59 80 115h83c0 -96 -61 -189 -157 -189c-72 0 -106 27 -143 66z" />
    <glyph glyph-name="otildeacute" unicode="&#x1e4d;" horiz-adv-x="1094" 
d="M565 1458h-100l202 279h134zM512 1243c-28 33 -56 66 -96 66c-58 0 -77 -57 -79 -122h-88c0 117 54 208 167 208c61 0 102 -28 150 -83c31 -36 53 -60 93 -60c54 0 84 66 87 128h87c0 -106 -65 -210 -168 -210c-77 0 -115 30 -153 73zM547 1060c282 0 436 -191 436 -484
v-110c0 -294 -153 -483 -436 -483s-436 188 -436 483v110c0 287 152 484 436 484zM547 949c-213 0 -311 -164 -311 -387v-81c0 -226 97 -385 312 -385c213 0 309 158 309 385v81c0 222 -97 387 -310 387z" />
    <glyph glyph-name="Otildedieresis" unicode="&#x1e4e;" horiz-adv-x="1307" 
d="M443 1831c0 40 30 71 69 71c40 0 70 -31 70 -71c0 -38 -30 -71 -70 -71c-39 0 -69 33 -69 71zM727 1831c0 40 31 71 70 71c40 0 69 -31 69 -71c0 -38 -29 -71 -69 -71c-39 0 -70 33 -70 71zM248 789v-225c0 -311 167 -477 405 -477c239 0 405 166 405 477v225
c0 311 -167 488 -405 488c-237 0 -405 -177 -405 -488zM122 566v221c0 376 206 606 532 606c328 0 531 -231 531 -607v-220c0 -375 -206 -596 -533 -596c-328 0 -530 221 -530 596zM623 1554c-26 30 -51 58 -88 58c-55 0 -71 -50 -73 -108h-83c0 104 50 187 156 187
c56 0 94 -26 140 -75c28 -32 47 -54 85 -54c50 0 77 59 80 115h83c0 -96 -61 -189 -157 -189c-72 0 -106 27 -143 66z" />
    <glyph glyph-name="otildedieresis" unicode="&#x1e4f;" horiz-adv-x="1094" 
d="M512 1243c-28 33 -56 66 -96 66c-58 0 -77 -57 -79 -122h-88c0 117 54 208 167 208c61 0 102 -28 150 -83c31 -36 53 -60 93 -60c54 0 84 66 87 128h87c0 -106 -65 -210 -168 -210c-77 0 -115 30 -153 73zM308 1535c0 48 35 83 79 83c46 0 81 -35 81 -83
c0 -45 -35 -82 -81 -82c-44 0 -79 37 -79 82zM627 1535c0 48 36 83 79 83c47 0 82 -35 82 -83c0 -45 -35 -82 -82 -82c-43 0 -79 37 -79 82zM547 1060c282 0 436 -191 436 -484v-110c0 -294 -153 -483 -436 -483s-436 188 -436 483v110c0 287 152 484 436 484zM547 949
c-213 0 -311 -164 -311 -387v-81c0 -226 97 -385 312 -385c213 0 309 158 309 385v81c0 222 -97 387 -310 387z" />
    <glyph glyph-name="Omacrongrave" unicode="&#x1e50;" horiz-adv-x="1307" 
d="M753 1724h-119l-298 213h149zM248 789v-225c0 -311 167 -477 405 -477c239 0 405 166 405 477v225c0 311 -167 488 -405 488c-237 0 -405 -177 -405 -488zM122 566v221c0 376 206 606 532 606c328 0 531 -231 531 -607v-220c0 -375 -206 -596 -533 -596
c-328 0 -530 221 -530 596zM923 1533h-540v77h540v-77z" />
    <glyph glyph-name="omacrongrave" unicode="&#x1e51;" horiz-adv-x="1094" 
d="M631 1458h-99l-236 279h135zM817 1224h-546v84h546v-84zM547 1060c282 0 436 -191 436 -484v-110c0 -294 -153 -483 -436 -483s-436 188 -436 483v110c0 287 152 484 436 484zM547 949c-213 0 -311 -164 -311 -387v-81c0 -226 97 -385 312 -385c213 0 309 158 309 385v81
c0 222 -97 387 -310 387z" />
    <glyph glyph-name="Omacronacute" unicode="&#x1e52;" horiz-adv-x="1307" 
d="M557 1723l268 213h148l-297 -213h-119zM248 789v-225c0 -311 167 -477 405 -477c239 0 405 166 405 477v225c0 311 -167 488 -405 488c-237 0 -405 -177 -405 -488zM122 566v221c0 376 206 606 532 606c328 0 531 -231 531 -607v-220c0 -375 -206 -596 -533 -596
c-328 0 -530 221 -530 596zM923 1533h-540v77h540v-77z" />
    <glyph glyph-name="omacronacute" unicode="&#x1e53;" horiz-adv-x="1094" 
d="M565 1458h-100l202 279h134zM817 1224h-546v84h546v-84zM547 1060c282 0 436 -191 436 -484v-110c0 -294 -153 -483 -436 -483s-436 188 -436 483v110c0 287 152 484 436 484zM547 949c-213 0 -311 -164 -311 -387v-81c0 -226 97 -385 312 -385c213 0 309 158 309 385v81
c0 222 -97 387 -310 387z" />
    <glyph glyph-name="Pacute" unicode="&#x1e54;" horiz-adv-x="1135" 
d="M450 1513l268 213h148l-297 -213h-119zM177 1363h468c261 0 427 -163 427 -412c0 -251 -166 -411 -427 -411h-341v-540h-127v1363zM304 1247v-592h260c239 0 377 70 377 296c0 187 -110 296 -301 296h-336z" />
    <glyph glyph-name="pacute" unicode="&#x1e55;" horiz-adv-x="1127" 
d="M610 -17c-187 0 -279 97 -319 178h-4v-515h-125v1398h120v-167h4c33 81 135 183 329 183c233 0 400 -171 400 -456v-166c0 -294 -173 -455 -405 -455zM595 96c163 0 294 118 294 364v126c0 233 -120 363 -298 363c-193 0 -304 -156 -304 -350v-147
c0 -193 114 -356 308 -356zM581 1210h-100l202 279h134z" />
    <glyph glyph-name="Pdotaccent" unicode="&#x1e56;" horiz-adv-x="1135" 
d="M177 1363h468c261 0 427 -163 427 -412c0 -251 -166 -411 -427 -411h-341v-540h-127v1363zM304 1247v-592h260c239 0 377 70 377 296c0 187 -110 296 -301 296h-336zM461 1621c0 50 38 88 85 88c51 0 89 -38 89 -88c0 -49 -38 -85 -89 -85c-47 0 -85 36 -85 85z" />
    <glyph glyph-name="pdotaccent" unicode="&#x1e57;" horiz-adv-x="1127" 
d="M610 -17c-187 0 -279 97 -319 178h-4v-515h-125v1398h120v-167h4c33 81 135 183 329 183c233 0 400 -171 400 -456v-166c0 -294 -173 -455 -405 -455zM595 96c163 0 294 118 294 364v126c0 233 -120 363 -298 363c-193 0 -304 -156 -304 -350v-147
c0 -193 114 -356 308 -356zM478 1301c0 50 38 88 85 88c51 0 89 -38 89 -88c0 -49 -38 -85 -89 -85c-47 0 -85 36 -85 85z" />
    <glyph glyph-name="Rdotaccent" unicode="&#x1e58;" horiz-adv-x="1198" 
d="M646 1363c283 0 423 -179 423 -394c0 -220 -130 -334 -269 -376l293 -593h-147l-274 567h-368v-567h-127v1363h469zM304 682h320c202 0 314 104 314 279c0 185 -120 287 -309 287h-325v-566zM486 1621c0 50 38 88 85 88c51 0 89 -38 89 -88c0 -49 -38 -85 -89 -85
c-47 0 -85 36 -85 85z" />
    <glyph glyph-name="rdotaccent" unicode="&#x1e59;" horiz-adv-x="679" 
d="M173 0v1043h126v-149h4c27 73 90 165 276 165c28 0 52 -3 70 -5v-118c-15 3 -48 6 -85 6c-177 0 -265 -112 -265 -289v-653h-126zM304 1301c0 50 38 88 85 88c51 0 89 -38 89 -88c0 -49 -38 -85 -89 -85c-47 0 -85 36 -85 85z" />
    <glyph glyph-name="Rdotbelow" unicode="&#x1e5a;" horiz-adv-x="1198" 
d="M484 -282c0 52 40 91 88 91c52 0 92 -39 92 -91c0 -50 -40 -88 -92 -88c-48 0 -88 38 -88 88zM646 1363c283 0 423 -179 423 -394c0 -220 -130 -334 -269 -376l293 -593h-147l-274 567h-368v-567h-127v1363h469zM304 682h320c202 0 314 104 314 279
c0 185 -120 287 -309 287h-325v-566z" />
    <glyph glyph-name="rdotbelow" unicode="&#x1e5b;" horiz-adv-x="679" 
d="M150 -282c0 52 40 91 88 91c52 0 92 -39 92 -91c0 -50 -40 -88 -92 -88c-48 0 -88 38 -88 88zM173 0v1043h126v-149h4c27 73 90 165 276 165c28 0 52 -3 70 -5v-118c-15 3 -48 6 -85 6c-177 0 -265 -112 -265 -289v-653h-126z" />
    <glyph glyph-name="Rdotbelowmacron" unicode="&#x1e5c;" horiz-adv-x="1198" 
d="M484 -282c0 52 40 91 88 91c52 0 92 -39 92 -91c0 -50 -40 -88 -92 -88c-48 0 -88 38 -88 88zM646 1363c283 0 423 -179 423 -394c0 -220 -130 -334 -269 -376l293 -593h-147l-274 567h-368v-567h-127v1363h469zM304 682h320c202 0 314 104 314 279
c0 185 -120 287 -309 287h-325v-566zM841 1533h-540v77h540v-77z" />
    <glyph glyph-name="rdotbelowmacron" unicode="&#x1e5d;" horiz-adv-x="679" 
d="M150 -282c0 52 40 91 88 91c52 0 92 -39 92 -91c0 -50 -40 -88 -92 -88c-48 0 -88 38 -88 88zM173 0v1043h126v-149h4c27 73 90 165 276 165c28 0 52 -3 70 -5v-118c-15 3 -48 6 -85 6c-177 0 -265 -112 -265 -289v-653h-126zM659 1224h-546v84h546v-84z" />
    <glyph glyph-name="Rlinebelow" unicode="&#x1e5e;" horiz-adv-x="1198" 
d="M646 1363c283 0 423 -179 423 -394c0 -220 -130 -334 -269 -376l293 -593h-147l-274 567h-368v-567h-127v1363h469zM304 682h320c202 0 314 104 314 279c0 185 -120 287 -309 287h-325v-566zM840 -307h-546v84h546v-84z" />
    <glyph glyph-name="rlinebelow" unicode="&#x1e5f;" horiz-adv-x="679" 
d="M173 0v1043h126v-149h4c27 73 90 165 276 165c28 0 52 -3 70 -5v-118c-15 3 -48 6 -85 6c-177 0 -265 -112 -265 -289v-653h-126zM506 -307h-546v84h546v-84z" />
    <glyph glyph-name="Sdotaccent" unicode="&#x1e60;" horiz-adv-x="1144" 
d="M77 357h129c10 -132 120 -270 363 -270c208 0 345 106 345 268c0 138 -87 205 -263 252l-217 57c-170 46 -314 147 -314 351c0 241 207 381 454 381c241 0 447 -131 452 -369h-129c-9 131 -110 252 -325 252c-191 0 -322 -96 -322 -256c0 -122 74 -196 222 -235l212 -58
c221 -60 360 -150 360 -366c0 -255 -214 -394 -490 -394c-352 0 -473 220 -477 387zM484 1621c0 50 38 88 85 88c51 0 89 -38 89 -88c0 -49 -38 -85 -89 -85c-47 0 -85 36 -85 85z" />
    <glyph glyph-name="sdotaccent" unicode="&#x1e61;" horiz-adv-x="968" 
d="M114 760c0 204 171 300 369 300c251 0 360 -150 360 -299h-120c-4 81 -59 194 -245 194c-135 0 -239 -64 -239 -183c0 -129 124 -158 265 -188c195 -40 363 -88 363 -289c0 -205 -171 -312 -397 -312c-243 0 -381 127 -381 291h124c10 -93 86 -184 262 -184
c170 0 267 75 267 191c0 131 -129 160 -279 192c-199 44 -349 93 -349 287zM398 1301c0 50 38 88 85 88c51 0 89 -38 89 -88c0 -49 -38 -85 -89 -85c-47 0 -85 36 -85 85z" />
    <glyph glyph-name="Sdotbelow" unicode="&#x1e62;" horiz-adv-x="1144" 
d="M466 -282c0 52 40 91 88 91c52 0 92 -39 92 -91c0 -50 -40 -88 -92 -88c-48 0 -88 38 -88 88zM77 357h129c10 -132 120 -270 363 -270c208 0 345 106 345 268c0 138 -87 205 -263 252l-217 57c-170 46 -314 147 -314 351c0 241 207 381 454 381c241 0 447 -131 452 -369
h-129c-9 131 -110 252 -325 252c-191 0 -322 -96 -322 -256c0 -122 74 -196 222 -235l212 -58c221 -60 360 -150 360 -366c0 -255 -214 -394 -490 -394c-352 0 -473 220 -477 387z" />
    <glyph glyph-name="sdotbelow" unicode="&#x1e63;" horiz-adv-x="968" 
d="M396 -282c0 52 40 91 88 91c52 0 92 -39 92 -91c0 -50 -40 -88 -92 -88c-48 0 -88 38 -88 88zM114 760c0 204 171 300 369 300c251 0 360 -150 360 -299h-120c-4 81 -59 194 -245 194c-135 0 -239 -64 -239 -183c0 -129 124 -158 265 -188c195 -40 363 -88 363 -289
c0 -205 -171 -312 -397 -312c-243 0 -381 127 -381 291h124c10 -93 86 -184 262 -184c170 0 267 75 267 191c0 131 -129 160 -279 192c-199 44 -349 93 -349 287z" />
    <glyph glyph-name="Sacutedotaccent" unicode="&#x1e64;" horiz-adv-x="1144" 
d="M294 1703c0 46 34 80 77 80c46 0 81 -34 81 -80c0 -45 -35 -77 -81 -77c-43 0 -77 32 -77 77zM561 1562l268 213h148l-297 -213h-119zM77 357h129c10 -132 120 -270 363 -270c208 0 345 106 345 268c0 138 -87 205 -263 252l-217 57c-170 46 -314 147 -314 351
c0 241 207 381 454 381c241 0 447 -131 452 -369h-129c-9 131 -110 252 -325 252c-191 0 -322 -96 -322 -256c0 -122 74 -196 222 -235l212 -58c221 -60 360 -150 360 -366c0 -255 -214 -394 -490 -394c-352 0 -473 220 -477 387z" />
    <glyph glyph-name="sacutedotaccent" unicode="&#x1e65;" horiz-adv-x="968" 
d="M237 1419c0 47 35 80 79 80c47 0 81 -33 81 -80c0 -46 -34 -79 -81 -79c-44 0 -79 33 -79 79zM114 760c0 204 171 300 369 300c251 0 360 -150 360 -299h-120c-4 81 -59 194 -245 194c-135 0 -239 -64 -239 -183c0 -129 124 -158 265 -188c195 -40 363 -88 363 -289
c0 -205 -171 -312 -397 -312c-243 0 -381 127 -381 291h124c10 -93 86 -184 262 -184c170 0 267 75 267 191c0 131 -129 160 -279 192c-199 44 -349 93 -349 287zM557 1210h-100l202 279h134z" />
    <glyph glyph-name="Scarondotaccent" unicode="&#x1e66;" horiz-adv-x="1144" 
d="M497 1843c0 44 32 78 72 78c45 0 77 -34 77 -78c0 -42 -32 -73 -77 -73c-40 0 -72 31 -72 73zM77 357h129c10 -132 120 -270 363 -270c208 0 345 106 345 268c0 138 -87 205 -263 252l-217 57c-170 46 -314 147 -314 351c0 241 207 381 454 381c241 0 447 -131 452 -369
h-129c-9 131 -110 252 -325 252c-191 0 -322 -96 -322 -256c0 -122 74 -196 222 -235l212 -58c221 -60 360 -150 360 -366c0 -255 -214 -394 -490 -394c-352 0 -473 220 -477 387zM261 1714h125l183 -145h5l184 145h124l-272 -211h-75z" />
    <glyph glyph-name="scarondotaccent" unicode="&#x1e67;" horiz-adv-x="968" 
d="M405 1687c0 48 36 82 80 82c48 0 83 -34 83 -82c0 -46 -35 -80 -83 -80c-44 0 -80 34 -80 80zM237 1510h107l146 -223h3l140 225h108l-207 -307h-83zM114 760c0 204 171 300 369 300c251 0 360 -150 360 -299h-120c-4 81 -59 194 -245 194c-135 0 -239 -64 -239 -183
c0 -129 124 -158 265 -188c195 -40 363 -88 363 -289c0 -205 -171 -312 -397 -312c-243 0 -381 127 -381 291h124c10 -93 86 -184 262 -184c170 0 267 75 267 191c0 131 -129 160 -279 192c-199 44 -349 93 -349 287z" />
    <glyph glyph-name="Sdotbelowdotaccent" unicode="&#x1e68;" horiz-adv-x="1144" 
d="M466 -282c0 52 40 91 88 91c52 0 92 -39 92 -91c0 -50 -40 -88 -92 -88c-48 0 -88 38 -88 88zM77 357h129c10 -132 120 -270 363 -270c208 0 345 106 345 268c0 138 -87 205 -263 252l-217 57c-170 46 -314 147 -314 351c0 241 207 381 454 381c241 0 447 -131 452 -369
h-129c-9 131 -110 252 -325 252c-191 0 -322 -96 -322 -256c0 -122 74 -196 222 -235l212 -58c221 -60 360 -150 360 -366c0 -255 -214 -394 -490 -394c-352 0 -473 220 -477 387zM484 1621c0 50 38 88 85 88c51 0 89 -38 89 -88c0 -49 -38 -85 -89 -85c-47 0 -85 36 -85 85
z" />
    <glyph glyph-name="sdotbelowdotaccent" unicode="&#x1e69;" horiz-adv-x="968" 
d="M396 -282c0 52 40 91 88 91c52 0 92 -39 92 -91c0 -50 -40 -88 -92 -88c-48 0 -88 38 -88 88zM114 760c0 204 171 300 369 300c251 0 360 -150 360 -299h-120c-4 81 -59 194 -245 194c-135 0 -239 -64 -239 -183c0 -129 124 -158 265 -188c195 -40 363 -88 363 -289
c0 -205 -171 -312 -397 -312c-243 0 -381 127 -381 291h124c10 -93 86 -184 262 -184c170 0 267 75 267 191c0 131 -129 160 -279 192c-199 44 -349 93 -349 287zM398 1301c0 50 38 88 85 88c51 0 89 -38 89 -88c0 -49 -38 -85 -89 -85c-47 0 -85 36 -85 85z" />
    <glyph glyph-name="Tdotaccent" unicode="&#x1e6a;" horiz-adv-x="1033" 
d="M431 1621c0 50 38 88 85 88c51 0 89 -38 89 -88c0 -49 -38 -85 -89 -85c-47 0 -85 36 -85 85zM579 0h-126v1247h-435v116h997v-116h-436v-1247z" />
    <glyph glyph-name="tdotaccent" unicode="&#x1e6b;" horiz-adv-x="651" 
d="M194 1552c0 50 38 88 85 88c51 0 89 -38 89 -88c0 -49 -38 -85 -89 -85c-47 0 -85 36 -85 85zM210 1043v259h126v-259h236v-108h-236v-672c0 -128 48 -162 181 -162c22 0 50 1 65 3v-104c-15 -3 -55 -7 -91 -7c-228 0 -281 84 -281 280v662h-162v108h162z" />
    <glyph glyph-name="Tdotbelow" unicode="&#x1e6c;" horiz-adv-x="1033" 
d="M429 -282c0 52 40 91 88 91c52 0 92 -39 92 -91c0 -50 -40 -88 -92 -88c-48 0 -88 38 -88 88zM579 0h-126v1247h-435v116h997v-116h-436v-1247z" />
    <glyph glyph-name="tdotbelow" unicode="&#x1e6d;" horiz-adv-x="651" 
d="M310 -282c0 52 40 91 88 91c52 0 92 -39 92 -91c0 -50 -40 -88 -92 -88c-48 0 -88 38 -88 88zM210 1043v259h126v-259h236v-108h-236v-672c0 -128 48 -162 181 -162c22 0 50 1 65 3v-104c-15 -3 -55 -7 -91 -7c-228 0 -281 84 -281 280v662h-162v108h162z" />
    <glyph glyph-name="Tlinebelow" unicode="&#x1e6e;" horiz-adv-x="1033" 
d="M785 -307h-546v84h546v-84zM579 0h-126v1247h-435v116h997v-116h-436v-1247z" />
    <glyph glyph-name="tlinebelow" unicode="&#x1e6f;" horiz-adv-x="651" 
d="M666 -307h-546v84h546v-84zM210 1043v259h126v-259h236v-108h-236v-672c0 -128 48 -162 181 -162c22 0 50 1 65 3v-104c-15 -3 -55 -7 -91 -7c-228 0 -281 84 -281 280v662h-162v108h162z" />
    <glyph glyph-name="Tcircumflexbelow" unicode="&#x1e70;" horiz-adv-x="1033" 
d="M579 0h-126v1247h-435v116h997v-116h-436v-1247zM261 -411l215 305h82l208 -307h-108l-140 225h-3l-146 -223h-108z" />
    <glyph glyph-name="tcircumflexbelow" unicode="&#x1e71;" horiz-adv-x="651" 
d="M210 1043v259h126v-259h236v-108h-236v-672c0 -128 48 -162 181 -162c22 0 50 1 65 3v-104c-15 -3 -55 -7 -91 -7c-228 0 -281 84 -281 280v662h-162v108h162zM142 -411l215 305h82l208 -307h-108l-140 225h-3l-146 -223h-108z" />
    <glyph glyph-name="Udieresisbelow" unicode="&#x1e72;" horiz-adv-x="1319" 
d="M286 1363v-891c0 -233 139 -385 374 -385c234 0 374 151 374 385v891h127v-891c0 -302 -196 -502 -501 -502s-502 203 -502 505v888h128zM419 -294c0 48 35 83 79 83c46 0 81 -35 81 -83c0 -45 -35 -82 -81 -82c-44 0 -79 37 -79 82zM738 -294c0 48 36 83 79 83
c47 0 82 -35 82 -83c0 -45 -35 -82 -82 -82c-43 0 -79 37 -79 82z" />
    <glyph glyph-name="udieresisbelow" unicode="&#x1e73;" horiz-adv-x="1127" 
d="M966 1043v-1043h-126v159h-5c-37 -89 -138 -176 -317 -176c-210 0 -366 120 -366 358v702h127v-668c0 -194 114 -277 270 -277c180 0 291 129 291 305v640h126zM323 -294c0 48 35 83 79 83c46 0 81 -35 81 -83c0 -45 -35 -82 -81 -82c-44 0 -79 37 -79 82zM642 -294
c0 48 36 83 79 83c47 0 82 -35 82 -83c0 -45 -35 -82 -82 -82c-43 0 -79 37 -79 82z" />
    <glyph glyph-name="Utildebelow" unicode="&#x1e74;" horiz-adv-x="1319" 
d="M627 -291c-28 32 -57 65 -96 65c-58 0 -77 -56 -79 -121h-88c0 117 53 208 166 208c62 0 102 -29 151 -84c31 -35 53 -60 93 -60c54 0 84 67 86 128h88c0 -106 -65 -210 -168 -210c-77 0 -115 30 -153 74zM286 1363v-891c0 -233 139 -385 374 -385c234 0 374 151 374 385
v891h127v-891c0 -302 -196 -502 -501 -502s-502 203 -502 505v888h128z" />
    <glyph glyph-name="utildebelow" unicode="&#x1e75;" horiz-adv-x="1127" 
d="M531 -291c-28 32 -57 65 -96 65c-58 0 -77 -56 -79 -121h-88c0 117 53 208 166 208c62 0 102 -29 151 -84c31 -35 53 -60 93 -60c54 0 84 67 86 128h88c0 -106 -65 -210 -168 -210c-77 0 -115 30 -153 74zM966 1043v-1043h-126v159h-5c-37 -89 -138 -176 -317 -176
c-210 0 -366 120 -366 358v702h127v-668c0 -194 114 -277 270 -277c180 0 291 129 291 305v640h126z" />
    <glyph glyph-name="Ucircumflexbelow" unicode="&#x1e76;" horiz-adv-x="1319" 
d="M286 1363v-891c0 -233 139 -385 374 -385c234 0 374 151 374 385v891h127v-891c0 -302 -196 -502 -501 -502s-502 203 -502 505v888h128zM404 -411l215 305h82l208 -307h-108l-140 225h-3l-146 -223h-108z" />
    <glyph glyph-name="ucircumflexbelow" unicode="&#x1e77;" horiz-adv-x="1127" 
d="M966 1043v-1043h-126v159h-5c-37 -89 -138 -176 -317 -176c-210 0 -366 120 -366 358v702h127v-668c0 -194 114 -277 270 -277c180 0 291 129 291 305v640h126zM308 -411l215 305h82l208 -307h-108l-140 225h-3l-146 -223h-108z" />
    <glyph glyph-name="Utildeacute" unicode="&#x1e78;" horiz-adv-x="1319" 
d="M563 1723l268 213h148l-297 -213h-119zM286 1363v-891c0 -233 139 -385 374 -385c234 0 374 151 374 385v891h127v-891c0 -302 -196 -502 -501 -502s-502 203 -502 505v888h128zM629 1554c-26 30 -51 58 -88 58c-55 0 -71 -50 -73 -108h-83c0 104 50 187 156 187
c56 0 94 -26 140 -75c28 -32 47 -54 85 -54c50 0 77 59 80 115h83c0 -96 -61 -189 -157 -189c-72 0 -106 27 -143 66z" />
    <glyph glyph-name="utildeacute" unicode="&#x1e79;" horiz-adv-x="1127" 
d="M966 1043v-1043h-126v159h-5c-37 -89 -138 -176 -317 -176c-210 0 -366 120 -366 358v702h127v-668c0 -194 114 -277 270 -277c180 0 291 129 291 305v640h126zM581 1458h-100l202 279h134zM528 1243c-28 33 -56 66 -96 66c-58 0 -77 -57 -79 -122h-88
c0 117 54 208 167 208c61 0 102 -28 150 -83c31 -36 53 -60 93 -60c54 0 84 66 87 128h87c0 -106 -65 -210 -168 -210c-77 0 -115 30 -153 73z" />
    <glyph glyph-name="Umacrondieresis" unicode="&#x1e7a;" horiz-adv-x="1319" 
d="M449 1831c0 40 30 71 69 71c40 0 70 -31 70 -71c0 -38 -30 -71 -70 -71c-39 0 -69 33 -69 71zM733 1831c0 40 31 71 70 71c40 0 69 -31 69 -71c0 -38 -29 -71 -69 -71c-39 0 -70 33 -70 71zM286 1363v-891c0 -233 139 -385 374 -385c234 0 374 151 374 385v891h127v-891
c0 -302 -196 -502 -501 -502s-502 203 -502 505v888h128zM929 1533h-540v77h540v-77z" />
    <glyph glyph-name="umacrondieresis" unicode="&#x1e7b;" horiz-adv-x="1127" 
d="M966 1043v-1043h-126v159h-5c-37 -89 -138 -176 -317 -176c-210 0 -366 120 -366 358v702h127v-668c0 -194 114 -277 270 -277c180 0 291 129 291 305v640h126zM833 1224h-546v84h546v-84zM324 1535c0 48 35 83 79 83c46 0 81 -35 81 -83c0 -45 -35 -82 -81 -82
c-44 0 -79 37 -79 82zM643 1535c0 48 36 83 79 83c47 0 82 -35 82 -83c0 -45 -35 -82 -82 -82c-43 0 -79 37 -79 82z" />
    <glyph glyph-name="Vtilde" unicode="&#x1e7c;" horiz-adv-x="1178" 
d="M558 1554c-26 30 -51 58 -88 58c-55 0 -71 -50 -73 -108h-83c0 104 50 187 156 187c56 0 94 -26 140 -75c28 -32 47 -54 85 -54c50 0 77 59 80 115h83c0 -96 -61 -189 -157 -189c-72 0 -106 27 -143 66zM651 0h-129l-496 1363h144l416 -1196h4l417 1196h144z" />
    <glyph glyph-name="vtilde" unicode="&#x1e7d;" horiz-adv-x="951" 
d="M440 1243c-28 33 -56 66 -96 66c-58 0 -77 -57 -79 -122h-88c0 117 54 208 167 208c61 0 102 -28 150 -83c31 -36 53 -60 93 -60c54 0 84 66 87 128h87c0 -106 -65 -210 -168 -210c-77 0 -115 30 -153 73zM410 0l-378 1043h140l297 -903h6l310 903h134l-383 -1043h-126z
" />
    <glyph glyph-name="Vdotbelow" unicode="&#x1e7e;" horiz-adv-x="1178" 
d="M501 -282c0 52 40 91 88 91c52 0 92 -39 92 -91c0 -50 -40 -88 -92 -88c-48 0 -88 38 -88 88zM651 0h-129l-496 1363h144l416 -1196h4l417 1196h144z" />
    <glyph glyph-name="vdotbelow" unicode="&#x1e7f;" horiz-adv-x="951" 
d="M388 -282c0 52 40 91 88 91c52 0 92 -39 92 -91c0 -50 -40 -88 -92 -88c-48 0 -88 38 -88 88zM410 0l-378 1043h140l297 -903h6l310 903h134l-383 -1043h-126z" />
    <glyph glyph-name="Wgrave" unicode="&#x1e80;" horiz-adv-x="1665" 
d="M932 1514h-119l-298 213h149zM513 0h-119l-371 1363h149l283 -1145h4l305 1145h137l305 -1145h4l284 1145h148l-372 -1363h-119l-317 1146h-5z" />
    <glyph glyph-name="wgrave" unicode="&#x1e81;" horiz-adv-x="1425" 
d="M796 1210h-99l-236 279h135zM1389 1043l-282 -1043h-124l-265 860h-4l-260 -860h-125l-294 1043h143l212 -872h6l259 872h121l264 -872h7l215 872h127z" />
    <glyph glyph-name="Wacute" unicode="&#x1e82;" horiz-adv-x="1665" 
d="M736 1513l268 213h148l-297 -213h-119zM513 0h-119l-371 1363h149l283 -1145h4l305 1145h137l305 -1145h4l284 1145h148l-372 -1363h-119l-317 1146h-5z" />
    <glyph glyph-name="wacute" unicode="&#x1e83;" horiz-adv-x="1425" 
d="M730 1210h-100l202 279h134zM1389 1043l-282 -1043h-124l-265 860h-4l-260 -860h-125l-294 1043h143l212 -872h6l259 872h121l264 -872h7l215 872h127z" />
    <glyph glyph-name="Wdieresis" unicode="&#x1e84;" horiz-adv-x="1665" 
d="M641 1579c0 40 30 71 69 71c40 0 70 -31 70 -71c0 -38 -30 -71 -70 -71c-39 0 -69 33 -69 71zM925 1579c0 40 31 71 70 71c40 0 69 -31 69 -71c0 -38 -29 -71 -69 -71c-39 0 -70 33 -70 71zM513 0h-119l-371 1363h149l283 -1145h4l305 1145h137l305 -1145h4l284 1145h148
l-372 -1363h-119l-317 1146h-5z" />
    <glyph glyph-name="wdieresis" unicode="&#x1e85;" horiz-adv-x="1425" 
d="M473 1264c0 48 35 83 79 83c46 0 81 -35 81 -83c0 -45 -35 -82 -81 -82c-44 0 -79 37 -79 82zM792 1264c0 48 36 83 79 83c47 0 82 -35 82 -83c0 -45 -35 -82 -82 -82c-43 0 -79 37 -79 82zM1389 1043l-282 -1043h-124l-265 860h-4l-260 -860h-125l-294 1043h143
l212 -872h6l259 872h121l264 -872h7l215 872h127z" />
    <glyph glyph-name="Wdotaccent" unicode="&#x1e86;" horiz-adv-x="1665" 
d="M747 1621c0 50 38 88 85 88c51 0 89 -38 89 -88c0 -49 -38 -85 -89 -85c-47 0 -85 36 -85 85zM513 0h-119l-371 1363h149l283 -1145h4l305 1145h137l305 -1145h4l284 1145h148l-372 -1363h-119l-317 1146h-5z" />
    <glyph glyph-name="wdotaccent" unicode="&#x1e87;" horiz-adv-x="1425" 
d="M627 1301c0 50 38 88 85 88c51 0 89 -38 89 -88c0 -49 -38 -85 -89 -85c-47 0 -85 36 -85 85zM1389 1043l-282 -1043h-124l-265 860h-4l-260 -860h-125l-294 1043h143l212 -872h6l259 872h121l264 -872h7l215 872h127z" />
    <glyph glyph-name="Wdotbelow" unicode="&#x1e88;" horiz-adv-x="1665" 
d="M745 -282c0 52 40 91 88 91c52 0 92 -39 92 -91c0 -50 -40 -88 -92 -88c-48 0 -88 38 -88 88zM513 0h-119l-371 1363h149l283 -1145h4l305 1145h137l305 -1145h4l284 1145h148l-372 -1363h-119l-317 1146h-5z" />
    <glyph glyph-name="wdotbelow" unicode="&#x1e89;" horiz-adv-x="1425" 
d="M625 -282c0 52 40 91 88 91c52 0 92 -39 92 -91c0 -50 -40 -88 -92 -88c-48 0 -88 38 -88 88zM1389 1043l-282 -1043h-124l-265 860h-4l-260 -860h-125l-294 1043h143l212 -872h6l259 872h121l264 -872h7l215 872h127z" />
    <glyph glyph-name="Xdotaccent" unicode="&#x1e8a;" horiz-adv-x="1117" 
d="M1094 1363l-461 -687l453 -676h-155l-375 574h-8l-377 -574h-147l456 685l-452 678h154l380 -575h7l377 575h148zM473 1621c0 50 38 88 85 88c51 0 89 -38 89 -88c0 -49 -38 -85 -89 -85c-47 0 -85 36 -85 85z" />
    <glyph glyph-name="xdotaccent" unicode="&#x1e8b;" horiz-adv-x="986" 
d="M773 0l-280 422h-6l-281 -422h-144l359 519l-357 524h152l273 -417h6l279 417h144l-357 -511l364 -532h-152zM407 1301c0 50 38 88 85 88c51 0 89 -38 89 -88c0 -49 -38 -85 -89 -85c-47 0 -85 36 -85 85z" />
    <glyph glyph-name="Xdieresis" unicode="&#x1e8c;" horiz-adv-x="1117" 
d="M1094 1363l-461 -687l453 -676h-155l-375 574h-8l-377 -574h-147l456 685l-452 678h154l380 -575h7l377 575h148zM367 1579c0 40 30 71 69 71c40 0 70 -31 70 -71c0 -38 -30 -71 -70 -71c-39 0 -69 33 -69 71zM651 1579c0 40 31 71 70 71c40 0 69 -31 69 -71
c0 -38 -29 -71 -69 -71c-39 0 -70 33 -70 71z" />
    <glyph glyph-name="xdieresis" unicode="&#x1e8d;" horiz-adv-x="986" 
d="M773 0l-280 422h-6l-281 -422h-144l359 519l-357 524h152l273 -417h6l279 417h144l-357 -511l364 -532h-152zM253 1264c0 48 35 83 79 83c46 0 81 -35 81 -83c0 -45 -35 -82 -81 -82c-44 0 -79 37 -79 82zM572 1264c0 48 36 83 79 83c47 0 82 -35 82 -83
c0 -45 -35 -82 -82 -82c-43 0 -79 37 -79 82z" />
    <glyph glyph-name="Ydotaccent" unicode="&#x1e8e;" horiz-adv-x="1070" 
d="M598 0h-126v602l-462 761h147l375 -634h5l377 634h146l-462 -760v-603zM450 1621c0 50 38 88 85 88c51 0 89 -38 89 -88c0 -49 -38 -85 -89 -85c-47 0 -85 36 -85 85z" />
    <glyph glyph-name="ydotaccent" unicode="&#x1e8f;" horiz-adv-x="983" 
d="M937 1043l-376 -1050l-34 -90c-55 -149 -123 -270 -311 -270c-35 0 -73 4 -99 9v108c19 -4 56 -7 81 -7c119 0 172 63 204 167l25 75l-390 1058h140l311 -913h6l309 913h134zM406 1301c0 50 38 88 85 88c51 0 89 -38 89 -88c0 -49 -38 -85 -89 -85c-47 0 -85 36 -85 85z
" />
    <glyph glyph-name="Zcircumflex" unicode="&#x1e90;" horiz-adv-x="1145" 
d="M88 0v94l787 1150v4h-760v115h918v-93l-783 -1150v-4h795v-116h-957zM265 1509l280 225h64l277 -225h-128l-179 149h-5l-179 -149h-130z" />
    <glyph glyph-name="zcircumflex" unicode="&#x1e91;" horiz-adv-x="964" 
d="M227 1220l215 306h82l208 -307h-108l-140 225h-3l-146 -224h-108zM109 0v92l591 838v9h-594v104h752v-92l-592 -838v-7h595v-106h-752z" />
    <glyph glyph-name="Zdotbelow" unicode="&#x1e92;" horiz-adv-x="1145" 
d="M485 -282c0 52 40 91 88 91c52 0 92 -39 92 -91c0 -50 -40 -88 -92 -88c-48 0 -88 38 -88 88zM88 0v94l787 1150v4h-760v115h918v-93l-783 -1150v-4h795v-116h-957z" />
    <glyph glyph-name="zdotbelow" unicode="&#x1e93;" horiz-adv-x="964" 
d="M394 -282c0 52 40 91 88 91c52 0 92 -39 92 -91c0 -50 -40 -88 -92 -88c-48 0 -88 38 -88 88zM109 0v92l591 838v9h-594v104h752v-92l-592 -838v-7h595v-106h-752z" />
    <glyph glyph-name="Zlinebelow" unicode="&#x1e94;" horiz-adv-x="1145" 
d="M88 0v94l787 1150v4h-760v115h918v-93l-783 -1150v-4h795v-116h-957zM841 -307h-546v84h546v-84z" />
    <glyph glyph-name="zlinebelow" unicode="&#x1e95;" horiz-adv-x="964" 
d="M750 -307h-546v84h546v-84zM109 0v92l591 838v9h-594v104h752v-92l-592 -838v-7h595v-106h-752z" />
    <glyph glyph-name="hlinebelow" unicode="&#x1e96;" horiz-adv-x="1141" 
d="M164 0v1436h126v-551h5c32 80 128 175 308 175c227 0 381 -160 381 -399v-661h-126v638c0 176 -93 307 -273 307c-189 0 -295 -133 -295 -321v-624h-126zM833 -307h-546v84h546v-84z" />
    <glyph glyph-name="tdieresis" unicode="&#x1e97;" horiz-adv-x="651" 
d="M210 1043v259h126v-259h236v-108h-236v-672c0 -128 48 -162 181 -162c22 0 50 1 65 3v-104c-15 -3 -55 -7 -91 -7c-228 0 -281 84 -281 280v662h-162v108h162zM40 1515c0 48 35 83 79 83c46 0 81 -35 81 -83c0 -45 -35 -82 -81 -82c-44 0 -79 37 -79 82zM359 1515
c0 48 36 83 79 83c47 0 82 -35 82 -83c0 -45 -35 -82 -82 -82c-43 0 -79 37 -79 82z" />
    <glyph glyph-name="wring" unicode="&#x1e98;" horiz-adv-x="1425" 
d="M1389 1043l-282 -1043h-124l-265 860h-4l-260 -860h-125l-294 1043h143l212 -872h6l259 872h121l264 -872h7l215 872h127zM712 1192c-101 0 -181 78 -181 178s80 177 181 177c99 0 179 -77 179 -177s-80 -178 -179 -178zM603 1370c0 -60 49 -110 109 -110
c61 0 108 50 108 110c0 61 -47 110 -108 110c-60 0 -109 -49 -109 -110z" />
    <glyph glyph-name="yring" unicode="&#x1e99;" horiz-adv-x="983" 
d="M937 1043l-376 -1050l-34 -90c-55 -149 -123 -270 -311 -270c-35 0 -73 4 -99 9v108c19 -4 56 -7 81 -7c119 0 172 63 204 167l25 75l-390 1058h140l311 -913h6l309 913h134zM491 1192c-101 0 -181 78 -181 178s80 177 181 177c99 0 179 -77 179 -177s-80 -178 -179 -178
zM382 1370c0 -60 49 -110 109 -110c61 0 108 50 108 110c0 61 -47 110 -108 110c-60 0 -109 -49 -109 -110z" />
    <glyph glyph-name="Adotbelow" unicode="&#x1ea0;" horiz-adv-x="1172" 
d="M165 0h-132l490 1363h126l489 -1363h-137l-149 436h-537zM585 1206h-4l-230 -665h464zM499 -282c0 52 40 91 88 91c52 0 92 -39 92 -91c0 -50 -40 -88 -92 -88c-48 0 -88 38 -88 88z" />
    <glyph glyph-name="adotbelow" unicode="&#x1ea1;" horiz-adv-x="1038" 
d="M756 152c-43 -77 -143 -169 -316 -169c-203 0 -341 122 -341 313c0 178 124 298 361 298h295v137c0 151 -93 216 -246 216c-164 0 -233 -80 -245 -176h-123c10 165 130 289 375 289c224 0 366 -101 366 -324v-736h-122v152h-4zM467 93c161 0 288 110 288 262v132h-291
c-164 0 -234 -78 -234 -188c0 -136 108 -206 237 -206zM431 -282c0 52 40 91 88 91c52 0 92 -39 92 -91c0 -50 -40 -88 -92 -88c-48 0 -88 38 -88 88z" />
    <glyph glyph-name="Ahookabove" unicode="&#x1ea2;" horiz-adv-x="1172" 
d="M165 0h-132l490 1363h126l489 -1363h-137l-149 436h-537zM585 1206h-4l-230 -665h464zM459 1661v76c15 7 55 18 101 18c105 0 184 -51 184 -141s-86 -134 -130 -152l-50 64c39 14 86 42 86 82c0 50 -47 68 -96 68c-45 0 -75 -8 -95 -15z" />
    <glyph glyph-name="ahookabove" unicode="&#x1ea3;" horiz-adv-x="1038" 
d="M756 152c-43 -77 -143 -169 -316 -169c-203 0 -341 122 -341 313c0 178 124 298 361 298h295v137c0 151 -93 216 -246 216c-164 0 -233 -80 -245 -176h-123c10 165 130 289 375 289c224 0 366 -101 366 -324v-736h-122v152h-4zM467 93c161 0 288 110 288 262v132h-291
c-164 0 -234 -78 -234 -188c0 -136 108 -206 237 -206zM395 1430v86c20 11 60 21 107 21c121 0 201 -64 201 -172c0 -92 -68 -145 -139 -186l-54 71c64 37 94 69 94 113c0 52 -48 86 -108 86c-43 0 -79 -8 -101 -19z" />
    <glyph glyph-name="Acircumflexacute" unicode="&#x1ea4;" horiz-adv-x="1172" 
d="M165 0h-132l490 1363h126l489 -1363h-137l-149 436h-537zM585 1206h-4l-230 -665h464zM277 1528l277 225h65l279 -225h-130l-179 149h-5l-178 -149h-129zM772 1702l219 225h142l-270 -233z" />
    <glyph glyph-name="acircumflexacute" unicode="&#x1ea5;" horiz-adv-x="1038" 
d="M756 152c-43 -77 -143 -169 -316 -169c-203 0 -341 122 -341 313c0 178 124 298 361 298h295v137c0 151 -93 216 -246 216c-164 0 -233 -80 -245 -176h-123c10 165 130 289 375 289c224 0 366 -101 366 -324v-736h-122v152h-4zM467 93c161 0 288 110 288 262v132h-291
c-164 0 -234 -78 -234 -188c0 -136 108 -206 237 -206zM209 1208l277 225h65l279 -225h-130l-179 149h-5l-178 -149h-129zM704 1382l219 225h142l-270 -233z" />
    <glyph glyph-name="Acircumflexgrave" unicode="&#x1ea6;" horiz-adv-x="1172" 
d="M165 0h-132l490 1363h126l489 -1363h-137l-149 436h-537zM585 1206h-4l-230 -665h464zM1012 1694h-100l-284 233h142zM898 1528h-130l-179 149h-5l-178 -149h-129l277 225h65z" />
    <glyph glyph-name="acircumflexgrave" unicode="&#x1ea7;" horiz-adv-x="1038" 
d="M756 152c-43 -77 -143 -169 -316 -169c-203 0 -341 122 -341 313c0 178 124 298 361 298h295v137c0 151 -93 216 -246 216c-164 0 -233 -80 -245 -176h-123c10 165 130 289 375 289c224 0 366 -101 366 -324v-736h-122v152h-4zM467 93c161 0 288 110 288 262v132h-291
c-164 0 -234 -78 -234 -188c0 -136 108 -206 237 -206zM944 1374h-100l-284 233h142zM830 1208h-130l-179 149h-5l-178 -149h-129l277 225h65z" />
    <glyph glyph-name="Acircumflexhookabove" unicode="&#x1ea8;" horiz-adv-x="1172" 
d="M165 0h-132l490 1363h126l489 -1363h-137l-149 436h-537zM585 1206h-4l-230 -665h464zM275 1521l279 212h65l277 -212h-129l-179 139h-5l-178 -139h-130zM711 1929c17 4 46 8 79 8c89 0 152 -44 152 -122c0 -64 -49 -107 -99 -135l-47 47c33 20 61 44 61 79
c0 39 -38 62 -85 62c-19 0 -43 -2 -61 -7v68z" />
    <glyph glyph-name="acircumflexhookabove" unicode="&#x1ea9;" horiz-adv-x="1038" 
d="M756 152c-43 -77 -143 -169 -316 -169c-203 0 -341 122 -341 313c0 178 124 298 361 298h295v137c0 151 -93 216 -246 216c-164 0 -233 -80 -245 -176h-123c10 165 130 289 375 289c224 0 366 -101 366 -324v-736h-122v152h-4zM467 93c161 0 288 110 288 262v132h-291
c-164 0 -234 -78 -234 -188c0 -136 108 -206 237 -206zM207 1201l279 212h65l277 -212h-129l-179 139h-5l-178 -139h-130zM643 1609c17 4 46 8 79 8c89 0 152 -44 152 -122c0 -64 -49 -107 -99 -135l-47 47c33 20 61 44 61 79c0 39 -38 62 -85 62c-19 0 -43 -2 -61 -7v68z
" />
    <glyph glyph-name="Acircumflextilde" unicode="&#x1eaa;" horiz-adv-x="1172" 
d="M165 0h-132l490 1363h126l489 -1363h-137l-149 436h-537zM585 1206h-4l-230 -665h464zM278 1518l279 225h64l278 -225h-129l-179 149h-5l-178 -149h-130zM394 1809h-90c0 97 53 180 163 180c60 0 98 -26 146 -73c29 -29 53 -51 91 -51c52 0 79 58 81 111h89
c0 -97 -65 -181 -164 -181c-76 0 -112 25 -149 63c-26 28 -54 56 -93 56c-57 0 -74 -50 -74 -105z" />
    <glyph glyph-name="acircumflextilde" unicode="&#x1eab;" horiz-adv-x="1038" 
d="M756 152c-43 -77 -143 -169 -316 -169c-203 0 -341 122 -341 313c0 178 124 298 361 298h295v137c0 151 -93 216 -246 216c-164 0 -233 -80 -245 -176h-123c10 165 130 289 375 289c224 0 366 -101 366 -324v-736h-122v152h-4zM467 93c161 0 288 110 288 262v132h-291
c-164 0 -234 -78 -234 -188c0 -136 108 -206 237 -206zM210 1198l279 225h64l278 -225h-129l-179 149h-5l-178 -149h-130zM326 1489h-90c0 97 53 180 163 180c60 0 98 -26 146 -73c29 -29 53 -51 91 -51c52 0 79 58 81 111h89c0 -97 -65 -181 -164 -181
c-76 0 -112 25 -149 63c-26 28 -54 56 -93 56c-57 0 -74 -50 -74 -105z" />
    <glyph glyph-name="Acircumflexdotbelow" unicode="&#x1eac;" horiz-adv-x="1172" 
d="M165 0h-132l490 1363h126l489 -1363h-137l-149 436h-537zM585 1206h-4l-230 -665h464zM499 -282c0 52 40 91 88 91c52 0 92 -39 92 -91c0 -50 -40 -88 -92 -88c-48 0 -88 38 -88 88zM279 1509l280 225h64l277 -225h-128l-179 149h-5l-179 -149h-130z" />
    <glyph glyph-name="acircumflexdotbelow" unicode="&#x1ead;" horiz-adv-x="1038" 
d="M756 152c-43 -77 -143 -169 -316 -169c-203 0 -341 122 -341 313c0 178 124 298 361 298h295v137c0 151 -93 216 -246 216c-164 0 -233 -80 -245 -176h-123c10 165 130 289 375 289c224 0 366 -101 366 -324v-736h-122v152h-4zM467 93c161 0 288 110 288 262v132h-291
c-164 0 -234 -78 -234 -188c0 -136 108 -206 237 -206zM264 1220l215 306h82l208 -307h-108l-140 225h-3l-146 -224h-108zM431 -282c0 52 40 91 88 91c52 0 92 -39 92 -91c0 -50 -40 -88 -92 -88c-48 0 -88 38 -88 88z" />
    <glyph glyph-name="Abreveacute" unicode="&#x1eae;" horiz-adv-x="1172" 
d="M165 0h-132l490 1363h126l489 -1363h-137l-149 436h-537zM585 1206h-4l-230 -665h464zM856 1705c0 -107 -92 -218 -270 -218s-273 109 -273 218h93c0 -76 69 -138 180 -138s184 61 184 138h86zM493 1708l281 250h130l-292 -250h-119z" />
    <glyph glyph-name="abreveacute" unicode="&#x1eaf;" horiz-adv-x="1038" 
d="M756 152c-43 -77 -143 -169 -316 -169c-203 0 -341 122 -341 313c0 178 124 298 361 298h295v137c0 151 -93 216 -246 216c-164 0 -233 -80 -245 -176h-123c10 165 130 289 375 289c224 0 366 -101 366 -324v-736h-122v152h-4zM467 93c161 0 288 110 288 262v132h-291
c-164 0 -234 -78 -234 -188c0 -136 108 -206 237 -206zM788 1385c0 -107 -92 -218 -270 -218s-273 109 -273 218h93c0 -76 69 -138 180 -138s184 61 184 138h86zM425 1388l281 250h130l-292 -250h-119z" />
    <glyph glyph-name="Abrevegrave" unicode="&#x1eb0;" horiz-adv-x="1172" 
d="M165 0h-132l490 1363h126l489 -1363h-137l-149 436h-537zM585 1206h-4l-230 -665h464zM856 1705c0 -107 -92 -218 -270 -218s-273 109 -273 218h93c0 -76 69 -138 180 -138s184 61 184 138h86zM697 1708h-119l-292 250h130z" />
    <glyph glyph-name="abrevegrave" unicode="&#x1eb1;" horiz-adv-x="1038" 
d="M756 152c-43 -77 -143 -169 -316 -169c-203 0 -341 122 -341 313c0 178 124 298 361 298h295v137c0 151 -93 216 -246 216c-164 0 -233 -80 -245 -176h-123c10 165 130 289 375 289c224 0 366 -101 366 -324v-736h-122v152h-4zM467 93c161 0 288 110 288 262v132h-291
c-164 0 -234 -78 -234 -188c0 -136 108 -206 237 -206zM788 1385c0 -107 -92 -218 -270 -218s-273 109 -273 218h93c0 -76 69 -138 180 -138s184 61 184 138h86zM629 1388h-119l-292 250h130z" />
    <glyph glyph-name="Abrevehookabove" unicode="&#x1eb2;" horiz-adv-x="1172" 
d="M165 0h-132l490 1363h126l489 -1363h-137l-149 436h-537zM585 1206h-4l-230 -665h464zM856 1705c0 -107 -92 -218 -270 -218s-273 109 -273 218h93c0 -76 69 -138 180 -138s184 61 184 138h86zM459 1952c20 4 49 9 84 9c101 0 179 -42 179 -134c0 -72 -74 -128 -122 -144
l-56 57c40 16 84 43 84 80c0 43 -49 65 -104 65c-26 0 -44 -2 -65 -7v74z" />
    <glyph glyph-name="abrevehookabove" unicode="&#x1eb3;" horiz-adv-x="1038" 
d="M756 152c-43 -77 -143 -169 -316 -169c-203 0 -341 122 -341 313c0 178 124 298 361 298h295v137c0 151 -93 216 -246 216c-164 0 -233 -80 -245 -176h-123c10 165 130 289 375 289c224 0 366 -101 366 -324v-736h-122v152h-4zM467 93c161 0 288 110 288 262v132h-291
c-164 0 -234 -78 -234 -188c0 -136 108 -206 237 -206zM788 1385c0 -107 -92 -218 -270 -218s-273 109 -273 218h93c0 -76 69 -138 180 -138s184 61 184 138h86zM391 1632c20 4 49 9 84 9c101 0 179 -42 179 -134c0 -72 -74 -128 -122 -144l-56 57c40 16 84 43 84 80
c0 43 -49 65 -104 65c-26 0 -44 -2 -65 -7v74z" />
    <glyph glyph-name="Abrevetilde" unicode="&#x1eb4;" horiz-adv-x="1172" 
d="M165 0h-132l490 1363h126l489 -1363h-137l-149 436h-537zM585 1206h-4l-230 -665h464zM856 1705c0 -107 -92 -218 -270 -218s-273 109 -273 218h93c0 -76 69 -138 180 -138s184 61 184 138h86zM558 1844c-26 29 -50 57 -90 57c-53 0 -71 -48 -73 -105h-92
c0 104 63 183 164 183c58 0 93 -22 139 -71c28 -31 50 -51 89 -51c49 0 78 56 80 110h89c0 -102 -66 -185 -163 -185c-73 0 -108 23 -143 62z" />
    <glyph glyph-name="abrevetilde" unicode="&#x1eb5;" horiz-adv-x="1038" 
d="M756 152c-43 -77 -143 -169 -316 -169c-203 0 -341 122 -341 313c0 178 124 298 361 298h295v137c0 151 -93 216 -246 216c-164 0 -233 -80 -245 -176h-123c10 165 130 289 375 289c224 0 366 -101 366 -324v-736h-122v152h-4zM467 93c161 0 288 110 288 262v132h-291
c-164 0 -234 -78 -234 -188c0 -136 108 -206 237 -206zM788 1385c0 -107 -92 -218 -270 -218s-273 109 -273 218h93c0 -76 69 -138 180 -138s184 61 184 138h86zM490 1524c-26 29 -50 57 -90 57c-53 0 -71 -48 -73 -105h-92c0 104 63 183 164 183c58 0 93 -22 139 -71
c28 -31 50 -51 89 -51c49 0 78 56 80 110h89c0 -102 -66 -185 -163 -185c-73 0 -108 23 -143 62z" />
    <glyph glyph-name="Abrevedotbelow" unicode="&#x1eb6;" horiz-adv-x="1172" 
d="M165 0h-132l490 1363h126l489 -1363h-137l-149 436h-537zM585 1206h-4l-230 -665h464zM499 -282c0 52 40 91 88 91c52 0 92 -39 92 -91c0 -50 -40 -88 -92 -88c-48 0 -88 38 -88 88zM288 1736h95c0 -87 79 -153 203 -153s200 66 200 153h95c0 -118 -82 -243 -295 -243
s-298 124 -298 243z" />
    <glyph glyph-name="abrevedotbelow" unicode="&#x1eb7;" horiz-adv-x="1038" 
d="M756 152c-43 -77 -143 -169 -316 -169c-203 0 -341 122 -341 313c0 178 124 298 361 298h295v137c0 151 -93 216 -246 216c-164 0 -233 -80 -245 -176h-123c10 165 130 289 375 289c224 0 366 -101 366 -324v-736h-122v152h-4zM467 93c161 0 288 110 288 262v132h-291
c-164 0 -234 -78 -234 -188c0 -136 108 -206 237 -206zM431 -282c0 52 40 91 88 91c52 0 92 -39 92 -91c0 -50 -40 -88 -92 -88c-48 0 -88 38 -88 88zM239 1429h94c0 -92 60 -171 183 -171s180 79 180 171h95c-1 -116 -81 -257 -275 -257s-278 139 -277 257z" />
    <glyph glyph-name="Edotbelow" unicode="&#x1eb8;" horiz-adv-x="1085" 
d="M484 -282c0 52 40 91 88 91c52 0 92 -39 92 -91c0 -50 -40 -88 -92 -88c-48 0 -88 38 -88 88zM972 116v-116h-795v1363h795v-117h-668v-491h633v-115h-633v-524h668z" />
    <glyph glyph-name="edotbelow" unicode="&#x1eb9;" horiz-adv-x="1053" 
d="M443 -282c0 52 40 91 88 91c52 0 92 -39 92 -91c0 -50 -40 -88 -92 -88c-48 0 -88 38 -88 88zM541 -17c-285 0 -429 195 -429 482v101c0 295 144 494 417 494s417 -193 417 -492v-73h-708v-37c0 -203 98 -362 303 -362c170 0 241 95 258 176h132
c-19 -125 -128 -289 -390 -289zM238 604h582v3c0 206 -111 342 -291 342s-291 -138 -291 -342v-3z" />
    <glyph glyph-name="Ehookabove" unicode="&#x1eba;" horiz-adv-x="1085" 
d="M972 116v-116h-795v1363h795v-117h-668v-491h633v-115h-633v-524h668zM444 1661v76c15 7 55 18 101 18c105 0 184 -51 184 -141s-86 -134 -130 -152l-50 64c39 14 86 42 86 82c0 50 -47 68 -96 68c-45 0 -75 -8 -95 -15z" />
    <glyph glyph-name="ehookabove" unicode="&#x1ebb;" horiz-adv-x="1053" 
d="M541 -17c-285 0 -429 195 -429 482v101c0 295 144 494 417 494s417 -193 417 -492v-73h-708v-37c0 -203 98 -362 303 -362c170 0 241 95 258 176h132c-19 -125 -128 -289 -390 -289zM238 604h582v3c0 206 -111 342 -291 342s-291 -138 -291 -342v-3zM403 1430v86
c20 11 60 21 107 21c121 0 201 -64 201 -172c0 -92 -68 -145 -139 -186l-54 71c64 37 94 69 94 113c0 52 -48 86 -108 86c-43 0 -79 -8 -101 -19z" />
    <glyph glyph-name="Etilde" unicode="&#x1ebc;" horiz-adv-x="1085" 
d="M972 116v-116h-795v1363h795v-117h-668v-491h633v-115h-633v-524h668zM541 1554c-26 30 -51 58 -88 58c-55 0 -71 -50 -73 -108h-83c0 104 50 187 156 187c56 0 94 -26 140 -75c28 -32 47 -54 85 -54c50 0 77 59 80 115h83c0 -96 -61 -189 -157 -189
c-72 0 -106 27 -143 66z" />
    <glyph glyph-name="etilde" unicode="&#x1ebd;" horiz-adv-x="1053" 
d="M541 -17c-285 0 -429 195 -429 482v101c0 295 144 494 417 494s417 -193 417 -492v-73h-708v-37c0 -203 98 -362 303 -362c170 0 241 95 258 176h132c-19 -125 -128 -289 -390 -289zM238 604h582v3c0 206 -111 342 -291 342s-291 -138 -291 -342v-3zM491 1243
c-28 33 -56 66 -96 66c-58 0 -77 -57 -79 -122h-88c0 117 54 208 167 208c61 0 102 -28 150 -83c31 -36 53 -60 93 -60c54 0 84 66 87 128h87c0 -106 -65 -210 -168 -210c-77 0 -115 30 -153 73z" />
    <glyph glyph-name="Ecircumflexacute" unicode="&#x1ebe;" horiz-adv-x="1085" 
d="M262 1528l277 225h65l279 -225h-130l-179 149h-5l-178 -149h-129zM757 1702l219 225h142l-270 -233zM972 116v-116h-795v1363h795v-117h-668v-491h633v-115h-633v-524h668z" />
    <glyph glyph-name="ecircumflexacute" unicode="&#x1ebf;" horiz-adv-x="1053" 
d="M217 1208l277 225h65l279 -225h-130l-179 149h-5l-178 -149h-129zM712 1382l219 225h142l-270 -233zM541 -17c-285 0 -429 195 -429 482v101c0 295 144 494 417 494s417 -193 417 -492v-73h-708v-37c0 -203 98 -362 303 -362c170 0 241 95 258 176h132
c-19 -125 -128 -289 -390 -289zM238 604h582v3c0 206 -111 342 -291 342s-291 -138 -291 -342v-3z" />
    <glyph glyph-name="Ecircumflexgrave" unicode="&#x1ec0;" horiz-adv-x="1085" 
d="M997 1694h-100l-284 233h142zM883 1528h-130l-179 149h-5l-178 -149h-129l277 225h65zM972 116v-116h-795v1363h795v-117h-668v-491h633v-115h-633v-524h668z" />
    <glyph glyph-name="ecircumflexgrave" unicode="&#x1ec1;" horiz-adv-x="1053" 
d="M952 1374h-100l-284 233h142zM838 1208h-130l-179 149h-5l-178 -149h-129l277 225h65zM541 -17c-285 0 -429 195 -429 482v101c0 295 144 494 417 494s417 -193 417 -492v-73h-708v-37c0 -203 98 -362 303 -362c170 0 241 95 258 176h132c-19 -125 -128 -289 -390 -289z
M238 604h582v3c0 206 -111 342 -291 342s-291 -138 -291 -342v-3z" />
    <glyph glyph-name="Ecircumflexhookabove" unicode="&#x1ec2;" horiz-adv-x="1085" 
d="M260 1521l279 212h65l277 -212h-129l-179 139h-5l-178 -139h-130zM696 1929c17 4 46 8 79 8c89 0 152 -44 152 -122c0 -64 -49 -107 -99 -135l-47 47c33 20 61 44 61 79c0 39 -38 62 -85 62c-19 0 -43 -2 -61 -7v68zM972 116v-116h-795v1363h795v-117h-668v-491h633v-115
h-633v-524h668z" />
    <glyph glyph-name="ecircumflexhookabove" unicode="&#x1ec3;" horiz-adv-x="1053" 
d="M215 1201l279 212h65l277 -212h-129l-179 139h-5l-178 -139h-130zM651 1609c17 4 46 8 79 8c89 0 152 -44 152 -122c0 -64 -49 -107 -99 -135l-47 47c33 20 61 44 61 79c0 39 -38 62 -85 62c-19 0 -43 -2 -61 -7v68zM541 -17c-285 0 -429 195 -429 482v101
c0 295 144 494 417 494s417 -193 417 -492v-73h-708v-37c0 -203 98 -362 303 -362c170 0 241 95 258 176h132c-19 -125 -128 -289 -390 -289zM238 604h582v3c0 206 -111 342 -291 342s-291 -138 -291 -342v-3z" />
    <glyph glyph-name="Ecircumflextilde" unicode="&#x1ec4;" horiz-adv-x="1085" 
d="M972 116v-116h-795v1363h795v-117h-668v-491h633v-115h-633v-524h668zM263 1518l279 225h64l278 -225h-129l-179 149h-5l-178 -149h-130zM379 1809h-90c0 97 53 180 163 180c60 0 98 -26 146 -73c29 -29 53 -51 91 -51c52 0 79 58 81 111h89c0 -97 -65 -181 -164 -181
c-76 0 -112 25 -149 63c-26 28 -54 56 -93 56c-57 0 -74 -50 -74 -105z" />
    <glyph glyph-name="ecircumflextilde" unicode="&#x1ec5;" horiz-adv-x="1053" 
d="M541 -17c-285 0 -429 195 -429 482v101c0 295 144 494 417 494s417 -193 417 -492v-73h-708v-37c0 -203 98 -362 303 -362c170 0 241 95 258 176h132c-19 -125 -128 -289 -390 -289zM238 604h582v3c0 206 -111 342 -291 342s-291 -138 -291 -342v-3zM218 1198l279 225h64
l278 -225h-129l-179 149h-5l-178 -149h-130zM334 1489h-90c0 97 53 180 163 180c60 0 98 -26 146 -73c29 -29 53 -51 91 -51c52 0 79 58 81 111h89c0 -97 -65 -181 -164 -181c-76 0 -112 25 -149 63c-26 28 -54 56 -93 56c-57 0 -74 -50 -74 -105z" />
    <glyph glyph-name="Ecircumflexdotbelow" unicode="&#x1ec6;" horiz-adv-x="1085" 
d="M484 -282c0 52 40 91 88 91c52 0 92 -39 92 -91c0 -50 -40 -88 -92 -88c-48 0 -88 38 -88 88zM264 1509l280 225h64l277 -225h-128l-179 149h-5l-179 -149h-130zM972 116v-116h-795v1363h795v-117h-668v-491h633v-115h-633v-524h668z" />
    <glyph glyph-name="ecircumflexdotbelow" unicode="&#x1ec7;" horiz-adv-x="1053" 
d="M272 1220l215 306h82l208 -307h-108l-140 225h-3l-146 -224h-108zM541 -17c-285 0 -429 195 -429 482v101c0 295 144 494 417 494s417 -193 417 -492v-73h-708v-37c0 -203 98 -362 303 -362c170 0 241 95 258 176h132c-19 -125 -128 -289 -390 -289zM238 604h582v3
c0 206 -111 342 -291 342s-291 -138 -291 -342v-3zM443 -282c0 52 40 91 88 91c52 0 92 -39 92 -91c0 -50 -40 -88 -92 -88c-48 0 -88 38 -88 88z" />
    <glyph glyph-name="Ihookabove" unicode="&#x1ec8;" horiz-adv-x="493" 
d="M310 0h-127v1363h127v-1363zM119 1661v76c15 7 55 18 101 18c105 0 184 -51 184 -141s-86 -134 -130 -152l-50 64c39 14 86 42 86 82c0 50 -47 68 -96 68c-45 0 -75 -8 -95 -15z" />
    <glyph glyph-name="ihookabove" unicode="&#x1ec9;" horiz-adv-x="483" 
d="M178 0v1043h126v-1043h-126zM118 1430v86c20 11 60 21 107 21c121 0 201 -64 201 -172c0 -92 -68 -145 -139 -186l-54 71c64 37 94 69 94 113c0 52 -48 86 -108 86c-43 0 -79 -8 -101 -19z" />
    <glyph glyph-name="Idotbelow" unicode="&#x1eca;" horiz-adv-x="493" 
d="M310 0h-127v1363h127v-1363zM159 -282c0 52 40 91 88 91c52 0 92 -39 92 -91c0 -50 -40 -88 -92 -88c-48 0 -88 38 -88 88z" />
    <glyph glyph-name="idotbelow" unicode="&#x1ecb;" horiz-adv-x="498" 
d="M186 0v1043h126v-1043h-126zM158 1310c0 52 40 90 90 90c52 0 92 -38 92 -90s-40 -91 -92 -91c-50 0 -90 39 -90 91zM161 -282c0 52 40 91 88 91c52 0 92 -39 92 -91c0 -50 -40 -88 -92 -88c-48 0 -88 38 -88 88z" />
    <glyph glyph-name="Odotbelow" unicode="&#x1ecc;" horiz-adv-x="1307" 
d="M566 -282c0 52 40 91 88 91c52 0 92 -39 92 -91c0 -50 -40 -88 -92 -88c-48 0 -88 38 -88 88zM248 789v-225c0 -311 167 -477 405 -477c239 0 405 166 405 477v225c0 311 -167 488 -405 488c-237 0 -405 -177 -405 -488zM122 566v221c0 376 206 606 532 606
c328 0 531 -231 531 -607v-220c0 -375 -206 -596 -533 -596c-328 0 -530 221 -530 596z" />
    <glyph glyph-name="odotbelow" unicode="&#x1ecd;" horiz-adv-x="1094" 
d="M460 -282c0 52 40 91 88 91c52 0 92 -39 92 -91c0 -50 -40 -88 -92 -88c-48 0 -88 38 -88 88zM547 1060c282 0 436 -191 436 -484v-110c0 -294 -153 -483 -436 -483s-436 188 -436 483v110c0 287 152 484 436 484zM547 949c-213 0 -311 -164 -311 -387v-81
c0 -226 97 -385 312 -385c213 0 309 158 309 385v81c0 222 -97 387 -310 387z" />
    <glyph glyph-name="Ohookabove" unicode="&#x1ece;" horiz-adv-x="1307" 
d="M526 1661v76c15 7 55 18 101 18c105 0 184 -51 184 -141s-86 -134 -130 -152l-50 64c39 14 86 42 86 82c0 50 -47 68 -96 68c-45 0 -75 -8 -95 -15zM248 789v-225c0 -311 167 -477 405 -477c239 0 405 166 405 477v225c0 311 -167 488 -405 488
c-237 0 -405 -177 -405 -488zM122 566v221c0 376 206 606 532 606c328 0 531 -231 531 -607v-220c0 -375 -206 -596 -533 -596c-328 0 -530 221 -530 596z" />
    <glyph glyph-name="ohookabove" unicode="&#x1ecf;" horiz-adv-x="1094" 
d="M547 1060c282 0 436 -191 436 -484v-110c0 -294 -153 -483 -436 -483s-436 188 -436 483v110c0 287 152 484 436 484zM547 949c-213 0 -311 -164 -311 -387v-81c0 -226 97 -385 312 -385c213 0 309 158 309 385v81c0 222 -97 387 -310 387zM424 1430v86
c20 11 60 21 107 21c121 0 201 -64 201 -172c0 -92 -68 -145 -139 -186l-54 71c64 37 94 69 94 113c0 52 -48 86 -108 86c-43 0 -79 -8 -101 -19z" />
    <glyph glyph-name="Ocircumflexacute" unicode="&#x1ed0;" horiz-adv-x="1307" 
d="M344 1528l277 225h65l279 -225h-130l-179 149h-5l-178 -149h-129zM839 1702l219 225h142l-270 -233zM248 789v-225c0 -311 167 -477 405 -477c239 0 405 166 405 477v225c0 311 -167 488 -405 488c-237 0 -405 -177 -405 -488zM122 566v221c0 376 206 606 532 606
c328 0 531 -231 531 -607v-220c0 -375 -206 -596 -533 -596c-328 0 -530 221 -530 596z" />
    <glyph glyph-name="ocircumflexacute" unicode="&#x1ed1;" horiz-adv-x="1094" 
d="M238 1208l277 225h65l279 -225h-130l-179 149h-5l-178 -149h-129zM733 1382l219 225h142l-270 -233zM547 1060c282 0 436 -191 436 -484v-110c0 -294 -153 -483 -436 -483s-436 188 -436 483v110c0 287 152 484 436 484zM547 949c-213 0 -311 -164 -311 -387v-81
c0 -226 97 -385 312 -385c213 0 309 158 309 385v81c0 222 -97 387 -310 387z" />
    <glyph glyph-name="Ocircumflexgrave" unicode="&#x1ed2;" horiz-adv-x="1307" 
d="M1079 1694h-100l-284 233h142zM965 1528h-130l-179 149h-5l-178 -149h-129l277 225h65zM248 789v-225c0 -311 167 -477 405 -477c239 0 405 166 405 477v225c0 311 -167 488 -405 488c-237 0 -405 -177 -405 -488zM122 566v221c0 376 206 606 532 606
c328 0 531 -231 531 -607v-220c0 -375 -206 -596 -533 -596c-328 0 -530 221 -530 596z" />
    </font>
</defs>
</svg>
